<svg xmlns="http://www.w3.org/2000/svg" xmlns:xlink="http://www.w3.org/1999/xlink" data-name="Layer 1" viewBox="0 0 200 150"><defs><linearGradient id="a" x1="113.38" x2="147.46" y1="86.14" y2="120.22" gradientUnits="userSpaceOnUse"><stop offset="0" stop-color="#8eff99"/><stop offset=".12" stop-color="#88f2a1"/><stop offset=".35" stop-color="#79cfb6"/><stop offset=".66" stop-color="#6196d7"/><stop offset=".99" stop-color="#4452ff"/></linearGradient><linearGradient id="b" x1="141.32" x2="117.79" y1="114.91" y2="89.7" xlink:href="#a"/></defs><path fill="#00162c" d="M62.41,90.1c.4,1,.85,1.92,1.32,2.86l.42-.22c-.47-.92-.91-1.87-1.31-2.82Z"/><path fill="#00162c" d="M65.28,95.7c.55.89,1.14,1.78,1.76,2.62l.37-.28c-.61-.83-1.19-1.7-1.73-2.58Z"/><path fill="#00162c" d="M69,100.79c.68.8,1.4,1.57,2.14,2.31l.33-.33c-.73-.73-1.44-1.5-2.11-2.28Z"/><path fill="#00162c" d="M60.46,84.11c.24,1,.53,2,.85,3l.45-.15c-.32-1-.61-2-.85-3Z"/><path fill="#00162c" d="M90.16,113.75c1,.24,2.06.44,3.1.6l.07-.46q-1.55-.24-3.06-.6Z"/><path fill="#00162c" d="M73.45,105.24c.8.68,1.63,1.34,2.48,2l.27-.37c-.84-.61-1.66-1.26-2.45-1.93Z"/><path fill="#00162c" d="M59.47,77.89c.08,1,.21,2.1.37,3.13L60.3,81c-.16-1-.28-2.06-.37-3.09Z"/><path fill="#00162c" d="M93.12,35l.08.46c1-.16,2.06-.29,3.09-.37l0-.47C95.21,34.73,94.16,34.85,93.12,35Z"/><path fill="#00162c" d="M78.55,108.94c.89.55,1.82,1.07,2.75,1.55l.21-.42c-.92-.47-1.83-1-2.72-1.52Z"/><path fill="#00162c" d="M87,36.5l.14.44c1-.32,2-.6,3-.85L90,35.64C89,35.88,88,36.17,87,36.5Z"/><path fill="#00162c" d="M73.66,44.54l-.3-.35c-.79.68-1.57,1.4-2.31,2.14l.33.33C72.11,45.93,72.88,45.22,73.66,44.54Z"/><path fill="#00162c" d="M78.69,40.87l-.24-.4c-.89.55-1.78,1.14-2.62,1.76l.28.38C76.94,42,77.81,41.41,78.69,40.87Z"/><path fill="#00162c" d="M84.23,38l-.18-.43c-1,.4-1.93.85-2.86,1.32l.21.42C82.32,38.87,83.27,38.43,84.23,38Z"/><path fill="#00162c" d="M139.53,71.39c-.09-1-.21-2.1-.38-3.13l-.46.08c.16,1,.29,2.06.37,3.09Z"/><path fill="#00162c" d="M69.27,49l-.36-.3c-.67.8-1.33,1.63-2,2.48l.38.27C68,50.57,68.6,49.74,69.27,49Z"/><path fill="#00162c" d="M59.81,74.68c0-1,0-2,.11-3.05l-.46,0c-.08,1-.12,2.06-.12,3.09v.06h.47Z"/><path fill="#00162c" d="M62.79,59.55l-.43-.18c-.4,1-.77,2-1.09,3l.45.15C62,61.49,62.4,60.51,62.79,59.55Z"/><path fill="#00162c" d="M60.88,65.48l-.46-.11c-.24,1-.44,2.06-.6,3.09l.46.07C60.44,67.51,60.64,66.48,60.88,65.48Z"/><path fill="#00162c" d="M65.61,54l-.39-.25c-.55.89-1.07,1.82-1.54,2.76l.41.21C64.56,55.79,65.08,54.88,65.61,54Z"/><path fill="#00162c" d="M84.17,111.81c1,.4,2,.76,3,1.08l.14-.44c-1-.32-2-.68-2.92-1.08Z"/><path fill="#00162c" d="M131.93,51l-.38.27c.61.84,1.2,1.71,1.74,2.59l.4-.25C133.14,52.7,132.55,51.82,131.93,51Z"/><path fill="#00162c" d="M135.24,56.33l-.42.22c.48.92.92,1.87,1.32,2.82l.43-.18C136.16,58.22,135.72,57.26,135.24,56.33Z"/><path fill="#00162c" d="M133.35,95.41l.4.25c.55-.9,1.07-1.82,1.55-2.75l-.42-.22C134.41,93.61,133.9,94.53,133.35,95.41Z"/><path fill="#00162c" d="M127.82,46.2l-.33.33c.74.73,1.45,1.5,2.12,2.28l.36-.3C129.29,47.72,128.56,46.94,127.82,46.2Z"/><path fill="#00162c" d="M129.69,100.45l.36.3c.68-.79,1.33-1.62,1.95-2.47l-.38-.28C131,98.84,130.36,99.66,129.69,100.45Z"/><path fill="#00162c" d="M137.67,62.14l-.45.15c.33,1,.61,2,.86,3l.45-.11C138.29,64.16,138,63.14,137.67,62.14Z"/><path fill="#00162c" d="M136.19,89.86l.43.18c.4-1,.77-2,1.09-3l-.44-.14C137,87.92,136.58,88.91,136.19,89.86Z"/><path fill="#00162c" d="M139.2,74.68c0,1,0,2.08-.12,3.11l.46,0c.08-1,.12-2.1.12-3.15v-.14h-.46Z"/><path fill="#00162c" d="M138.11,83.94l.45.11c.25-1,.45-2.06.61-3.09l-.46-.08C138.55,81.9,138.35,82.93,138.11,83.94Z"/><path fill="#00162c" d="M125.29,104.85l.3.36c.8-.68,1.58-1.4,2.32-2.14l-.33-.33C126.84,103.47,126.08,104.18,125.29,104.85Z"/><path fill="#00162c" d="M108.8,113.27l.11.46c1-.24,2-.53,3-.86l-.14-.44C110.81,112.75,109.8,113,108.8,113.27Z"/><path fill="#00162c" d="M105.61,35.45q1.55.24,3.06.6l.1-.46c-1-.24-2-.44-3.09-.6Z"/><path fill="#00162c" d="M96.42,114.25l0,.47c1,.08,2.07.12,3.11.12h0l0-.47C98.47,114.37,97.44,114.33,96.42,114.25Z"/><path fill="#00162c" d="M102.65,114.25l0,.46c1-.08,2.1-.2,3.13-.37l-.07-.46C104.72,114,103.68,114.17,102.65,114.25Z"/><path fill="#00162c" d="M99.4,34.52V35h.1c1,0,2,0,3,.12l0-.47c-1-.08-2-.11-3-.11Z"/><path fill="#00162c" d="M123,42.12l-.27.38c.84.6,1.66,1.25,2.45,1.92l.3-.35C124.7,43.39,123.87,42.73,123,42.12Z"/><path fill="#00162c" d="M120.26,108.52l.24.4c.89-.55,1.77-1.14,2.62-1.76l-.28-.38C122,107.39,121.14,108,120.26,108.52Z"/><path fill="#00162c" d="M117.64,38.84l-.21.41c.92.47,1.84,1,2.72,1.52l.25-.4C119.5,39.83,118.58,39.31,117.64,38.84Z"/><path fill="#00162c" d="M114.71,111.35l.18.43c1-.4,1.93-.85,2.86-1.32l-.21-.42C116.62,110.51,115.67,111,114.71,111.35Z"/><path fill="#00162c" d="M111.81,36.44l-.14.44c1,.32,2,.68,2.93,1.07l.17-.43C113.8,37.12,112.81,36.76,111.81,36.44Z"/><path fill="#00162c" d="M68.63,105.59c.74.73,1.51,1.44,2.29,2.12l.3-.35c-.77-.67-1.53-1.38-2.26-2.1Z"/><path fill="#00162c" d="M64.55,100.88c.62.83,1.28,1.64,2,2.43l.35-.31c-.67-.77-1.32-1.58-1.94-2.4Z"/><path fill="#00162c" d="M61.17,95.65c.5.91,1,1.81,1.6,2.68l.39-.26c-.55-.86-1.08-1.75-1.58-2.65Z"/><path fill="#00162c" d="M58.58,90c.36,1,.76,1.93,1.19,2.88l.43-.2c-.43-.93-.83-1.89-1.18-2.84Z"/><path fill="#00162c" d="M73.35,109.67c.83.62,1.69,1.22,2.56,1.78l.25-.4c-.86-.55-1.71-1.14-2.53-1.76Z"/><path fill="#00162c" d="M56.82,84c.22,1,.48,2,.77,3L58,86.9c-.29-1-.55-2-.76-3Z"/><path fill="#00162c" d="M87.12,32.77l.13.45c1-.29,2-.55,3-.76l-.1-.46C89.13,32.22,88.11,32.48,87.12,32.77Z"/><path fill="#00162c" d="M90.25,117.38c1,.21,2,.4,3.06.54l.07-.46c-1-.14-2-.32-3-.54Z"/><path fill="#00162c" d="M78.59,113c.91.49,1.85,1,2.79,1.4l.2-.43c-.94-.43-1.87-.89-2.76-1.38Z"/><path fill="#00162c" d="M84.26,115.63c1,.36,2,.69,3,1l.14-.45c-1-.29-2-.61-2.93-1Z"/><path fill="#00162c" d="M78.73,36.77l-.23-.41c-.9.5-1.8,1-2.67,1.6l.25.39C76.94,37.79,77.84,37.26,78.73,36.77Z"/><path fill="#00162c" d="M68.9,44.16l-.33-.33c-.73.73-1.44,1.5-2.12,2.28l.35.31C67.47,45.65,68.18,44.89,68.9,44.16Z"/><path fill="#00162c" d="M64.87,48.82l-.38-.28c-.62.83-1.21,1.7-1.77,2.57l.39.25C63.66,50.5,64.25,49.64,64.87,48.82Z"/><path fill="#00162c" d="M73.55,40.11l-.28-.37c-.82.62-1.64,1.28-2.42,2l.31.35C71.93,41.38,72.74,40.73,73.55,40.11Z"/><path fill="#00162c" d="M55.93,77.85c.08,1,.19,2.08.33,3.1l.47-.07c-.15-1-.26-2-.33-3.07Z"/><path fill="#00162c" d="M93.21,31.44l.06.47c1-.15,2-.26,3.07-.34l0-.46C95.27,31.18,94.23,31.3,93.21,31.44Z"/><path fill="#00162c" d="M84.33,34.2l-.17-.44c-1,.37-1.94.77-2.87,1.2l.19.42C82.41,35,83.37,34.56,84.33,34.2Z"/><path fill="#00162c" d="M56.39,71.65l-.47,0c-.07,1-.1,2-.1,3.06v0l.47,0C56.29,73.67,56.32,72.65,56.39,71.65Z"/><path fill="#00162c" d="M57.25,65.55l-.45-.1c-.22,1-.4,2-.55,3.07l.46.06C56.86,67.56,57,66.54,57.25,65.55Z"/><path fill="#00162c" d="M61.54,54l-.41-.22c-.5.91-1,1.85-1.4,2.79l.43.19C60.58,55.84,61.05,54.91,61.54,54Z"/><path fill="#00162c" d="M59,59.63l-.44-.16c-.36,1-.69,2-1,3l.45.14C58.29,61.58,58.62,60.59,59,59.63Z"/><path fill="#00162c" d="M143.07,71.45c-.08-1-.19-2.07-.34-3.1l-.46.07c.14,1,.26,2,.33,3.07Z"/><path fill="#00162c" d="M137.44,95.39l.41.22c.5-.91,1-1.85,1.4-2.79l-.43-.19C138.4,93.56,137.93,94.49,137.44,95.39Z"/><path fill="#00162c" d="M136.21,51l-.4.25c.56.87,1.09,1.76,1.58,2.65l.41-.22C137.31,52.75,136.77,51.85,136.21,51Z"/><path fill="#00162c" d="M134.1,100.57l.38.28c.62-.83,1.22-1.69,1.78-2.56l-.4-.25C135.31,98.9,134.72,99.75,134.1,100.57Z"/><path fill="#00162c" d="M130.06,105.23l.33.33c.74-.73,1.45-1.5,2.13-2.28l-.36-.31C131.49,103.75,130.79,104.51,130.06,105.23Z"/><path fill="#00162c" d="M132.46,46l-.35.31c.67.77,1.32,1.58,1.94,2.4l.37-.28C133.8,47.6,133.14,46.78,132.46,46Z"/><path fill="#00162c" d="M141.4,62.27l-.45.13c.29,1,.55,2,.77,3l.45-.1C142,64.28,141.69,63.26,141.4,62.27Z"/><path fill="#00162c" d="M141.74,83.86l.46.1c.21-1,.4-2,.55-3.07l-.47-.07C142.14,81.84,142,82.86,141.74,83.86Z"/><path fill="#00162c" d="M142.72,74.68c0,1,0,2.06-.11,3.08l.47,0c.07-1,.1-2.07.1-3.11v-.11h-.46Z"/><path fill="#00162c" d="M139.21,56.44l-.43.19c.43.93.83,1.89,1.19,2.84l.44-.16C140,58.35,139.64,57.38,139.21,56.44Z"/><path fill="#00162c" d="M128,41.61l-.3.35c.77.67,1.53,1.38,2.26,2.1l.33-.33C129.6,43,128.83,42.28,128,41.61Z"/><path fill="#00162c" d="M140,89.77l.43.17c.37-1,.7-2,1-3l-.45-.13C140.69,87.83,140.36,88.82,140,89.77Z"/><path fill="#00162c" d="M99.42,31v.47h.08c1,0,2,0,3,.1l0-.46c-1-.07-2-.11-3-.11Z"/><path fill="#00162c" d="M108.71,116.91l.1.45c1-.22,2-.47,3-.77l-.13-.44C110.72,116.43,109.71,116.69,108.71,116.91Z"/><path fill="#00162c" d="M105.57,31.88c1,.15,2,.33,3,.54l.09-.46c-1-.21-2-.4-3.07-.54Z"/><path fill="#00162c" d="M125.41,109.27l.28.37c.82-.62,1.64-1.27,2.42-2l-.3-.36C127,108,126.22,108.66,125.41,109.27Z"/><path fill="#00162c" d="M111.73,32.73l-.13.44c1,.29,2,.62,2.92,1l.17-.44C113.71,33.34,112.72,33,111.73,32.73Z"/><path fill="#00162c" d="M96.45,117.79l0,.46c1,.07,2.06.11,3.09.11h0l0-.47C98.48,117.89,97.46,117.86,96.45,117.79Z"/><path fill="#00162c" d="M102.61,117.78l0,.47c1-.08,2.08-.19,3.1-.33l-.06-.47C104.66,117.6,103.63,117.71,102.61,117.78Z"/><path fill="#00162c" d="M120.23,112.61l.22.41c.91-.5,1.81-1,2.68-1.6l-.25-.39C122,111.58,121.13,112.11,120.23,112.61Z"/><path fill="#00162c" d="M114.63,115.17l.16.44c1-.36,1.94-.77,2.88-1.2l-.2-.42C116.54,114.41,115.59,114.81,114.63,115.17Z"/><path fill="#00162c" d="M123.05,37.88l-.25.39c.86.55,1.71,1.14,2.53,1.76l.28-.38C124.79,39,123.92,38.44,123.05,37.88Z"/><path fill="#00162c" d="M117.57,34.89l-.19.43c.93.42,1.86.89,2.76,1.38l.22-.41C119.45,35.79,118.51,35.32,117.57,34.89Z"/><path fill="#00162c" d="M94.8,60.36l-.14-.45a15.75,15.75,0,0,0-3,1.33l.23.41A14.75,14.75,0,0,1,94.8,60.36Z"/><path fill="#00162c" d="M89.12,86.23a15.35,15.35,0,0,0,2.63,1.91l.24-.4a15.5,15.5,0,0,1-2.55-1.85Z"/><path fill="#00162c" d="M84,74.71a15.71,15.71,0,0,0,.34,3.22l.46-.09a14.92,14.92,0,0,1-.33-3.13Z"/><path fill="#00162c" d="M85.32,81A15.46,15.46,0,0,0,87,83.83l.38-.28a14.5,14.5,0,0,1-1.58-2.72Z"/><path fill="#00162c" d="M94.72,89.46a15.65,15.65,0,0,0,3.18.67l0-.47A14.82,14.82,0,0,1,94.86,89Z"/><path fill="#00162c" d="M85.72,68.58l-.43-.19a15.24,15.24,0,0,0-1,3.09l.45.1A15,15,0,0,1,85.72,68.58Z"/><path fill="#00162c" d="M89.39,63.51l-.31-.35a16.1,16.1,0,0,0-2.17,2.42l.38.27A15.07,15.07,0,0,1,89.39,63.51Z"/><path fill="#00162c" d="M113.67,68.3l-.42.19a15.16,15.16,0,0,1,1,3l.46-.09A15.33,15.33,0,0,0,113.67,68.3Z"/><path fill="#00162c" d="M111.69,83.53l.38.27A15.46,15.46,0,0,0,113.7,81l-.43-.19A15.15,15.15,0,0,1,111.69,83.53Z"/><path fill="#00162c" d="M114.57,74.68a14.92,14.92,0,0,1-.33,3.13l.46.09a15.78,15.78,0,0,0,.33-3.22v-.07h-.46Z"/><path fill="#00162c" d="M109.85,63.1l-.31.34a15.15,15.15,0,0,1,2.12,2.34l.38-.28A15.56,15.56,0,0,0,109.85,63.1Z"/><path fill="#00162c" d="M97.83,59.23l0,.47a15.08,15.08,0,0,1,3.15,0l0-.47A16,16,0,0,0,97.83,59.23Z"/><path fill="#00162c" d="M101.09,89.66l0,.46a15.41,15.41,0,0,0,3.17-.67l-.14-.45A14.7,14.7,0,0,1,101.09,89.66Z"/><path fill="#00162c" d="M107,87.72l.24.41a15.88,15.88,0,0,0,2.62-1.92l-.31-.34A14.94,14.94,0,0,1,107,87.72Z"/><path fill="#00162c" d="M104.25,59.88l-.14.45A15.1,15.1,0,0,1,107,61.6l.23-.4A15.46,15.46,0,0,0,104.25,59.88Z"/><rect width="37.78" height="23.49" x="117.36" y="61.99" fill="#fff" rx="2.87"/><path fill="#0e0e27" d="M152.28,61.76h-32a3.1,3.1,0,0,0-3.1,3.1V82.62a3.1,3.1,0,0,0,3.1,3.1h32.05a3.1,3.1,0,0,0,3.1-3.1V64.86A3.1,3.1,0,0,0,152.28,61.76Zm2.63,20.86a2.63,2.63,0,0,1-2.63,2.63h-32a2.63,2.63,0,0,1-2.63-2.63V64.86a2.63,2.63,0,0,1,2.63-2.63h32.05a2.63,2.63,0,0,1,2.63,2.63Z"/><rect width="35.22" height="21.06" x="118.64" y="63.21" fill="#00162c" rx="1.81"/><path fill="#00162c" d="M152.06,63H120.45a2,2,0,0,0-2,2V82.46a2,2,0,0,0,2,2h31.61a2,2,0,0,0,2-2V65A2,2,0,0,0,152.06,63Zm1.57,19.48A1.57,1.57,0,0,1,152.06,84H120.45a1.57,1.57,0,0,1-1.57-1.57V65a1.57,1.57,0,0,1,1.57-1.57h31.61A1.57,1.57,0,0,1,153.63,65Z"/><path fill="#fff" d="M138.68,67a2.8,2.8,0,0,0-4.84,0l-5.53,9.57a2.8,2.8,0,0,0,2.41,4.19h11.06a2.79,2.79,0,0,0,2.42-4.19Zm3.9,11.43a.91.91,0,0,1-.8.46v0H130.73a.92.92,0,0,1-.8-1.38l5.53-9.57a.93.93,0,0,1,1.6,0l5.52,9.58A.9.9,0,0,1,142.58,78.44Z"/><path fill="#00162c" d="M90.59,36.55c-7.43,3.83,13.22,18.68,13.22,18.68a55,55,0,0,0,1.51-12.3C105.32,36.43,98,32.72,90.59,36.55Z"/><path fill="#00162c" d="M96.6,34.77a13.48,13.48,0,0,0-6.12,1.57,2.88,2.88,0,0,0-1.73,2.4c-.41,5.58,14.3,16.22,14.92,16.68l.28.19.09-.33a56.18,56.18,0,0,0,1.51-12.35C105.55,38.2,101.79,34.77,96.6,34.77Zm7.07,20.06c-2.07-1.52-14.82-11.14-14.45-16.06a2.4,2.4,0,0,1,1.47-2,13,13,0,0,1,5.91-1.52c4.92,0,8.49,3.23,8.49,7.69A55.83,55.83,0,0,1,103.67,54.83Z"/><path fill="#fff" d="M103.68,51.63c-.28-8.7-15.18-14-21.43-10.42s-5.73,16-5.73,16c-3.5-.13-5.83,2-5.55,5.52a8.68,8.68,0,0,0,4.39,6.75A129.44,129.44,0,0,1,73,90.89s6.88,7.47,17.29,5.93c6.66-1,2.55-5.93,2.55-5.93a69.24,69.24,0,0,1,.56-10.41c12.34,0,13.11-16.49,11.17-20.32C103,57.15,103.78,54.64,103.68,51.63Z"/><path fill="#00162c" d="M103.86,54.08c0-.79.08-1.6,0-2.45-.23-7.19-10-11.77-16.64-11.77A10.49,10.49,0,0,0,82.14,41c-5.89,3.35-5.9,14.14-5.86,16A5.58,5.58,0,0,0,72,58.63a5.3,5.3,0,0,0-1.26,4.13,9,9,0,0,0,4.38,6.86,129.89,129.89,0,0,1-2.4,21.22.26.26,0,0,0,.06.21,21.6,21.6,0,0,0,14.63,6.22,19.66,19.66,0,0,0,2.86-.21c2.11-.32,3.4-1.06,3.84-2.21.65-1.71-.8-3.68-1.1-4a66.7,66.7,0,0,1,.55-10.08,10.72,10.72,0,0,0,9.35-5.35c3.25-5.3,3-12.93,1.81-15.32A10.84,10.84,0,0,1,103.86,54.08Zm-1.35,21a10.14,10.14,0,0,1-9.16,5.13.24.24,0,0,0-.23.2,69.13,69.13,0,0,0-.57,10.46.31.31,0,0,0,.06.13s1.68,2,1.07,3.64c-.38,1-1.55,1.63-3.48,1.91a18.62,18.62,0,0,1-2.79.21,21.07,21.07,0,0,1-14.2-6A133.73,133.73,0,0,0,75.59,69.5a.25.25,0,0,0-.13-.22,8.5,8.5,0,0,1-4.26-6.56,4.89,4.89,0,0,1,1.14-3.78,5.25,5.25,0,0,1,4.17-1.49.2.2,0,0,0,.17-.07.22.22,0,0,0,.07-.17c0-.13-.43-12.35,5.62-15.79a9.92,9.92,0,0,1,4.9-1.1c6.44,0,16,4.41,16.17,11.32,0,.83,0,1.64,0,2.41a11.14,11.14,0,0,0,.92,6.21C105.48,62.57,105.68,70,102.51,75.12Z"/><path fill="#0e0e27" d="M92.77,52.27a8.71,8.71,0,0,0-6.51,2.15.24.24,0,0,0,0,.33.25.25,0,0,0,.18.08.22.22,0,0,0,.15-.06,8.37,8.37,0,0,1,6.14-2,.22.22,0,0,0,.26-.2A.24.24,0,0,0,92.77,52.27Z"/><path fill="#0e0e27" d="M102.46,55h0a10.86,10.86,0,0,1-5.17-1.5.23.23,0,0,0-.25.39,11.06,11.06,0,0,0,5.42,1.58.25.25,0,0,0,.26-.24A.23.23,0,0,0,102.46,55Z"/><path fill="#0e0e27" d="M98.06,63.88c-.65-.05-1.33.41-2,1.36a.23.23,0,0,0,.06.32.21.21,0,0,0,.13,0,.24.24,0,0,0,.19-.1c.57-.79,1.13-1.2,1.59-1.17a1.26,1.26,0,0,1,.88.66.24.24,0,0,0,.32.09.24.24,0,0,0,.1-.31A1.72,1.72,0,0,0,98.06,63.88Z"/><path fill="#0e0e27" d="M89.81,58H88.19A1,1,0,0,0,88,59.11,1.08,1.08,0,0,0,89.85,58Z"/><path fill="#0e0e27" d="M90,57.84a.26.26,0,0,0-.2-.1H88.19a.24.24,0,0,0-.16.07,1.17,1.17,0,0,0-.23,1.42,1.15,1.15,0,0,0,1,.55,1.41,1.41,0,0,0,.71-.2,1.25,1.25,0,0,0,.54-1.67Zm-.73,1.34a1,1,0,0,1-.47.13A.69.69,0,0,1,88.2,59a.71.71,0,0,1,.1-.78h1.38A.79.79,0,0,1,89.28,59.18Z"/><path fill="#0e0e27" d="M101.6,58H100a1,1,0,0,0-.19,1.14A1.09,1.09,0,0,0,101.65,58Z"/><path fill="#0e0e27" d="M101.8,57.84a.26.26,0,0,0-.2-.1H100a.24.24,0,0,0-.16.07,1.19,1.19,0,0,0-.23,1.42,1.15,1.15,0,0,0,1,.55,1.41,1.41,0,0,0,.71-.2,1.24,1.24,0,0,0,.53-1.67Zm-.73,1.34a1,1,0,0,1-.47.13A.7.7,0,0,1,100,59a.71.71,0,0,1,.1-.78h1.38A.79.79,0,0,1,101.07,59.18Z"/><path fill="#0e0e27" d="M94.27,69.52C92.16,71.11,89.47,68,89.44,68a.24.24,0,0,0-.33,0,.23.23,0,0,0,0,.33s1.87,2.16,3.85,2.16a2.63,2.63,0,0,0,1.61-.55.23.23,0,1,0-.28-.37Z"/><path fill="#0e0e27" d="M93.5,80.25c-.11,0-11.12-.41-15.29-8.34a.24.24,0,0,0-.32-.1.24.24,0,0,0-.09.32c4.29,8.17,15.57,8.58,15.69,8.59h0a.24.24,0,0,0,.24-.23A.23.23,0,0,0,93.5,80.25Z"/><path fill="#00162c" d="M74.48,65.31a2.46,2.46,0,0,1-1.18-1.64,3.49,3.49,0,0,1,1.13-3.78,1.53,1.53,0,0,1,1.88,0l.28-.37a2,2,0,0,0-2.42,0,4,4,0,0,0-1.32,4.3,2.91,2.91,0,0,0,1.41,1.92,2.78,2.78,0,0,0,1.29.3,3.44,3.44,0,0,0,1.07-.17l-.16-.44A2.75,2.75,0,0,1,74.48,65.31Z"/><path fill="#00162c" d="M74.34,62.12a2,2,0,0,1-.45-1.72l-.46,0A2.39,2.39,0,0,0,74,62.48a1.83,1.83,0,0,0,1.22.41,2.51,2.51,0,0,0,.44,0l-.1-.46A1.58,1.58,0,0,1,74.34,62.12Z"/><path fill="#00162c" d="M107.29,55.67H97.86a.31.31,0,0,0-.29.2,5.33,5.33,0,1,0,10,0A.3.3,0,0,0,107.29,55.67Zm-4.71,6.7a4.69,4.69,0,0,1-4.49-6.08h9a4.69,4.69,0,0,1-4.49,6.08Z"/><path fill="#00162c" d="M95,55.67H85.59a.33.33,0,0,0-.3.2,5.32,5.32,0,1,0,10.33,1.8,5.14,5.14,0,0,0-.32-1.8A.3.3,0,0,0,95,55.67Zm-4.71,6.7a4.69,4.69,0,0,1-4.49-6.08h9a4.69,4.69,0,0,1-4.49,6.08Z"/><path fill="#00162c" d="M83.66,33.88A9,9,0,0,0,77,37.94c-8.24,0-12.45,1.72-14.45,13.17C61,60.18,67.09,68.55,68.31,69.68a40.06,40.06,0,0,0,7,4.86c1.37-1.36.81-4.42.1-5.05-2-.59-3.7-2.82-4.32-4.83a14.06,14.06,0,0,1-.2-2.5c.07-3.24,3.23-6,6-4.79,1.57.68,2.84,1.76,2.84-1.08,0-2.44.4-8.74,5.84-8.74s8.88-4,7.14-8.5S88.1,33.52,83.66,33.88Z"/><path fill="#00162c" d="M85.18,33.58c-.48,0-1,0-1.54.06a9.13,9.13,0,0,0-6.77,4.06c-8.45,0-12.57,2-14.55,13.37-1.64,9.37,4.8,17.83,5.83,18.78a40.73,40.73,0,0,0,7,4.9l.15.08.13-.12a3.92,3.92,0,0,0,.9-2.82,4.06,4.06,0,0,0-.82-2.58l-.09,0c-2-.58-3.59-2.85-4.16-4.68a14.45,14.45,0,0,1-.19-2.43c.06-2.54,2.17-4.85,4.42-4.85a3.3,3.3,0,0,1,1.31.27l.64.3a3.78,3.78,0,0,0,1.46.5.85.85,0,0,0,.81-.52A3.65,3.65,0,0,0,80,56.29c0-3.18.73-8.5,5.61-8.5a8,8,0,0,0,6.82-3.13A6,6,0,0,0,92.93,39C91.48,35.19,89.16,33.58,85.18,33.58ZM92,44.39a7.67,7.67,0,0,1-6.43,2.93c-5.29,0-6.08,5.62-6.08,9a3.4,3.4,0,0,1-.19,1.36.41.41,0,0,1-.4.27,3.55,3.55,0,0,1-1.26-.46L77,57.15a3.86,3.86,0,0,0-1.49-.31c-2.54,0-4.82,2.48-4.88,5.31a14.2,14.2,0,0,0,.21,2.58c.6,2,2.31,4.31,4.42,5a3.84,3.84,0,0,1,.62,2.2,3.57,3.57,0,0,1-.64,2.35,38.65,38.65,0,0,1-6.75-4.74c-1-.93-7.29-9.19-5.69-18.36,1.94-11.11,6-13,14.22-13h.13l.07-.12a8.8,8.8,0,0,1,6.48-3.94c.54,0,1-.07,1.5-.07,3.8,0,5.92,1.48,7.32,5.1A5.52,5.52,0,0,1,92,44.39Z"/><path fill="#00162c" d="M96.81,86h-.5V83.22a2.77,2.77,0,0,0-2.77-2.77c-1.3,1.36-16.89,1.53-19.11-.1A3.26,3.26,0,0,0,71,83.22V86H69.28a22.53,22.53,0,0,0-22.43,20.5l-2,21.85h77.55l-3.33-23A22.52,22.52,0,0,0,96.81,86Z"/><path fill="#00162c" d="M96.81,85.74h-.26V83.22a3,3,0,0,0-3-3h-.1l-.07.07c-.54.57-4.5,1-9.2,1s-8.68-.45-9.6-1.12l-.09,0a2,2,0,0,0-.42,0,3.59,3.59,0,0,0-3.3,3.14v2.52H69.28a22.64,22.64,0,0,0-22.66,20.71l-2,22.1H122.7l-3.37-23.31A22.87,22.87,0,0,0,96.81,85.74ZM45.13,128.08l1.95-21.59A22.18,22.18,0,0,1,69.28,86.2h2v-3a3.06,3.06,0,0,1,3.11-2.65c1.29.87,5.9,1.18,9.83,1.18,3,0,8.37-.23,9.46-1.07a2.55,2.55,0,0,1,2.45,2.54v3h.73a22.42,22.42,0,0,1,22.06,19.1l3.29,22.78Z"/><path fill="#fff" d="M97.56,87.84s1,1.26,2,1.15c0,0,1.42,4,3.16,2.52s-1.7-6.68-1.7-6.68a16.45,16.45,0,0,0-.43-1.74,6.84,6.84,0,0,0-2.42-2.3c-1.44-.84-4-2.06-4-2.06s2.08.12,2.73-.54-.05-2.06-1.85-2.42-2.58-1.48-4.77-.87A50.42,50.42,0,0,0,85,77.08c-1.35.49-1.29,4.8-2.74,10.59s6.94,4.87,8.79,12.63c1,4.23-6.85,18.4-7.73,28h19.27s1-23.14,1-26.57c0-2.08,2.63-2.64-1.26-6.53C97.69,90.55,96.2,90.74,97.56,87.84Z"/><path fill="#0e0e27" d="M99.43,92.18c-2.05-1.82-2.52-2.23-1.81-3.91a2.75,2.75,0,0,0,1.8,1c.26.66,1.21,2.83,2.55,2.83a1.44,1.44,0,0,0,.91-.37c1.71-1.4-1.18-6.24-1.62-7a14.79,14.79,0,0,0-.44-1.74,6.92,6.92,0,0,0-2.51-2.41c-.91-.52-2.27-1.2-3.17-1.64a3.14,3.14,0,0,0,1.9-.59,1.12,1.12,0,0,0,.24-1.16,2.78,2.78,0,0,0-2.22-1.66A7.52,7.52,0,0,1,93.54,75a5.16,5.16,0,0,0-2.09-.53,4.85,4.85,0,0,0-1.26.18,22.27,22.27,0,0,0-3.63,1.46,15.54,15.54,0,0,1-1.64.73c-1,.35-1.25,2.08-1.73,5-.27,1.61-.61,3.62-1.15,5.8-.77,3.09,1.12,4.38,3.32,5.88s4.57,3.11,5.46,6.86c.49,2-1.17,6.51-3.09,11.71s-4.19,11.35-4.64,16.24a.18.18,0,0,0,.06.17.21.21,0,0,0,.17.08h19.27a.23.23,0,0,0,.23-.22c0-.23,1-23.19,1-26.58a3.27,3.27,0,0,1,.43-1.46c.55-1.16,1.12-2.37-1.75-5.24C101.26,93.79,100.25,92.9,99.43,92.18Zm4.43,7.91a3.75,3.75,0,0,0-.47,1.66c0,3.2-.92,23.94-1,26.33H83.58c.49-4.78,2.67-10.66,4.59-15.86s3.62-9.81,3.11-12c-.94-3.92-3.56-5.71-5.66-7.14s-3.82-2.6-3.13-5.37c.55-2.21.89-4.22,1.16-5.84.42-2.52.72-4.33,1.43-4.59.51-.18,1.08-.46,1.68-.74a21.13,21.13,0,0,1,3.55-1.44A4.44,4.44,0,0,1,91.45,75a4.54,4.54,0,0,1,1.9.5A7.51,7.51,0,0,0,95,76a2.31,2.31,0,0,1,1.87,1.35.69.69,0,0,1-.13.69,3.65,3.65,0,0,1-2.19.47h-.37a.25.25,0,0,0-.24.18.24.24,0,0,0,.13.27s2.61,1.23,4,2.06a6.73,6.73,0,0,1,2.33,2.19,15.64,15.64,0,0,1,.41,1.69.11.11,0,0,0,0,.07c.89,1.44,3,5.39,1.75,6.38a1,1,0,0,1-.62.26c-1,0-1.9-1.94-2.17-2.68a.22.22,0,0,0-.24-.15c-1,.09-1.81-1.05-1.81-1.06a.24.24,0,0,0-.21-.09.23.23,0,0,0-.19.13c-1.07,2.28-.41,2.86,1.77,4.79.81.71,1.83,1.6,3.07,2.85C104.83,98,104.38,99,103.86,100.09Z"/><path fill="#0e0e27" d="M94.42,78.55c-.89-.18-3-.76-3-.76l-.12,0-.09.08a9.38,9.38,0,0,1-3.51,2l-.21,0,0,.22a3.68,3.68,0,0,1-.27,2.53.23.23,0,0,0,.07.32.2.2,0,0,0,.13,0,.24.24,0,0,0,.19-.1A4,4,0,0,0,88,80.24a10.82,10.82,0,0,0,3.4-2c.46.13,2.16.58,3,.74a.23.23,0,0,0,.28-.18A.25.25,0,0,0,94.42,78.55Z"/><path fill="#0e0e27" d="M98,83c-1.16-.13-3,1.24-4,2.14a19.28,19.28,0,0,0-2.32,2.9.24.24,0,0,0,.07.32.22.22,0,0,0,.13,0,.24.24,0,0,0,.2-.11,17.88,17.88,0,0,1,2.25-2.81c1.08-1,2.79-2.11,3.59-2a11,11,0,0,1,3,1.52.24.24,0,0,0,.33-.06.24.24,0,0,0-.06-.32A11.45,11.45,0,0,0,98,83Z"/><path fill="#0e0e27" d="M92.9,78.24c-3.42,1.54-6.54,5.6-6.67,5.77a.24.24,0,0,0,0,.33.24.24,0,0,0,.14,0,.25.25,0,0,0,.19-.09s3.18-4.14,6.49-5.63a.24.24,0,0,0-.19-.43Z"/><path fill="#0e0e27" d="M94.18,81c-2.46.76-5.65,4-5.78,4.16a.24.24,0,0,0,0,.33.28.28,0,0,0,.17.07.21.21,0,0,0,.16-.08s3.24-3.3,5.59-4,6.17,2.89,6.21,2.93a.23.23,0,1,0,.32-.34C100.68,83.89,96.72,80.23,94.18,81Z"/><rect width="41.55" height="41.55" x="109" y="81.77" fill="#fff" rx="4.31"/><path fill="#0e0e27" d="M146.24,81.53H113.32a4.55,4.55,0,0,0-4.55,4.55V119a4.55,4.55,0,0,0,4.55,4.54h32.92a4.55,4.55,0,0,0,4.55-4.54V86.08A4.55,4.55,0,0,0,146.24,81.53ZM150.32,119a4.08,4.08,0,0,1-4.08,4.07H113.32a4.08,4.08,0,0,1-4.08-4.07V86.08A4.08,4.08,0,0,1,113.32,82h32.92a4.08,4.08,0,0,1,4.08,4.08Z"/><rect width="36.73" height="36.73" x="111.42" y="84.18" fill="url(#a)" rx="2.44"/><path d="M145.71,84H113.85a2.68,2.68,0,0,0-2.67,2.67v31.85a2.68,2.68,0,0,0,2.67,2.67h31.86a2.68,2.68,0,0,0,2.67-2.67V86.62A2.68,2.68,0,0,0,145.71,84Zm2.2,34.52a2.21,2.21,0,0,1-2.2,2.2H113.85a2.21,2.21,0,0,1-2.2-2.2V86.62a2.21,2.21,0,0,1,2.2-2.21h31.86a2.21,2.21,0,0,1,2.2,2.21Z"/><path fill="url(#b)" d="M132.79,94.94a8.18,8.18,0,1,0,4.59,10.61A8.18,8.18,0,0,0,132.79,94.94Z"/><path fill="#fff" d="M131,24.25a5.13,5.13,0,0,0-8.89,0l-9.91,17.15a5.13,5.13,0,0,0,4.44,7.7h19.8a5.13,5.13,0,0,0,4.45-7.69Z"/><path fill="#0e0e27" d="M131.18,24.13a5.37,5.37,0,0,0-9.29,0L112,41.27a5.36,5.36,0,0,0,4.64,8h19.81a5.36,5.36,0,0,0,4.64-8Zm9.49,22.29a4.86,4.86,0,0,1-4.24,2.45v0l-19.8,0a4.83,4.83,0,0,1-4.24-2.45,4.88,4.88,0,0,1,0-4.9l9.92-17.14a4.9,4.9,0,0,1,8.48,0l9.89,17.15A4.88,4.88,0,0,1,140.67,46.42Z"/><path fill="#3700ff" d="M129.42,24.92a3.33,3.33,0,0,0-5.76,0l-10,17.26a3.34,3.34,0,0,0,2.88,5h19.94a3.33,3.33,0,0,0,2.89-5Z"/><path fill="#00162c" d="M129.62,24.8a3.55,3.55,0,0,0-6.16,0l-10,17.26a3.56,3.56,0,0,0,3.08,5.34h19.94a3.55,3.55,0,0,0,3.09-5.33Zm9.55,20.6A3.06,3.06,0,0,1,136.49,47v0l-19.94,0a3.1,3.1,0,0,1-2.67-4.64l10-17.26a3.1,3.1,0,0,1,5.36,0l9.95,17.27A3.05,3.05,0,0,1,139.17,45.4Z"/><path fill="#fff" d="M126.83,32.39A5.14,5.14,0,1,0,132,37.52,5.14,5.14,0,0,0,126.83,32.39Zm0,8.4a3.27,3.27,0,1,1,3.27-3.27A3.27,3.27,0,0,1,126.83,40.79Z"/></svg>