<svg xmlns="http://www.w3.org/2000/svg" viewBox="0 0 200 150"><g data-name="Layer 1"><circle cx="99.96" cy="74.84" r="54.97" fill="#00162c" transform="rotate(-45 99.958 74.836)"/><path fill="#00162c" d="M100,19.63a55.21,55.21,0,1,0,55.2,55.21A55.28,55.28,0,0,0,100,19.63Zm0,109.94a54.74,54.74,0,1,1,54.73-54.73A54.8,54.8,0,0,1,100,129.57Z"/><path fill="#fff" d="M62.15,34.94a55,55,0,1,0,91.48,28Z" opacity=".5"/><polygon fill="#3700ff" points="112.29 103.49 116.73 124.47 125.69 124.47 121.24 103.49 112.29 103.49"/><path fill="#00162c" d="M121.24,103.26h-8.95a.27.27,0,0,0-.19.08.24.24,0,0,0,0,.2l4.44,21a.24.24,0,0,0,.23.18h9a.23.23,0,0,0,.18-.09.25.25,0,0,0,0-.19l-4.45-21A.24.24,0,0,0,121.24,103.26Zm-4.32,21-4.35-20.5h8.48l4.35,20.5Z"/><path fill="#00162c" d="M153.89,60.88a600,600,0,0,1-62.33,0,1.4,1.4,0,0,0-1.36,1.49V107a1.4,1.4,0,0,0,1.36,1.49,600,600,0,0,1,62.33,0,1.39,1.39,0,0,0,1.35-1.49V62.37A1.39,1.39,0,0,0,153.89,60.88Z"/><path fill="#00162c" d="M154,60.64h-.08c-10.33.54-20.81.82-31.15.82s-20.82-.28-31.15-.82H91.5A1.65,1.65,0,0,0,90,62.37V107a1.87,1.87,0,0,0,.44,1.21,1.44,1.44,0,0,0,1.09.52h.07c10.33-.54,20.81-.82,31.15-.82s20.82.28,31.15.82H154a1.65,1.65,0,0,0,1.53-1.73V62.37A1.65,1.65,0,0,0,154,60.64ZM155,107a1.18,1.18,0,0,1-1.06,1.26h0c-10.34-.54-20.83-.81-31.18-.81s-20.83.27-31.22.81a1,1,0,0,1-.74-.36,1.36,1.36,0,0,1-.32-.9V62.37a1.18,1.18,0,0,1,1.11-1.26h0c10.34.54,20.82.81,31.17.81s20.84-.27,31.23-.81A1.18,1.18,0,0,1,155,62.37Z"/><path fill="#3700ff" d="M151.9,60.88a600,600,0,0,1-62.33,0,1.39,1.39,0,0,0-1.35,1.49V107a1.39,1.39,0,0,0,1.35,1.49,600,600,0,0,1,62.33,0,1.4,1.4,0,0,0,1.36-1.49V62.37A1.4,1.4,0,0,0,151.9,60.88Z"/><path fill="#00162c" d="M152,60.64h-.07c-10.33.54-20.81.82-31.15.82s-20.82-.28-31.15-.82h-.07A1.64,1.64,0,0,0,88,62.37V107a1.86,1.86,0,0,0,.43,1.21,1.46,1.46,0,0,0,1.1.52h.07c10.33-.54,20.81-.82,31.15-.82s20.82.28,31.15.82H152a1.64,1.64,0,0,0,1.53-1.73V62.37A1.64,1.64,0,0,0,152,60.64ZM153,107a1.17,1.17,0,0,1-1.06,1.26h0c-10.34-.54-20.83-.81-31.18-.81s-20.84.27-31.22.81a1,1,0,0,1-.74-.36,1.37,1.37,0,0,1-.33-.9V62.37a1.18,1.18,0,0,1,1.11-1.26h0c10.34.54,20.83.81,31.18.81s20.84-.27,31.22-.81A1.17,1.17,0,0,1,153,62.37Z"/><path fill="#00162c" d="M150.69,62.74c-9.95.51-20,.77-29.95.77s-20-.26-29.95-.77a.72.72,0,0,0-.69.77v41.1a.71.71,0,0,0,.69.77c9.94-.51,20-.77,29.95-.77s20,.26,29.94.77h0a.71.71,0,0,0,.69-.77V63.51A.72.72,0,0,0,150.69,62.74Z"/><path fill="#00162c" d="M150.68,62.51h0c-10,.51-20,.77-29.94.77s-20-.26-30-.77a1,1,0,0,0-.89,1v41.1a1.07,1.07,0,0,0,.25.7.87.87,0,0,0,.68.3h0c9.94-.51,20-.77,29.94-.77s20,.26,29.94.78h0a1,1,0,0,0,.9-1V63.51A1,1,0,0,0,150.68,62.51Zm.47,42.1a.5.5,0,0,1-.44.54h0c-9.93-.51-20-.77-29.95-.77s-20,.26-30,.77a.36.36,0,0,1-.29-.15.58.58,0,0,1-.14-.39V63.51a.5.5,0,0,1,.45-.53h0c10,.51,20,.77,30,.77s20-.26,30-.77a.5.5,0,0,1,.43.53Z"/><rect width="15.88" height=".62" x="130.81" y="74.67" fill="#3700ff" transform="rotate(-.09 139.996 76.504)"/><rect width="11.61" height=".62" x="117.41" y="80.55" fill="#3700ff" transform="rotate(-.09 127.259 82.86)"/><rect width="11.8" height=".62" x="128.22" y="93.68" fill="#3700ff" transform="rotate(-.09 139.981 95.603)"/><rect width="9.58" height=".62" x="137.11" y="83.86" fill="#bbb4d0" transform="rotate(-.09 146.353 89.242)"/><rect width="5.54" height=".62" x="136.88" y="87.17" fill="#fff" transform="rotate(-.09 139.986 89.237)"/><rect width="22.42" height=".62" x="103" y="89.66" fill="#bbb4d0" transform="rotate(-.18 117.63 92.495)"/><rect width="5.79" height=".62" x="140.89" y="89.61" fill="#3700ff" transform="rotate(-.08 150.336 93.21)"/><rect width="10.2" height=".62" x="136.48" y="77.58" fill="#fff" transform="rotate(-.17 144.805 81.103)"/><rect width="15.6" height=".62" x="131.08" y="80.53" fill="#fff" transform="rotate(-.09 139.991 82.87)"/><rect width="17.31" height=".62" x="103.24" y="83.9" fill="#fff" transform="rotate(-.09 114.522 89.217)"/><rect width="8.47" height=".62" x="124.41" y="83.88" fill="#fff" transform="rotate(-.08 136.017 86.039)"/><rect width="18.36" height=".62" x="103.21" y="77.55" fill="#fff" transform="rotate(-.08 114.537 78.862)"/><rect width="4.05" height=".62" x="130.19" y="87.08" fill="#fff" transform="rotate(-.09 133.62 89.232)"/><rect width="3.26" height=".62" x="143.42" y="93.57" fill="#fff" transform="rotate(-.17 148.15 97.96)"/><rect width="9.57" height=".62" x="125.18" y="77.6" fill="#fff" transform="rotate(-.17 134.693 81.088)"/><rect width="21.69" height=".62" x="103.83" y="93.73" fill="#3700ff" transform="rotate(-.09 114.517 95.583)"/><polygon fill="#3700ff" points="140.39 101.24 140.39 101.87 146.69 101.85 146.68 101.23 140.39 101.24"/><rect width="12.15" height=".62" x="110.6" y="101.1" fill="#bbb4d0" transform="rotate(-.09 120.878 101.954)"/><rect width="6.32" height=".62" x="140.36" y="95.89" fill="#fff" transform="rotate(-.09 146.348 95.608)"/><rect width="16.98" height=".62" x="124.72" y="98.51" fill="#bbb4d0" transform="rotate(-.09 133.61 101.964)"/><rect width="13.1" height=".62" x="109.94" y="96.07" fill="#fff" transform="rotate(-.08 121.684 100.353)"/><rect width="25.68" height=".62" x="96.9" y="98.44" fill="#fff" transform="rotate(-.09 114.512 101.95)"/><rect width="9.13" height=".62" x="96.92" y="101.12" fill="#fff" transform="rotate(-.17 104.325 104.635)"/><rect width="4.37" height=".62" x="133.15" y="95.82" fill="#fff" transform="rotate(-.09 139.981 95.603)"/><rect width="10.32" height=".62" x="96.89" y="96.09" fill="#fff" transform="rotate(-.17 104.335 97.895)"/><polygon fill="#04fa98" points="103.26 74.78 103.26 75.4 114.37 75.39 114.37 74.76 103.26 74.78"/><rect width="11.11" height=".62" x="103.29" y="80.56" fill="#04fa98" transform="rotate(-.09 108.16 82.846)"/><rect width="11.11" height=".62" x="103.33" y="86.36" fill="#04fa98" transform="rotate(-.09 114.522 89.217)"/><rect width="3.87" height=".62" x="103.33" y="87.52" fill="#04fa98" transform="rotate(-.09 108.155 89.212)"/><rect width="9.58" height=".62" x="137.11" y="65.74" fill="#bbb4d0" transform="rotate(-.09 146.368 70.143)"/><rect width="5.54" height=".62" x="136.88" y="69.05" fill="#fff" transform="rotate(-.09 140.001 70.138)"/><rect width="22.42" height=".62" x="103" y="71.54" fill="#bbb4d0" transform="rotate(-.18 117.66 73.396)"/><rect width="5.79" height=".62" x="140.89" y="71.5" fill="#3700ff" transform="rotate(-.08 150.351 71.725)"/><rect width="17.31" height=".62" x="103.24" y="65.78" fill="#fff" transform="rotate(-.09 114.537 70.118)"/><rect width="8.47" height=".62" x="124.41" y="65.76" fill="#fff" transform="rotate(-.08 136.027 71.715)"/><rect width="4.05" height=".62" x="130.19" y="68.97" fill="#fff" transform="rotate(-.09 133.635 70.133)"/><rect width="11.11" height=".62" x="103.33" y="68.24" fill="#04fa98" transform="rotate(-.09 108.17 70.113)"/><rect width="3.87" height=".62" x="103.33" y="69.4" fill="#04fa98" transform="rotate(-.09 108.17 70.113)"/><path fill="#fff" d="M100.63,59.57c.57-1.62-.41-7.68-1.84-9.11S87.34,47.09,81.24,50s-4.76,12.86-4.76,12.86,1.33,4.29.47,7a13.89,13.89,0,0,1-2.85,4.86L87,80.54l1.87-3.49s5.15,2.27,7.15.33a18.61,18.61,0,0,0,5.28-12.09C101.34,61.56,100.06,61.19,100.63,59.57Z"/><path fill="#00162c" d="M100.85,59.64c.58-1.64-.33-7.77-1.89-9.34-1-1-5.25-2-9.84-2a19.1,19.1,0,0,0-8,1.49c-6.18,2.9-5,12.69-4.89,13.14,0,0,1.31,4.25.48,6.91a13.78,13.78,0,0,1-2.8,4.77.21.21,0,0,0-.06.2.21.21,0,0,0,.13.17l13,5.82a.16.16,0,0,0,.09,0,.23.23,0,0,0,.21-.13L89,77.35a13.8,13.8,0,0,0,4.62,1.05h0a3.61,3.61,0,0,0,2.59-.85,18.8,18.8,0,0,0,5.34-12.26,10.91,10.91,0,0,0-.59-3.78A2.49,2.49,0,0,1,100.85,59.64ZM95.9,77.21a3.13,3.13,0,0,1-2.26.72h0A13.88,13.88,0,0,1,89,76.84a.23.23,0,0,0-.3.1l-1.77,3.3-12.46-5.6a14.14,14.14,0,0,0,2.7-4.71c.87-2.8-.42-7-.47-7.15s-1.24-9.86,4.63-12.62a18.79,18.79,0,0,1,7.78-1.45c4.63,0,8.73,1.14,9.51,1.92,1.4,1.4,2.3,7.38,1.78,8.86a2.91,2.91,0,0,0,.12,2.16,10.53,10.53,0,0,1,.58,3.64A18.28,18.28,0,0,1,95.9,77.21Z"/><path fill="#00162c" d="M100.29,46.71c-2.76-1.8-8.29-3.33-13.71-3.14s-9.38,3-10.52,6.09.34,14.84.43,17.79,2.37,2.47,4.33,3.1,4.36-1.8,6.91-4.06a3.35,3.35,0,1,1,4.16-5.08c0-1.38-.09-4.63,1.13-5.34a19.18,19.18,0,0,1,5.46-1.93l-4.3,3s8-1.12,9.45-3.22S103.06,48.52,100.29,46.71Z"/><path fill="#00162c" d="M100.42,46.52c-2.88-1.88-8.19-3.2-12.91-3.2l-.94,0c-5.92.2-9.66,3.28-10.73,6.24C75,52,75.58,59.12,76,63.84c.13,1.55.24,2.88.27,3.62.07,2.45,1.62,2.73,3.11,3a11,11,0,0,1,1.38.31,2.36,2.36,0,0,0,.75.12h0c1.69,0,3.53-1.66,5.47-3.41l.91-.82.25-.22-.29-.16A3.12,3.12,0,0,1,86.27,63a3.08,3.08,0,0,1,2.43-2.46,3.12,3.12,0,0,1,3,1.07l.4.48,0-.63v-.5c0-1.42,0-4.07,1-4.64a17.73,17.73,0,0,1,4.25-1.65l-4.13,2.92.95-.14c.33,0,8.14-1.16,9.61-3.31a3.27,3.27,0,0,0,.43-2.52A8.69,8.69,0,0,0,100.42,46.52Zm3,7.3c-1.06,1.56-6.12,2.58-8.29,3l4.33-3.05-1,.18a19,19,0,0,0-5.54,2c-1.19.69-1.22,3.34-1.23,5a3.58,3.58,0,1,0-4.33,5.68l-.68.61c-1.87,1.69-3.65,3.29-5.16,3.29a2.1,2.1,0,0,1-.61-.09A9.5,9.5,0,0,0,79.46,70c-1.49-.27-2.67-.49-2.74-2.55,0-.76-.13-2-.27-3.65-.4-4.68-1-11.76-.17-14.06,1-2.81,4.6-5.74,10.31-5.94h.92c5.42,0,10.36,1.62,12.65,3.12a8.24,8.24,0,0,1,3.64,4.75A2.76,2.76,0,0,1,103.43,53.82Z"/><path fill="#04fa98" d="M71.24,76.62a112.36,112.36,0,0,0-8.76,11c-6.37,9.13-8.2,26.4-8.2,42.33H97.4c1.14-8.38-2.48-18.51-3.08-28.49C93.42,86.35,83.74,78.1,71.24,76.62Z"/><path fill="#0e0e27" d="M94.56,101.48C93.72,87.39,85,78,71.26,76.39a.23.23,0,0,0-.2.08,109.61,109.61,0,0,0-8.77,11C55.48,97.28,54.05,116,54.05,130a.24.24,0,0,0,.23.24H97.4a.23.23,0,0,0,.23-.21c.69-5-.32-10.63-1.39-16.56A102.28,102.28,0,0,1,94.56,101.48Zm2.63,28.27H54.52c0-13.89,1.45-32.35,8.15-42a111.18,111.18,0,0,1,8.66-10.91c13.43,1.64,21.94,10.84,22.76,24.63a102.88,102.88,0,0,0,1.69,12C96.82,119.34,97.82,124.83,97.19,129.75Z"/><path fill="#04fa98" d="M78.5,73a8.23,8.23,0,0,0-4.27-.74L71,76.62s7.41,1.52,11.19,3.61a54.87,54.87,0,0,1,7.37,5.08s-1.17-4.84-1.83-5.9S81.29,74.07,78.5,73Z"/><path fill="#0e0e27" d="M78.58,72.78a10.6,10.6,0,0,0-3.71-.8,2.67,2.67,0,0,0-.69.06.29.29,0,0,0-.14.08l-3.21,4.36a.22.22,0,0,0,0,.22.23.23,0,0,0,.17.15c.07,0,7.42,1.53,11.13,3.58a56.52,56.52,0,0,1,7.34,5.06.2.2,0,0,0,.14.06.2.2,0,0,0,.13,0,.24.24,0,0,0,.1-.25c0-.2-1.19-4.89-1.86-6S81.37,73.85,78.58,72.78ZM82.32,80C79,78.2,73,76.8,71.42,76.47l2.94-4a2.89,2.89,0,0,1,.51,0,10,10,0,0,1,3.54.77c2.82,1.08,8.57,5.38,9.14,6.31a31.65,31.65,0,0,1,1.64,5.17A54.82,54.82,0,0,0,82.32,80Z"/><path fill="#fff" d="M130,123.5c-4.75,0-8.6,2.59-8.6,5.79a3.75,3.75,0,0,0,.1.82h17a3.75,3.75,0,0,0,.1-.82C138.56,126.09,134.71,123.5,130,123.5Z"/><path fill="#00162c" d="M130,123.27c-4.87,0-8.83,2.7-8.83,6a4.15,4.15,0,0,0,.1.87.25.25,0,0,0,.23.18h17a.24.24,0,0,0,.23-.18,4.08,4.08,0,0,0,.1-.87C138.79,126,134.83,123.27,130,123.27Zm8.31,6.6H121.65a3,3,0,0,1-.05-.58c0-3.07,3.75-5.56,8.36-5.56s8.36,2.49,8.36,5.56A3,3,0,0,1,138.27,129.87Z"/><path fill="#fff" d="M127.11,117.72c-1.84.55-6,4.23-7,4.6s-14.85-3.52-14.85-3.52l-3.7,11.09s28.45.61,29.67-.1c1.66-1,.81-2,.81-2,1.2-.79-.57-2.19-.57-2.19,2-1.36-1.15-3.19-1.15-3.19a10.55,10.55,0,0,1,2.2,1.52c1.44,1.57,3.43,1.61,3.71,1.24C137.06,124.14,128.94,117.17,127.11,117.72Z"/><path fill="#00162c" d="M127.34,117.46a1,1,0,0,0-.3,0,20.78,20.78,0,0,0-4.62,3A16.41,16.41,0,0,1,120,122.1h-.13c-2,0-14.46-3.49-14.58-3.53a.24.24,0,0,0-.29.15l-3.7,11.09a.24.24,0,0,0,0,.2.26.26,0,0,0,.19.1c.11,0,11.44.25,20,.25,9.14,0,9.61-.28,9.79-.38a2,2,0,0,0,1.12-1.32,1.28,1.28,0,0,0-.12-.8,1,1,0,0,0,.34-.69,2.32,2.32,0,0,0-.85-1.54,1.36,1.36,0,0,0,.51-1.08,1.28,1.28,0,0,0-.16-.6l.16.15a4.47,4.47,0,0,0,3.18,1.51,1.18,1.18,0,0,0,.89-.28c.23-.3,0-.72-.05-.86C135.45,122.58,129.47,117.46,127.34,117.46Zm8.72,7.6a.93.93,0,0,1-.52.1,4.05,4.05,0,0,1-2.83-1.36,11,11,0,0,0-2.28-1.57.23.23,0,0,0-.31.09.24.24,0,0,0,.09.32c.46.27,1.66,1.15,1.69,1.94a1,1,0,0,1-.55.86.24.24,0,0,0,0,.37c.26.21.93.84.9,1.35a.56.56,0,0,1-.31.46.27.27,0,0,0-.1.16.26.26,0,0,0,.05.19.84.84,0,0,1,.15.62,1.61,1.61,0,0,1-.89,1c-.18.1-1.45.32-9.56.32-7.76,0-17.78-.2-19.68-.24l3.53-10.57c1.72.48,12.58,3.48,14.49,3.48a1.07,1.07,0,0,0,.29,0,16.07,16.07,0,0,0,2.5-1.71,21.44,21.44,0,0,1,4.48-2.89l.16,0c1.77,0,7.68,4.85,8.62,6.76C136.09,124.93,136.07,125,136.06,125.06Z"/><path fill="#00162c" d="M128.15,121l.08-.44a.24.24,0,0,0-.19-.27.23.23,0,0,0-.27.19l-.12.63a.23.23,0,0,0,.15.26,10.72,10.72,0,0,1,2.64,1.38.22.22,0,0,0,.15.06.25.25,0,0,0,.18-.08.25.25,0,0,0,0-.33A10,10,0,0,0,128.15,121Z"/><path fill="#00162c" d="M127.56,124.26l0,.47c1.26-.11,3.8,1.11,3.82,1.12l.2-.42C131.52,125.38,129,124.16,127.56,124.26Z"/><path fill="#00162c" d="M127.89,127.16l0,.46a21,21,0,0,1,4.1.45l.09-.46A22.25,22.25,0,0,0,127.89,127.16Z"/><path fill="#00162c" d="M87.63,64.16a1.69,1.69,0,0,1,.43-2A1.88,1.88,0,0,1,90.23,62l.23-.41a2.36,2.36,0,0,0-2.71.29,2.16,2.16,0,0,0-.55,2.51,2.65,2.65,0,0,0,2.63,1.54,4.29,4.29,0,0,0,.78-.07l-.1-.45S88.33,65.83,87.63,64.16Z"/><path fill="#00162c" d="M88.67,63.06a1.29,1.29,0,0,1-.28-1l-.47,0a1.7,1.7,0,0,0,.43,1.41,1.81,1.81,0,0,0,1.24.45h.13l0-.47A1.41,1.41,0,0,1,88.67,63.06Z"/><path fill="#04fa98" d="M95,115.15s-3.84-27.52-8.41-27.52L77.78,92.5c-5,4.28-5,14.33-5,14.33S78.25,125.77,85.3,130h30.45a36.94,36.94,0,0,0,.45-10.3C115.79,115.29,95,115.15,95,115.15Z"/><path fill="#0e0e27" d="M95.16,114.92c-.51-3.64-4.06-27.52-8.61-27.52a.23.23,0,0,0,0,.46c3.58,0,7.12,19.72,8.18,27.32a.24.24,0,0,0,.23.2c5.73,0,20.68.89,21,4.33a37.86,37.86,0,0,1-.41,10H85.36c-6.73-4.1-12.09-22.06-12.35-23,0-.63.23-10.08,4.93-14.12a.24.24,0,0,0-.31-.36c-5,4.3-5.09,14.1-5.09,14.51a.15.15,0,0,0,0,.07c.22.78,5.58,19.08,12.63,23.28a.16.16,0,0,0,.12,0h30.45A.24.24,0,0,0,116,130a38,38,0,0,0,.45-10.37C116,115.29,97.45,114.94,95.16,114.92Z"/><path d="M98.47,122.48c-3.45-.78-7.26-2-9.83-4.57-2.8-2.79-3.52-6.77-3.13-10.56.35-3.41.78-5.6-.3-9.17s-2.72-7-3.68-10.71c-1.25-4.75,2.43-7.92,6.2-8.22l1.18-2.2S92.67,78.7,95,78c-12.22-2.67,1.07-14.15,1.07-17.62,0-4.13.65-9.11,6-9.11a6.71,6.71,0,0,1,1.9.26,8.59,8.59,0,0,0-3.7-4.79c-2.76-1.8-8.29-3.33-13.71-3.14s-9.38,3-10.52,6.09.34,14.84.43,17.79a2.68,2.68,0,0,0,.61,1.84,4.74,4.74,0,0,1-.15.57,11,11,0,0,1-1.09,2.43,5.18,5.18,0,0,0-1.63,0L71,76.62l.19,0a111.2,111.2,0,0,0-8.73,11c-6.37,9.13-8.2,26.4-8.2,42.33h52.29c5.33.09,13.74.2,19.24.13h4.56a26.19,26.19,0,0,0-9.22-4.64C113.78,123.5,105.93,124.18,98.47,122.48Z" style="mix-blend-mode:multiply" fill="#5b7895"/><path fill="#fff" d="M70.41,72.71c0-.9,3.22-1,3.22-3.57,0-2.93-1.56-11-3.38-14.6s-23.34-4-23.34.05c0,10.9,17,75.33,17,75.33H87c-2-8-13.49-37.2-13.49-53.33C73.5,74.37,70.41,73.7,70.41,72.71Z"/><path fill="#00162c" d="M84.24,120.39c-4.18-12.64-10.5-31.74-10.5-43.8,0-1.45-1.22-2.3-2.1-2.91-.51-.36-1-.7-1-1s.45-.42.88-.64c.94-.47,2.35-1.18,2.35-2.93,0-3-1.6-11.09-3.41-14.71-1-2-7.46-3-13-3-5.21,0-10.78.82-10.78,3.12,0,10.81,16.83,74.74,17,75.39a.23.23,0,0,0,.22.17H87a.25.25,0,0,0,.19-.09.24.24,0,0,0,0-.2C86.7,127.85,85.61,124.56,84.24,120.39Zm-20.16,9.29c-1-3.73-16.93-64.62-16.93-75.09,0-1.56,4.24-2.66,10.31-2.66,6.4,0,11.81,1.17,12.58,2.71,1.79,3.56,3.36,11.56,3.36,14.5,0,1.46-1.16,2-2.09,2.52-.61.3-1.13.57-1.13,1s.55.9,1.19,1.35c.89.62,1.9,1.32,1.9,2.53,0,12.13,6.33,31.28,10.52,44,1.31,4,2.36,7.13,2.9,9.14Z"/><path fill="#00162c" d="M66.82,55c-1.46-1.61-19.57-2.49-20.12,0s-1.94,6.88-1.94,20.39c0,25.77,5.05,48.36,8.39,54.56h31c-1.81-6.56-15.74-41.37-16.85-53.73C66.12,62.68,68.27,56.59,66.82,55Z"/><path fill="#00162c" d="M80.4,118.26c-4.8-13.28-12-33.34-12.83-42.09a96.18,96.18,0,0,1-.13-15.71c.19-3.11.29-4.82-.45-5.64-.91-1-7-1.64-12-1.64-3,0-8.13.23-8.47,1.74,0,.25-.12.52-.19.81-.61,2.61-1.76,7.45-1.76,19.63,0,25.49,4.89,48.13,8.42,54.67l.07.12H84.5l-.08-.3C83.89,128,82.35,123.67,80.4,118.26ZM53.29,129.68c-3.42-6.5-8.3-29.4-8.3-54.32,0-12.13,1.14-16.94,1.75-19.52.07-.29.13-.56.19-.82.14-.63,2.32-1.37,8-1.37,5.42,0,11,.71,11.7,1.48s.51,2.42.33,5.3a97.32,97.32,0,0,0,.14,15.78c.79,8.81,8,28.91,12.85,42.21,1.85,5.13,3.33,9.25,3.92,11.26Z"/></g></svg>