<svg xmlns="http://www.w3.org/2000/svg" viewBox="0 0 200 150"><defs><linearGradient id="b" x1="110.42" x2="110.42" y1="25.1" y2="52.07" gradientUnits="userSpaceOnUse"><stop offset="0" stop-color="#8eff99"/><stop offset=".11" stop-color="#8af59f"/><stop offset=".31" stop-color="#7edaaf"/><stop offset=".55" stop-color="#6cafc8"/><stop offset=".84" stop-color="#5274eb"/><stop offset=".99" stop-color="#4452ff"/></linearGradient><linearGradient id="c" x1="68.04" x2="68.04" y1="50.7" y2="64.2" gradientUnits="userSpaceOnUse"><stop offset="0" stop-color="#8eff99"/><stop offset=".04" stop-color="#8af59f"/><stop offset=".28" stop-color="#71bcc1"/><stop offset=".51" stop-color="#5e8edc"/><stop offset=".71" stop-color="#506def"/><stop offset=".88" stop-color="#4759fb"/><stop offset=".99" stop-color="#4452ff"/></linearGradient><linearGradient id="d" x1="69.93" x2="73.75" y1="52.93" y2="71.6" gradientUnits="userSpaceOnUse"><stop offset="0" stop-color="#8eff99"/><stop offset=".12" stop-color="#88f2a1"/><stop offset=".35" stop-color="#79cfb6"/><stop offset=".66" stop-color="#6196d7"/><stop offset=".99" stop-color="#4452ff"/></linearGradient><radialGradient id="a" cx="95.44" cy="73.41" r="4.42" gradientTransform="rotate(8.59 95.498 73.437)" gradientUnits="userSpaceOnUse"><stop offset="0" stop-color="#8eff99"/><stop offset=".13" stop-color="#8cfa9c"/><stop offset=".28" stop-color="#86eca4"/><stop offset=".45" stop-color="#7cd4b2"/><stop offset=".62" stop-color="#6db3c6"/><stop offset=".8" stop-color="#5b88df"/><stop offset=".99" stop-color="#4554fe"/><stop offset=".99" stop-color="#4452ff"/></radialGradient></defs><g data-name="Layer 1"><path fill="#00162c" d="M71.29,33.1a6.88,6.88,0,0,0-2.19-1.23,6.63,6.63,0,0,0-3.31-.32,5.78,5.78,0,0,0-2.87,1.34,6.41,6.41,0,0,0-2.07,5.94,5.77,5.77,0,0,0,1.41,2.82A6.6,6.6,0,0,0,65,43.46a6.82,6.82,0,0,0,2.49.39,5.35,5.35,0,0,0,2.29-.62l.31-.16-.78-1.62-.33.17a4.08,4.08,0,0,1-3.34.16,4.52,4.52,0,0,1-2-1.29,4.18,4.18,0,0,1-1-2,4.42,4.42,0,0,1,.19-2.29,4.31,4.31,0,0,1,1.28-1.9,4.22,4.22,0,0,1,2-1,4.71,4.71,0,0,1,2.34.21,4.16,4.16,0,0,1,2.52,2.2l.16.32,1.61-.77L72.69,35A5.28,5.28,0,0,0,71.29,33.1Z"/><path fill="#00162c" d="M71.44,32.93a7.25,7.25,0,0,0-5.68-1.61,6.08,6.08,0,0,0-3,1.39,6.3,6.3,0,0,0-1.88,2.8,6.37,6.37,0,0,0-.27,3.36,6.08,6.08,0,0,0,1.47,2.94A6.77,6.77,0,0,0,65,43.68a7,7,0,0,0,2.31.41h.27a5.52,5.52,0,0,0,2.39-.64l.5-.27-1-2-.54.27a3.85,3.85,0,0,1-3.16.15,4.41,4.41,0,0,1-1.86-1.22A4,4,0,0,1,63,38.46a4.26,4.26,0,0,1,.18-2.17,4.17,4.17,0,0,1,1.21-1.81,4,4,0,0,1,1.9-.89,4.46,4.46,0,0,1,2.22.2,4,4,0,0,1,2.39,2.08l.26.54,2-1-.22-.52A5.46,5.46,0,0,0,71.44,32.93Zm-.11,2.85-.06-.11a4.38,4.38,0,0,0-2.65-2.32,5,5,0,0,0-2.46-.22,4.35,4.35,0,0,0-2.12,1,4.59,4.59,0,0,0-1.35,2,4.51,4.51,0,0,0-.19,2.4,4.38,4.38,0,0,0,1,2.11A4.88,4.88,0,0,0,65.6,42a4.34,4.34,0,0,0,3.52-.17l.12-.06.58,1.2-.11.06a5.06,5.06,0,0,1-2.19.58,6.3,6.3,0,0,1-2.4-.37,6.37,6.37,0,0,1-2.68-1.74,5.62,5.62,0,0,1-1.36-2.72,5.88,5.88,0,0,1,.25-3.12,6,6,0,0,1,1.74-2.6,5.72,5.72,0,0,1,2.76-1.28,6.33,6.33,0,0,1,3.19.31,6.4,6.4,0,0,1,2.11,1.19,5,5,0,0,1,1.35,1.81l0,.11Z"/><path fill="#00162c" d="M89.43,44.58l-2.06-.71.7-2a.84.84,0,0,0-.51-1.07l-.06,0a.84.84,0,0,0-1.07.52l-.71,2-2-.72a.84.84,0,0,0-.56,1.59l2.06.72-.7,2A.84.84,0,0,0,85,47.94l.06,0a.84.84,0,0,0,1.07-.52l.7-2,2.06.72a.84.84,0,0,0,.55-1.59Z"/><path fill="#00162c" d="M89.51,44.36l-1.84-.64.62-1.79a1.06,1.06,0,0,0,0-.82,1.1,1.1,0,0,0-.61-.55l-.07,0a1.1,1.1,0,0,0-1.37.66L85.58,43l-1.84-.64a1.09,1.09,0,0,0-1.36.66,1.06,1.06,0,0,0,0,.82,1.08,1.08,0,0,0,.62.55l1.83.64-.62,1.78a1.11,1.11,0,0,0,0,.82,1.1,1.1,0,0,0,.61.55l.06,0a1.13,1.13,0,0,0,.36.06,1.07,1.07,0,0,0,1-.72L87,45.75l1.84.64a1.08,1.08,0,0,0,.71-2Zm.22,1.22A.63.63,0,0,1,89,46l-2.27-.79-.78,2.21a.62.62,0,0,1-.77.38l-.06,0a.61.61,0,0,1-.35-.3.59.59,0,0,1,0-.47l.77-2.22-2.28-.79a.59.59,0,0,1-.35-.31.57.57,0,0,1,0-.46.59.59,0,0,1,.57-.41.64.64,0,0,1,.2,0l2.28.8.78-2.23a.61.61,0,0,1,.77-.38l.06,0a.67.67,0,0,1,.35.31.59.59,0,0,1,0,.47L87.08,44l2.27.79A.61.61,0,0,1,89.73,45.58Z"/><path fill="#00162c" d="M80,41.3,78,40.58l.71-2a.84.84,0,0,0-.52-1.07l-.06,0A.84.84,0,0,0,77,38l-.7,2-2.06-.72a.84.84,0,0,0-.55,1.59l2.05.72-.69,2a.83.83,0,0,0,.51,1.07l.06,0a.83.83,0,0,0,1.07-.51l.7-2,2.06.72A.84.84,0,0,0,80,41.3Z"/><path fill="#00162c" d="M80.1,41.08l-1.84-.64.63-1.79a1.09,1.09,0,0,0-.66-1.37l-.06,0a1.09,1.09,0,0,0-1.37.66l-.63,1.79-1.83-.64a1.1,1.1,0,0,0-1.37.66,1.07,1.07,0,0,0,.66,1.37l1.83.64-.61,1.77a1.07,1.07,0,0,0,.66,1.37l.06,0a1,1,0,0,0,.35.06,1.09,1.09,0,0,0,1-.72l.61-1.77,1.84.64a1.1,1.1,0,0,0,1.37-.66,1.06,1.06,0,0,0-.05-.82A1,1,0,0,0,80.1,41.08Zm.22,1.21a.63.63,0,0,1-.78.38l-2.27-.8-.78,2.22a.61.61,0,0,1-.77.37l-.06,0a.6.6,0,0,1-.37-.77l.77-2.22-2.28-.79a.65.65,0,0,1-.34-.31.6.6,0,0,1,.54-.87.64.64,0,0,1,.2,0l2.28.79.78-2.23A.62.62,0,0,1,78,37.7l.06,0a.61.61,0,0,1,.38.77l-.78,2.24,2.28.79a.58.58,0,0,1,.34.31A.61.61,0,0,1,80.32,42.29Z"/><path fill="#fff" d="M99.41,84.67c-1.42.15-2.91.27-4.46.34l5.64,37.32A2.23,2.23,0,0,0,105,122c0-.11,0-.22,0-.33Z"/><path fill="#00162c" d="M99.64,84.64a.23.23,0,0,0-.25-.2c-1.48.16-3,.27-4.45.34a.21.21,0,0,0-.17.08.24.24,0,0,0,0,.18l5.64,37.32a2.48,2.48,0,0,0,2.44,2.1l.36,0a2.47,2.47,0,0,0,2.1-2.45c0-.12,0-.24,0-.36ZM103.1,124a2,2,0,0,1-2.28-1.68l-5.6-37.06c1.32-.06,2.66-.17,4-.3l5.56,36.76a1.51,1.51,0,0,1,0,.3A2,2,0,0,1,103.1,124Z"/><path fill="#00162c" d="M125,29.07c-3-1.21-8.72-1.61-8.72-1.61v27c-.11.17-6.12,1-6.12,1l-30.52,0C68,55.52,65.4,69.61,65.4,69.61s0,32.33,0,32.53A15.6,15.6,0,0,0,81.12,116.9H95.69c14.92,0,25.11-4.34,28.16-5.92.74-.38.61-.9.61-.9V78.35a8.87,8.87,0,0,0,6-7.21c.1-.75.17-34.1.17-34.1S128.33,30.38,125,29.07Z"/><path fill="#00162c" d="M125.11,28.85c-3-1.2-8.55-1.61-8.79-1.62a.22.22,0,0,0-.17.06.23.23,0,0,0-.08.17V54.29c-.69.18-3.9.67-5.88,1l-30.52,0c-11.73,0-14.47,14.13-14.5,14.32,0,1.32,0,32.34,0,32.54a15.91,15.91,0,0,0,15.94,15H95.69c16,0,26.36-4.95,28.27-5.95.87-.45.74-1.1.73-1.1h0V78.51a9,9,0,0,0,5.95-7.33c.1-.77.17-32.78.17-34.14a.17.17,0,0,0,0-.07C130.7,36.69,128.48,30.19,125.11,28.85Zm5.06,42.26a8.58,8.58,0,0,1-5.8,7,.23.23,0,0,0-.15.22v31.78s.06.35-.49.64c-1.89,1-12.16,5.89-28,5.89H81.12a15.45,15.45,0,0,1-15.48-14.52c0-.34,0-32.21,0-32.49s2.69-13.9,14-13.9l30.55,0c6.11-.88,6.21-1,6.28-1.13a.2.2,0,0,0,0-.13V27.71a37.06,37.06,0,0,1,8.4,1.57c3,1.21,5.22,7.28,5.4,7.8C130.32,48.6,130.26,70.48,130.17,71.11Z"/><rect width=".62" height="7.31" x="113.64" y="73.6" fill="#3700ff" transform="rotate(-.21 117.175 79.338)"/><polygon fill="#3700ff" points="106.39 66.89 106.41 74.26 107.04 74.25 107.02 66.89 106.39 66.89"/><rect width=".62" height="4.41" x="102.33" y="77.5" fill="#bbb4d0" transform="rotate(-.2 102.992 80.394)"/><rect width=".62" height="3.28" x="98.26" y="78.47" fill="#fff" transform="rotate(-.17 100.99 81.038)"/><rect width=".62" height="4.69" x="110.05" y="76.71" fill="#fff" transform="rotate(-.2 111.587 80.409)"/><rect width=".62" height="7.18" x="106.43" y="74.73" fill="#fff" transform="rotate(-.18 104.922 76.56)"/><rect width=".62" height="10.99" x="102.28" y="57.9" fill="#fff" transform="rotate(-.15 99.233 61.245)"/><rect width=".62" height="5.38" x="102.31" y="71.33" fill="#fff" transform="rotate(-.15 99.218 72.705)"/><rect width=".62" height="11.65" x="110.1" y="57.19" fill="#fff" transform="rotate(-.15 114.506 65.085)"/><rect width=".62" height="2.57" x="98.36" y="75" fill="#fff" transform="rotate(-.17 100.995 77.668)"/><rect width=".62" height="6.08" x="110.03" y="71.14" fill="#fff" transform="rotate(-.15 106.857 72.715)"/><polygon fill="#04fa98" points="113.5 56.53 113.52 63.59 114.14 63.58 114.13 56.53 113.5 56.53"/><polygon fill="#04fa98" points="106.38 57.93 106.39 64.98 107.02 64.98 107 57.93 106.38 57.93"/><rect width=".62" height="3.52" x="120.55" y="70.31" fill="#fff" transform="rotate(-.14 122.687 73.816)"/><rect width=".62" height="14.23" x="117.49" y="55.68" fill="#bbb4d0" transform="rotate(-.15 118.331 61.27)"/><polygon fill="#fff" points="120.64 66.06 120.65 68.64 121.28 68.63 121.27 66.06 120.64 66.06"/><polygon fill="#04fa98" points="120.11 55.89 120.12 58.35 120.74 58.35 120.73 55.89 120.11 55.89"/><rect width=".62" height="3.52" x="80.29" y="59.25" fill="#fff"/><polygon fill="#bbb4d0" points="77.25 81.23 77.87 81.23 77.89 67.98 77.26 67.98 77.25 81.23"/><rect width=".62" height="10.23" x="84.34" y="74.05" fill="#fff"/><rect width=".62" height="5.37" x="84.35" y="66.68" fill="#fff"/><rect width=".62" height="2.57" x="80.4" y="64.44" fill="#fff"/><rect width=".62" height="6.56" x="81.32" y="76.39" fill="#04fa98"/><rect width=".62" height="2.46" x="81.09" y="71.86" fill="#04fa98"/><path fill="#fff" d="M117.18,26.43a1,1,0,0,0-1.05,1,1,1,0,0,0,1,1c4.63.14,7.88,1.25,9.67,3.31,1.49,1.71,2,4.15,1.57,7.26A18.16,18.16,0,0,1,110.3,54.41H80.74A15.37,15.37,0,0,0,65.41,70.35,15.6,15.6,0,0,0,81.12,85.1H95.69c14.92,0,25.08-4.39,28.16-5.92a1,1,0,0,0-.91-1.86C120.06,78.73,110.06,83,95.69,83h-15A13.29,13.29,0,0,1,67.47,69.24a13.5,13.5,0,0,1,13.6-12.77H110.3a20.24,20.24,0,0,0,20.11-17.12c.52-3.73-.17-6.72-2.06-8.9C126.17,27.94,122.41,26.59,117.18,26.43Z"/><path fill="#00162c" d="M117.15,26.19a1.27,1.27,0,0,0,0,2.53c4.56.14,7.76,1.22,9.51,3.23,1.43,1.66,1.94,4,1.51,7.07A17.93,17.93,0,0,1,110.3,54.18H80.74A15.6,15.6,0,0,0,65.18,70.35a15.91,15.91,0,0,0,15.94,15H95.69c15.1,0,25.45-4.55,28.27-5.94a1.31,1.31,0,0,0,.65-.77,1.26,1.26,0,0,0-.12-1,1.29,1.29,0,0,0-1.65-.51A64,64,0,0,1,95.69,82.8h-15a13.07,13.07,0,0,1-13-13.55A13.34,13.34,0,0,1,81.07,56.71H110.3a20.48,20.48,0,0,0,20.34-17.33c.53-3.8-.18-6.86-2.11-9.09C126.3,27.73,122.49,26.35,117.15,26.19Zm13,13.12A20,20,0,0,1,110.3,56.24H81.07a13.8,13.8,0,0,0-13.83,13,13.53,13.53,0,0,0,13.5,14h15a64.58,64.58,0,0,0,27.36-5.74.82.82,0,0,1,1,.32.84.84,0,0,1,.07.64.81.81,0,0,1-.41.48c-2.79,1.38-13.06,5.89-28.06,5.89H81.12A15.44,15.44,0,0,1,65.64,70.34a15.14,15.14,0,0,1,15.1-15.7H110.3a18.39,18.39,0,0,0,18.29-15.55c.45-3.18-.09-5.68-1.62-7.44-1.83-2.11-5.15-3.26-9.84-3.39a.8.8,0,0,1,0-1.6h0c5.17.16,8.87,1.48,11,3.94C130,32.72,130.69,35.66,130.17,39.31Z"/><path fill="#fff" d="M94.83,54.41,92.57,39.47,89.5,31.25a.6.6,0,0,0-1.18.15l-.16,8.74,2.16,14.27.31,2.06,4,26.49c1.55-.07,3-.19,4.46-.34l-4-26.15Z"/><path fill="#00162c" d="M89.73,31.18a.84.84,0,0,0-.8-.58.81.81,0,0,0-.84.8l-.16,8.78L94.41,83a.24.24,0,0,0,.23.19h0c1.51-.06,3-.18,4.48-.34a.26.26,0,0,0,.16-.09.28.28,0,0,0,0-.18L92.79,39.39Zm5.11,51.54L88.4,40.15l.16-8.73a.36.36,0,0,1,.37-.36.38.38,0,0,1,.36.27l3,8.17,6.49,42.91C97.53,82.55,96.19,82.65,94.84,82.72Z"/><rect width="4.46" height="10.42" x="93.21" y="68.2" fill="url(#a)" transform="rotate(-8.1 95.774 72.385)"/><path fill="#00162c" d="M96.83,67.69l-4.41.67a.23.23,0,0,0-.2.26l1.56,10.31a.26.26,0,0,0,.09.16.23.23,0,0,0,.14,0h0l4.41-.67a.23.23,0,0,0,.2-.26L97.1,67.89A.24.24,0,0,0,96.83,67.69ZM94.21,78.63l-1.49-9.84,4-.6L98.16,78Z"/><rect width="4.46" height="6.73" x="91.13" y="56.3" fill="#3b51ff" rx=".86" transform="rotate(-8.6 93.351 59.649)"/><path fill="#00162c" d="M95.42,56.82a1.09,1.09,0,0,0-1.24-.91l-2.71.41a1.09,1.09,0,0,0-.92,1.24l.75,5a1.1,1.1,0,0,0,1.08.93h.16L95.26,63a1,1,0,0,0,.71-.43,1,1,0,0,0,.2-.81Zm.18,5.5a.62.62,0,0,1-.41.24L92.47,63a.63.63,0,0,1-.71-.52l-.75-5a.63.63,0,0,1,.53-.71l2.71-.41h.09a.63.63,0,0,1,.62.53l.75,5A.62.62,0,0,1,95.6,62.32Z"/><rect width=".62" height="10.08" x="107.37" y="103.05" fill="#3700ff" transform="rotate(-.19 108.38 108.74)"/><rect width=".62" height="7.37" x="100.14" y="95.92" fill="#3700ff" transform="rotate(-.15 103.002 99.448)"/><rect width=".62" height="6.08" x="96.07" y="108.42" fill="#bbb4d0" transform="rotate(-.18 95.323 108.375)"/><rect width=".62" height="3.52" x="92" y="108.28" fill="#fff" transform="rotate(-.14 93.994 110.614)"/><rect width=".62" height="14.23" x="88.94" y="86.77" fill="#bbb4d0" transform="rotate(-.15 87.733 91.788)"/><rect width=".62" height="3.68" x="88.99" y="110.82" fill="#3700ff" transform="rotate(-.18 88.947 114.731)"/><rect width=".62" height="6.48" x="103.79" y="107.34" fill="#fff" transform="rotate(-.18 104.867 111.573)"/><rect width=".62" height="9.9" x="100.16" y="104.6" fill="#fff" transform="rotate(-.16 103.694 111.156)"/><rect width=".62" height="10.99" x="96.02" y="86.93" fill="#fff" transform="rotate(-.15 99.188 95.623)"/><rect width=".62" height="5.37" x="96.05" y="100.36" fill="#fff" transform="rotate(-.14 98.091 106.526)"/><rect width=".62" height="11.65" x="103.83" y="86.22" fill="#fff" transform="rotate(-.15 106.827 95.633)"/><rect width=".62" height="2.57" x="92.1" y="104.03" fill="#fff" transform="rotate(-.15 91.533 107.072)"/><rect width=".62" height="6.08" x="103.77" y="100.17" fill="#fff" transform="rotate(-.16 100.128 100.408)"/><rect width=".62" height="7.05" x="107.25" y="85.56" fill="#04fa98" transform="translate(-.25 .3)"/><rect width=".62" height="7.05" x="100.12" y="86.96" fill="#04fa98" transform="rotate(-.14 102.199 94.254)"/><rect width=".62" height="7.05" x="93" y="86.98" fill="#04fa98" transform="rotate(-.16 92.98 89.655)"/><rect width=".62" height="2.46" x="91.56" y="86.98" fill="#04fa98" transform="rotate(-.16 92.98 89.655)"/><polygon fill="#bbb4d0" points="118.34 104.98 118.36 111.07 118.99 111.06 118.97 104.98 118.34 104.98"/><rect width=".62" height="3.52" x="114.28" y="106.21" fill="#fff" transform="rotate(-.16 114.441 107.59)"/><rect width=".62" height="14.23" x="111.22" y="84.71" fill="#bbb4d0" transform="rotate(-.15 110.652 91.818)"/><rect width=".62" height="3.68" x="111.27" y="108.76" fill="#3700ff" transform="rotate(-.18 114.416 111.588)"/><rect width=".62" height="10.99" x="118.3" y="83.49" fill="#fff" transform="rotate(-.15 118.296 88.008)"/><rect width=".62" height="5.37" x="118.33" y="96.92" fill="#fff" transform="rotate(-.16 114.456 96.847)"/><rect width=".62" height="2.57" x="114.38" y="101.97" fill="#fff" transform="rotate(-.17 117.807 104.655)"/><polygon fill="#04fa98" points="115.27 84.92 115.29 91.97 115.91 91.97 115.89 84.92 115.27 84.92"/><rect width=".62" height="2.46" x="113.85" y="84.92" fill="#04fa98" transform="rotate(-.14 110.394 86.079)"/><rect width="6.08" height=".62" x="75.36" y="89.68" fill="#bbb4d0" transform="rotate(-89.92 78.398 89.988)"/><rect width=".62" height="3.52" x="74.02" y="88.28" fill="#fff"/><rect width=".62" height="14.23" x="70.99" y="97.01" fill="#bbb4d0"/><rect width="3.68" height=".62" x="69.48" y="86.41" fill="#3700ff" transform="rotate(-89.91 71.314 86.722)"/><rect width=".62" height="10.99" x="78.07" y="103.54" fill="#fff"/><rect width=".62" height="5.37" x="78.08" y="95.71" fill="#fff"/><rect width=".62" height="2.57" x="74.13" y="93.47" fill="#fff"/><rect width=".62" height="7.05" x="75.05" y="106.04" fill="#04fa98"/><rect width="2.46" height=".62" x="73.91" y="101.8" fill="#04fa98" transform="rotate(-89.92 75.129 102.114)"/><path fill="url(#b)" d="M123.18,33.14l-12.86-8.59a4.3,4.3,0,0,0-6,1.18l-7.88,11.8a4.3,4.3,0,0,0,1.19,6l12.86,8.59a4.3,4.3,0,0,0,6-1.19l7.88-11.79A4.3,4.3,0,0,0,123.18,33.14Z"/><path d="M123.31,32.94l-12.86-8.59a4.55,4.55,0,0,0-6.29,1.25L96.28,37.4a4.44,4.44,0,0,0-.68,3.4,4.51,4.51,0,0,0,1.93,2.89l12.86,8.59A4.52,4.52,0,0,0,116.68,51l7.88-11.79A4.55,4.55,0,0,0,123.31,32.94Zm.86,6-7.88,11.79a4.06,4.06,0,0,1-5.64,1.12L97.79,43.3a4.06,4.06,0,0,1-1.12-5.64l7.88-11.8a4.06,4.06,0,0,1,5.64-1.12l12.86,8.59A4.07,4.07,0,0,1,124.17,39Z"/><path d="M117.28,39.79l-.22,0a.59.59,0,0,1-.44-.53c0-.14,0-.29-.05-.43s0-.29-.09-.43a.59.59,0,0,1,.26-.63l.19-.12a.6.6,0,0,0,.23-.76l-.18-.37a.6.6,0,0,0-.73-.3l-.2.07a.59.59,0,0,1-.67-.21,4.92,4.92,0,0,0-.57-.64.6.6,0,0,1-.13-.68l.09-.18a.61.61,0,0,0-.22-.77l-.35-.21a.6.6,0,0,0-.78.14l-.12.16a.59.59,0,0,1-.66.18,6.18,6.18,0,0,0-.84-.24.59.59,0,0,1-.48-.51l0-.16a.6.6,0,0,0-.6-.53h-.46a.59.59,0,0,0-.53.54l-.06.6h0a5.61,5.61,0,0,0-1.25.34.62.62,0,0,1-.69-.19l-.06-.08a.6.6,0,0,0-.79-.12l-.35.23a.61.61,0,0,0-.19.77l.06.11a.59.59,0,0,1-.12.69,6,6,0,0,0-.56.67.61.61,0,0,1-.67.23l-.1,0a.59.59,0,0,0-.72.32c-.07.14-.13.28-.19.43a.59.59,0,0,0,.27.71l.09,0a.59.59,0,0,1,.28.64,6.28,6.28,0,0,0-.12.87.59.59,0,0,1-.44.56L104,40a.61.61,0,0,0-.44.65,1.85,1.85,0,0,0,0,.23,1.7,1.7,0,0,0,0,.22.59.59,0,0,0,.61.48h.09a.61.61,0,0,1,.59.4,5.74,5.74,0,0,0,.38.79.59.59,0,0,1-.07.69l-.07.08a.59.59,0,0,0,0,.78,3.17,3.17,0,0,0,.3.34.61.61,0,0,0,.78.07l.08-.06a.6.6,0,0,1,.7,0,5.8,5.8,0,0,0,.75.46.6.6,0,0,1,.32.63l0,.12a.6.6,0,0,0,.42.67l.4.11a.61.61,0,0,0,.72-.35l0-.13a.57.57,0,0,1,.58-.36,6.32,6.32,0,0,0,.87,0l.62.35.06.14a.59.59,0,0,0,.7.34l.43-.12a.6.6,0,0,0,.39-.69l0-.16a.6.6,0,0,1,.3-.63,6.93,6.93,0,0,0,.72-.48.59.59,0,0,1,.69,0l.16.11a.6.6,0,0,0,.79-.11l.26-.31a.6.6,0,0,0,0-.79l-.14-.15a.59.59,0,0,1-.08-.68,6.07,6.07,0,0,0,.34-.79.61.61,0,0,1,.57-.41h.21a.61.61,0,0,0,.61-.52c0-.13,0-.26,0-.4A.6.6,0,0,0,117.28,39.79ZM113,42a3.25,3.25,0,1,1-1-5.29A3.24,3.24,0,0,1,113,42Z" style="mix-blend-mode:multiply" fill="#5b7895"/><path fill="#fff" d="M117,38.37l-.21,0a.59.59,0,0,1-.44-.53c0-.14,0-.29-.06-.43s0-.29-.08-.43a.59.59,0,0,1,.25-.64l.19-.11a.59.59,0,0,0,.23-.76c-.05-.13-.11-.25-.17-.37a.61.61,0,0,0-.74-.3l-.19.07a.61.61,0,0,1-.67-.21,7,7,0,0,0-.57-.65.55.55,0,0,1-.13-.67l.09-.18a.61.61,0,0,0-.23-.77l-.34-.21a.6.6,0,0,0-.78.14l-.12.15a.57.57,0,0,1-.67.18,7.84,7.84,0,0,0-.83-.23.59.59,0,0,1-.49-.51l0-.16a.59.59,0,0,0-.6-.53H110a.6.6,0,0,0-.54.54l0,.59h0a5.92,5.92,0,0,0-1.25.34.61.61,0,0,1-.68-.19l-.07-.09a.6.6,0,0,0-.79-.11l-.34.23a.6.6,0,0,0-.19.77l0,.11a.59.59,0,0,1-.11.69,5.18,5.18,0,0,0-.57.67.59.59,0,0,1-.66.23l-.1,0a.58.58,0,0,0-.72.32c-.07.14-.13.28-.19.42a.6.6,0,0,0,.27.72l.09.05a.59.59,0,0,1,.27.64,8,8,0,0,0-.11.87.6.6,0,0,1-.44.56l-.08,0a.61.61,0,0,0-.44.65l0,.23a1.7,1.7,0,0,1,0,.22.6.6,0,0,0,.62.48h.08a.59.59,0,0,1,.59.39,6.55,6.55,0,0,0,.38.8A.59.59,0,0,1,105,42l-.07.08a.59.59,0,0,0,0,.78c.1.11.2.23.3.33a.6.6,0,0,0,.78.08l.09-.06a.6.6,0,0,1,.7,0,5.8,5.8,0,0,0,.75.46.6.6,0,0,1,.32.63l0,.12a.6.6,0,0,0,.42.67l.4.11a.59.59,0,0,0,.71-.35l.06-.14a.59.59,0,0,1,.58-.36,6.32,6.32,0,0,0,.87,0l.62.35.06.14a.59.59,0,0,0,.7.34l.42-.13a.58.58,0,0,0,.4-.68l0-.16a.6.6,0,0,1,.31-.63q.38-.22.72-.48a.59.59,0,0,1,.69,0l.16.11a.59.59,0,0,0,.78-.11l.27-.31a.6.6,0,0,0,0-.79l-.14-.15a.59.59,0,0,1-.09-.68,6.13,6.13,0,0,0,.35-.79.6.6,0,0,1,.57-.41h.21a.6.6,0,0,0,.6-.52l.06-.4A.6.6,0,0,0,117,38.37Zm-4.31,2.2a3.25,3.25,0,1,1-1.06-5.3A3.25,3.25,0,0,1,112.68,40.57Z"/><path fill="#00162c" d="M117,38.14l-.21,0a.35.35,0,0,1-.26-.32,3.47,3.47,0,0,0-.06-.45c0-.15-.05-.3-.08-.44a.35.35,0,0,1,.15-.39l.19-.11a.85.85,0,0,0,.32-1.06l-.18-.37a.84.84,0,0,0-1-.42l-.2.07a.37.37,0,0,1-.4-.13,5.42,5.42,0,0,0-.6-.67.36.36,0,0,1-.08-.41l.09-.18a.85.85,0,0,0-.31-1.07l-.36-.22a.86.86,0,0,0-1.08.21l-.12.15a.35.35,0,0,1-.4.1,6.46,6.46,0,0,0-.86-.24.35.35,0,0,1-.3-.31l0-.16a.85.85,0,0,0-.89-.73H110a.82.82,0,0,0-.76.75l0,.41a7.44,7.44,0,0,0-1.14.33.38.38,0,0,1-.42-.12l-.07-.08a.84.84,0,0,0-1.09-.17l-.36.24a.82.82,0,0,0-.26,1.06l.06.12a.36.36,0,0,1-.08.42,6.5,6.5,0,0,0-.59.69.37.37,0,0,1-.4.15l-.1,0a.86.86,0,0,0-1,.45c-.06.15-.13.29-.19.44a.83.83,0,0,0,.37,1l.09,0a.37.37,0,0,1,.17.39A4.73,4.73,0,0,0,104,38a.39.39,0,0,1-.27.35l-.08,0a.82.82,0,0,0-.61.9l0,.23a2.23,2.23,0,0,1,0,.23.86.86,0,0,0,.86.68h.1a.39.39,0,0,1,.35.25,6.16,6.16,0,0,0,.39.82.36.36,0,0,1,0,.42l-.07.08a.82.82,0,0,0,0,1.09c.09.12.2.23.3.35a.86.86,0,0,0,1.09.1l.09-.06a.36.36,0,0,1,.42,0,6.28,6.28,0,0,0,.78.48.38.38,0,0,1,.2.38l0,.12a.82.82,0,0,0,.58.93l.41.12a.75.75,0,0,0,.21,0,.82.82,0,0,0,.78-.52l0-.13a.36.36,0,0,1,.36-.21h0a7.69,7.69,0,0,0,.83,0l.48.28,0,.06a.86.86,0,0,0,1,.48l.44-.13a.85.85,0,0,0,.55-1l0-.16a.38.38,0,0,1,.19-.39,6.52,6.52,0,0,0,.75-.5.35.35,0,0,1,.41,0l.17.11a.74.74,0,0,0,.46.14.84.84,0,0,0,.63-.28l.27-.32a.85.85,0,0,0,0-1.11l-.14-.14a.36.36,0,0,1,0-.41,7.3,7.3,0,0,0,.36-.82.35.35,0,0,1,.34-.25h.23a.83.83,0,0,0,.82-.71c0-.14,0-.28.06-.42A.83.83,0,0,0,117,38.14Zm.12,1.24a.37.37,0,0,1-.37.32h-.23a.82.82,0,0,0-.77.56,5.63,5.63,0,0,1-.33.76.81.81,0,0,0,.12.95l.14.15a.36.36,0,0,1,0,.49l-.25.3a.39.39,0,0,1-.28.13A.36.36,0,0,1,115,43l-.16-.11a.83.83,0,0,0-1,0,5.58,5.58,0,0,1-.69.47.82.82,0,0,0-.41.88l0,.16a.37.37,0,0,1-.24.41l-.41.13a.38.38,0,0,1-.43-.21l-.06-.14a.18.18,0,0,0-.1-.11l-.61-.35a.17.17,0,0,0-.14,0l-.52,0h-.37a.81.81,0,0,0-.76.51l0,.13a.38.38,0,0,1-.45.21l-.38-.1a.37.37,0,0,1-.26-.41l0-.13a.81.81,0,0,0-.45-.86,6,6,0,0,1-.71-.45.86.86,0,0,0-.51-.16.8.8,0,0,0-.47.15l-.08.06a.38.38,0,0,1-.48,0c-.1-.1-.19-.21-.29-.32a.38.38,0,0,1,0-.48l.07-.07a.83.83,0,0,0,.1-1,6.67,6.67,0,0,1-.37-.76.85.85,0,0,0-.82-.55h-.1a.36.36,0,0,1-.36-.29,1.43,1.43,0,0,0,0-.22l0-.22a.37.37,0,0,1,.27-.39l.08,0a.84.84,0,0,0,.61-.78,8.41,8.41,0,0,1,.11-.84.81.81,0,0,0-.38-.88l-.1,0a.36.36,0,0,1-.16-.43,3.65,3.65,0,0,1,.18-.41.36.36,0,0,1,.44-.2l.1,0a.83.83,0,0,0,.92-.31,4.85,4.85,0,0,1,.55-.65.84.84,0,0,0,.15-1l-.06-.11a.37.37,0,0,1,.13-.47c.1-.08.22-.15.33-.23a.37.37,0,0,1,.48.07l.07.08a.85.85,0,0,0,1,.26,5.67,5.67,0,0,1,1.19-.32l0-.23.08.22a.23.23,0,0,0,.17-.21l.06-.59a.33.33,0,0,1,.32-.32h.43a.36.36,0,0,1,.37.31l0,.17a.84.84,0,0,0,.67.71,5.57,5.57,0,0,1,.8.22.83.83,0,0,0,.93-.25l.12-.16a.38.38,0,0,1,.48-.08,3.13,3.13,0,0,1,.34.21.36.36,0,0,1,.14.46l-.09.18a.82.82,0,0,0,.17,1,6.53,6.53,0,0,1,.56.62.83.83,0,0,0,.92.29L116,35a.37.37,0,0,1,.45.19,3.78,3.78,0,0,1,.17.35.36.36,0,0,1-.14.47l-.19.11A.84.84,0,0,0,116,37a3,3,0,0,1,.08.41,3,3,0,0,1,0,.42.82.82,0,0,0,.62.73l.22.05a.37.37,0,0,1,.27.41C117.2,39.13,117.18,39.26,117.16,39.38Z"/><path fill="#00162c" d="M111.71,35.06a3.5,3.5,0,0,0-3.78.75,3.48,3.48,0,0,0,1.12,5.67,3.36,3.36,0,0,0,1.33.27,3.48,3.48,0,0,0,1.33-6.69Zm.8,5.34a3,3,0,0,1-3.27.65,3,3,0,0,1,1.15-5.79,3,3,0,0,1,2.94,2.42A3,3,0,0,1,112.51,40.4Z"/><polygon fill="url(#c)" points="48.35 55.12 55.74 77.04 87.73 71.55 80.35 49.63 48.35 55.12"/><path d="M80.57,49.55a.24.24,0,0,0-.26-.15l-32,5.49a.25.25,0,0,0-.16.11.25.25,0,0,0,0,.19l7.39,21.92a.22.22,0,0,0,.22.16h0l32-5.49a.36.36,0,0,0,.16-.11.27.27,0,0,0,0-.2ZM55.9,76.77,48.66,55.3l31.53-5.41,7.24,21.47Z"/><polygon fill="url(#d)" points="77.97 48.44 76.44 52.68 55.5 56.27 56.16 76.97 88.15 71.47 87.37 46.83 77.97 48.44"/><path d="M87.52,46.64a.26.26,0,0,0-.19,0l-9.4,1.62a.23.23,0,0,0-.19.15l-1.47,4.11L55.46,56a.24.24,0,0,0-.19.24L55.92,77a.31.31,0,0,0,.09.18.25.25,0,0,0,.15,0h0l32-5.48a.25.25,0,0,0,.2-.24L87.6,46.82A.25.25,0,0,0,87.52,46.64ZM56.38,76.69l-.64-20.22,20.75-3.56a.23.23,0,0,0,.18-.15l1.47-4.11,9-1.55.77,24.18Z"/><polygon fill="#00162c" points="75.2 66.62 75.58 68.84 88 66.71 87.93 64.44 75.2 66.62"/><path fill="#00162c" d="M88.08,64.26a.26.26,0,0,0-.19-.05L75.16,66.39a.31.31,0,0,0-.15.1.25.25,0,0,0,0,.17l.38,2.22a.23.23,0,0,0,.23.2h0L88,66.94a.22.22,0,0,0,.19-.24l-.07-2.27A.23.23,0,0,0,88.08,64.26ZM75.77,68.57l-.3-1.75,12.23-2.1.06,1.8Z"/><path fill="#00162c" d="M150.37,55.75c-3.47-1.16-7.89-6.73-7.89-6.73s-5.73,2.17-10,.73c-1.36-.46-2.42,1.2-3.23,3.62a21.82,21.82,0,0,0,3.47,20.15l1.65,2.16,2.5-.86a21.85,21.85,0,0,0,13-11.82C151.32,59.57,152.16,56.35,150.37,55.75Z"/><path fill="#00162c" d="M150.44,55.53c-3.36-1.13-7.73-6.6-7.78-6.65a.22.22,0,0,0-.26-.07,21.46,21.46,0,0,1-6.57,1.2,10.47,10.47,0,0,1-3.3-.48,1.54,1.54,0,0,0-.52-.09c-1.15,0-2.13,1.26-3,3.86a22,22,0,0,0,3.5,20.36l1.65,2.16a.22.22,0,0,0,.19.09h.07l2.51-.86a22.1,22.1,0,0,0,13.1-12c1.43-3.26,1.9-5.5,1.38-6.68A1.59,1.59,0,0,0,150.44,55.53Zm-.83,7.37a21.66,21.66,0,0,1-12.83,11.7l-2.35.8-1.55-2a21.56,21.56,0,0,1-3.43-19.93c.78-2.32,1.66-3.54,2.56-3.54a1.19,1.19,0,0,1,.37.06,10.83,10.83,0,0,0,3.45.51,21.8,21.8,0,0,0,6.57-1.18c.71.87,4.66,5.59,7.89,6.67a1.13,1.13,0,0,1,.69.63C151.3,57.32,151.32,59,149.61,62.9Z"/><path fill="#fff" d="M150.64,54.54c-3.47-1.16-7.89-6.72-7.89-6.72s-5.73,2.16-10,.72c-1.36-.45-2.42,1.21-3.23,3.62A21.81,21.81,0,0,0,133,72.31l1.65,2.16,2.51-.86a21.82,21.82,0,0,0,13-11.82C151.59,58.37,152.43,55.14,150.64,54.54Z"/><path fill="#00162c" d="M150.71,54.32c-3.36-1.12-7.73-6.59-7.78-6.65a.22.22,0,0,0-.26-.07,21.54,21.54,0,0,1-6.57,1.2,10.38,10.38,0,0,1-3.3-.48,1.58,1.58,0,0,0-.52-.09c-1.15,0-2.13,1.26-3,3.86a22,22,0,0,0,3.5,20.37l1.65,2.15a.21.21,0,0,0,.18.09h.08l2.51-.86a22.1,22.1,0,0,0,13.1-11.95c1.43-3.25,1.89-5.5,1.37-6.68A1.55,1.55,0,0,0,150.71,54.32Zm-.84,7.38a21.63,21.63,0,0,1-12.82,11.69l-2.35.8-1.55-2a21.52,21.52,0,0,1-3.43-19.93c.77-2.32,1.66-3.54,2.56-3.54a1.19,1.19,0,0,1,.37.06,10.75,10.75,0,0,0,3.45.51,21.87,21.87,0,0,0,6.57-1.18c.71.87,4.66,5.59,7.89,6.67a1.13,1.13,0,0,1,.69.63C151.57,56.11,151.59,57.79,149.87,61.7Z"/><path fill="#3700ff" d="M141.7,51.4a19.82,19.82,0,0,1-8.73.44,11.76,11.76,0,0,0-.52,1.31,18.7,18.7,0,0,0,3,17.27l.29.37.38-.13a18.74,18.74,0,0,0,11.12-10.12A17.76,17.76,0,0,0,148.46,57,25.41,25.41,0,0,1,141.7,51.4Z"/><path fill="#00162c" d="M141.87,51.24a.23.23,0,0,0-.23-.07,22.74,22.74,0,0,1-5.52.75,14.55,14.55,0,0,1-3.1-.31.24.24,0,0,0-.26.13,12.92,12.92,0,0,0-.53,1.34,18.9,18.9,0,0,0,3,17.48l.28.37a.26.26,0,0,0,.19.1l.07,0,.39-.13a19,19,0,0,0,11.26-10.25,17.79,17.79,0,0,0,1.24-3.58.24.24,0,0,0-.13-.26A25,25,0,0,1,141.87,51.24Zm5.15,9.2a18.52,18.52,0,0,1-11,10l-.23.08-.18-.24a18.43,18.43,0,0,1-2.95-17.05c.14-.43.29-.81.43-1.13a15.22,15.22,0,0,0,3,.29,23.12,23.12,0,0,0,5.5-.73,25.8,25.8,0,0,0,6.57,5.47A18.69,18.69,0,0,1,147,60.44Z"/><path fill="#04fa98" d="M89,106.52l-10.58-6a5.66,5.66,0,0,0-7.73,2.15l-5.11,9a5.67,5.67,0,0,0,2.15,7.73l10.58,6A5.68,5.68,0,0,0,86,123.29l5.11-9A5.67,5.67,0,0,0,89,106.52Z"/><path fill="#0e0e27" d="M89.09,106.32l-10.57-6a5.93,5.93,0,0,0-8.06,2.24l-5.1,9a5.91,5.91,0,0,0,2.24,8l10.57,6a5.93,5.93,0,0,0,8.06-2.24l5.1-9A5.9,5.9,0,0,0,89.09,106.32Zm1.84,7.82-5.11,9a5.43,5.43,0,0,1-7.42,2.06l-10.57-6a5.46,5.46,0,0,1-2.07-7.42l5.11-9a5.43,5.43,0,0,1,7.42-2.06l10.57,6A5.46,5.46,0,0,1,90.93,114.14Z"/><polygon fill="#fff" points="71.23 110.11 74.37 114.58 75.05 113.39 72.66 110.1 76.71 110.44 77.38 109.25 71.93 108.87 71.23 110.11"/><path fill="#00162c" d="M77.4,109l-5.46-.38a.23.23,0,0,0-.22.12L71,110a.23.23,0,0,0,0,.25l3.14,4.48a.26.26,0,0,0,.19.1h0a.27.27,0,0,0,.2-.12l.67-1.19a.23.23,0,0,0,0-.25l-2.08-2.88,3.54.3a.25.25,0,0,0,.22-.12l.68-1.19a.24.24,0,0,0,0-.23A.25.25,0,0,0,77.4,109Zm-.82,1.18-3.9-.33a.23.23,0,0,0-.22.12.23.23,0,0,0,0,.25l2.3,3.17-.42.74-2.85-4.06.56-1,4.94.34Z"/><polygon fill="#fff" points="73.29 117.24 74.33 117.83 83.5 108.8 82.45 108.21 73.29 117.24"/><path fill="#00162c" d="M83.61,108.6l-1-.59a.24.24,0,0,0-.28,0l-9.17,9a.22.22,0,0,0-.06.19.25.25,0,0,0,.11.18l1,.59a.2.2,0,0,0,.11,0,.28.28,0,0,0,.17-.07l9.16-9a.25.25,0,0,0,.07-.2A.21.21,0,0,0,83.61,108.6Zm-9.32,8.94-.62-.35,8.82-8.69.62.35Z"/><polygon fill="#fff" points="81.38 113.08 83.76 116.37 79.71 116.03 79.04 117.22 84.49 117.6 85.19 116.36 82.05 111.89 81.38 113.08"/><path fill="#00162c" d="M82.24,111.75a.25.25,0,0,0-.2-.09.23.23,0,0,0-.2.11L81.17,113a.23.23,0,0,0,0,.25l2.08,2.88-3.54-.29a.22.22,0,0,0-.22.11l-.68,1.19a.24.24,0,0,0,0,.23.25.25,0,0,0,.19.12l5.46.38h0a.22.22,0,0,0,.21-.12l.69-1.23a.23.23,0,0,0,0-.25Zm2.12,5.61L79.42,117l.42-.74,3.9.33a.23.23,0,0,0,.22-.11.24.24,0,0,0,0-.26l-2.3-3.17.42-.73,2.85,4Z"/><path fill="#00162c" d="M139.38,101.14l-1.46-3.45a3.76,3.76,0,0,0-2.26-2.1,3.76,3.76,0,0,0,.06-3.08l-1.46-3.45a1.76,1.76,0,0,1,1-2.47l-.73-1.73q-3.27,1.88-2,4.93L134,93.24a1.59,1.59,0,0,1-.84,2.4l-.15.06.73,1.72.15-.06c1.05-.45,1.82-.1,2.31,1.06l1.46,3.45q1.31,3.06,4.92,2l-.73-1.73A1.75,1.75,0,0,1,139.38,101.14Z"/><path fill="#00162c" d="M141.77,101.92a1.52,1.52,0,0,1-2.17-.87l-1.47-3.45A3.91,3.91,0,0,0,136,95.46a4,4,0,0,0,0-3L134.47,89a1.53,1.53,0,0,1,.89-2.17l.19-.1-.92-2.17-.23.13c-2.29,1.31-3,3.06-2.07,5.22l1.46,3.45a1.83,1.83,0,0,1,.15,1.3,1.38,1.38,0,0,1-.87.79l-.37.16.91,2.15.37-.16c.93-.39,1.57-.1,2,.94l1.46,3.45a3.53,3.53,0,0,0,3.42,2.42,6.34,6.34,0,0,0,1.78-.29l.25-.07-.92-2.17Zm-3.89-.14-1.46-3.45a1.88,1.88,0,0,0-1.72-1.39,2.27,2.27,0,0,0-.84.18l-.55-1.29a1.87,1.87,0,0,0,1.07-1,2.24,2.24,0,0,0-.16-1.63l-1.46-3.45c-.79-1.86-.25-3.33,1.65-4.5l.55,1.29a2,2,0,0,0-.92,2.66l1.47,3.45a3.5,3.5,0,0,1-.06,2.9l-.1.22.23.09a3.48,3.48,0,0,1,2.12,2l1.47,3.45a1.92,1.92,0,0,0,2.55,1.19l.54,1.29C140.11,104.27,138.67,103.65,137.88,101.78Z"/><path fill="#00162c" d="M148.11,93.36A1.59,1.59,0,0,1,149,91l.16-.07-.73-1.71-.16.06c-1.05.45-1.82.1-2.31-1.06l-1.46-3.45q-1.3-3.06-4.92-2l.73,1.73a1.75,1.75,0,0,1,2.47,1l1.46,3.45a3.76,3.76,0,0,0,2.26,2.1,3.76,3.76,0,0,0-.06,3.08l1.46,3.45a1.75,1.75,0,0,1-1,2.46l.73,1.74q3.28-1.87,2-4.93Z"/><path fill="#00162c" d="M148.32,93.27c-.44-1-.21-1.7.72-2.1l.37-.15-.91-2.15-.37.16a1.87,1.87,0,0,1-.72.17c-.55,0-1-.37-1.28-1.11l-1.47-3.45c-.91-2.15-2.67-2.88-5.2-2.13l-.25.07.92,2.17.21-.07a1.53,1.53,0,0,1,2.18.87L144,89a4,4,0,0,0,2.17,2.14,3.91,3.91,0,0,0,0,3l1.46,3.45a1.53,1.53,0,0,1-.89,2.17l-.19.1.92,2.17.23-.13c2.29-1.31,3-3.07,2.08-5.22Zm-.62,8.13-.55-1.29a2,2,0,0,0,.92-2.66L146.61,94a3.46,3.46,0,0,1,.06-2.9l.09-.23-.23-.08a3.48,3.48,0,0,1-2.12-2L143,85.37a1.92,1.92,0,0,0-2.55-1.19l-.55-1.3c2.16-.55,3.59.07,4.38,1.94l1.47,3.45c.39.93,1,1.39,1.71,1.39a2.27,2.27,0,0,0,.84-.18l.55,1.29a1.81,1.81,0,0,0-.91,2.68l1.47,3.45C150.14,98.76,149.61,100.23,147.7,101.4Z"/></g></svg>