<svg xmlns="http://www.w3.org/2000/svg" xmlns:xlink="http://www.w3.org/1999/xlink" viewBox="0 0 200 150"><defs><linearGradient id="a" x1="158.16" x2="163.47" y1="122.47" y2="122.47" gradientUnits="userSpaceOnUse"><stop offset="0" stop-color="#8eff99"/><stop offset=".51" stop-color="#69a8cc"/><stop offset=".99" stop-color="#4452ff"/></linearGradient><linearGradient id="b" x1="159.34" x2="164.64" y1="117.8" y2="117.8" xlink:href="#a"/><linearGradient id="d" x1="161.44" x2="162.5" y1="45.63" y2="45.63" gradientUnits="userSpaceOnUse"><stop offset="0" stop-color="#009baf"/><stop offset="1" stop-color="#00ebe9"/></linearGradient><radialGradient id="c" cx="111.53" cy="45.95" r="14.3" gradientTransform="rotate(9.36 -25.13 34.768) scale(1 .51)" gradientUnits="userSpaceOnUse"><stop offset="0" stop-color="#8eff99"/><stop offset=".13" stop-color="#8cfa9c"/><stop offset=".28" stop-color="#86eca4"/><stop offset=".45" stop-color="#7cd4b2"/><stop offset=".62" stop-color="#6db3c6"/><stop offset=".8" stop-color="#5b88df"/><stop offset=".99" stop-color="#4554fe"/><stop offset=".99" stop-color="#4452ff"/></radialGradient></defs><g data-name="Layer 1"><rect width="72.01" height="107.09" x="51.35" y="26.42" style="mix-blend-mode:multiply" fill="#5b7895" opacity=".55"/><rect width="70.81" height="108.72" x="54.32" y="24.64" fill="#fff"/><path d="M125.13,24.34H54.32a.3.3,0,0,0-.29.3V133.36a.29.29,0,0,0,.29.3h70.81a.3.3,0,0,0,.3-.3V24.64A.31.31,0,0,0,125.13,24.34Zm-.3,108.72H54.62V24.94h70.21Z"/><rect width="61.18" height="103.77" x="59.14" y="29.59" fill="#fff"/><path d="M120.32,29.29H59.14a.31.31,0,0,0-.3.3V133.36a.3.3,0,0,0,.3.3h61.18a.29.29,0,0,0,.29-.3V29.59A.3.3,0,0,0,120.32,29.29ZM120,133.06H59.44V29.89H120Z"/><rect width="194.2" height=".6" x="2.9" y="133.07"/><path fill="#3b51ff" d="M123.72,82.45l-.84,36.4a26.76,26.76,0,0,1,18.81-7.59C134.12,90.18,123.72,82.45,123.72,82.45Z"/><path d="M123.9,82.22a.29.29,0,0,0-.42.06.3.3,0,0,0,.06.41c.11.08,10.28,7.81,17.73,28.26-2.13,0-11.43.47-18.6,7.69a.29.29,0,0,0,0,.42.32.32,0,0,0,.42,0c7.91-8,18.48-7.51,18.59-7.51a.29.29,0,0,0,.25-.12.27.27,0,0,0,0-.27C134.45,90.23,124,82.29,123.9,82.22Z"/><path fill="#3b51ff" d="M123.9,82.32C117,76.31,92.62,76,80.26,79c-12.55,3-10.07,21.28-10.07,34.8s-3.13,19.54-3.13,19.54h66.23C133.29,114.39,130.66,88.17,123.9,82.32Z"/><path d="M124.1,82.1c-3.79-3.28-13.23-5.24-25.27-5.24a84.07,84.07,0,0,0-18.64,1.87c-11,2.68-10.7,16.79-10.39,29.24,0,2,.1,4,.1,5.85,0,13.28-3.07,19.34-3.1,19.4a.29.29,0,0,0,0,.3.29.29,0,0,0,.25.14h66.23a.3.3,0,0,0,.3-.3,207.94,207.94,0,0,0-2.17-30.48C130.24,95.27,128,85.48,124.1,82.1Zm-56.57,51c.71-1.6,3-7.65,3-19.24,0-1.88,0-3.82-.1-5.87-.29-12.22-.63-26.08,9.94-28.64a83.45,83.45,0,0,1,18.5-1.86c11.9,0,21.2,1.91,24.88,5.1,6.35,5.5,9.25,30,9.28,50.51Z"/><path fill="#3b51ff" d="M122.34,110c0-6.61-1-11.23-3.15-13.12-2.59-2.25-11.7-2.36-16.33-1.23s-3.76,8-3.76,13,1.73,5.84,3.35,6.67c4.43,2.26,13.14.62,18.11.62,4.74,0,6.15-3.43,6.15-3.43C124.35,113.5,122.34,113.35,122.34,110Z"/><path d="M126.59,112.26a5.57,5.57,0,0,1-2,.49c-1.28,0-1.9-.89-1.9-2.73,0-7-1.1-11.48-3.26-13.34-1.44-1.26-5-2-9.57-2a31.58,31.58,0,0,0-7,.71c-4.27,1-4.14,6.39-4,11.12,0,.76,0,1.48,0,2.18,0,5.14,1.81,6.07,3.41,6.88l.1,0c1.65.84,3.93,1.23,7.17,1.23,2.1,0,4.25-.16,6.33-.31,1.75-.14,3.4-.26,4.75-.26,4.88,0,6.41-3.58,6.42-3.62a.29.29,0,0,0-.06-.32A.3.3,0,0,0,126.59,112.26Zm-6,3.42c-1.37,0-3,.12-4.8.25-2.06.16-4.2.32-6.28.32a15.69,15.69,0,0,1-6.9-1.17l-.1,0c-1.58-.81-3.08-1.57-3.08-6.35,0-.7,0-1.43,0-2.2-.11-4.5-.23-9.6,3.57-10.53a31.67,31.67,0,0,1,6.88-.68c4.34,0,7.86.71,9.18,1.86,2,1.75,3.05,6.09,3.05,12.89,0,2.75,1.36,3.33,2.5,3.33a5.26,5.26,0,0,0,1.5-.26A6.39,6.39,0,0,1,120.56,115.68Z"/><path d="M83.85,106.7c-2.47-2.49-13.66-5-13.66,7.12,0,13.53-3.13,19.54-3.13,19.54h57.18C123.36,132.74,92.53,117.8,83.85,106.7Z" style="mix-blend-mode:multiply" fill="#5b7895" opacity=".55"/><path fill="#fff" d="M107.31,111.12l-.19-2.6a2.6,2.6,0,0,0-1-1.89,2.59,2.59,0,0,0,.74-2l-.18-2.6a1.22,1.22,0,0,1,1.21-1.4l-.09-1.31c-1.72.33-2.52,1.26-2.41,2.8l.18,2.6c.06.87-.31,1.33-1.1,1.38h-.12l.09,1.3h.12c.79-.06,1.22.35,1.28,1.22l.18,2.6c.11,1.54,1,2.35,2.78,2.43l-.09-1.3C107.83,112.33,107.36,111.93,107.31,111.12Z"/><path d="M108.7,112c-.71,0-1-.29-1.1-.94l-.18-2.6a2.83,2.83,0,0,0-.89-1.9,2.89,2.89,0,0,0,.62-2L107,102c0-.63.25-1,1-1.08a.3.3,0,0,0,.25-.31l-.09-1.31a.3.3,0,0,0-.12-.21.24.24,0,0,0-.23-.06c-2.35.44-2.74,1.93-2.66,3.11l.18,2.6a1.14,1.14,0,0,1-.17.79.83.83,0,0,1-.65.28h-.12a.28.28,0,0,0-.27.31l.09,1.3a.26.26,0,0,0,.1.2.28.28,0,0,0,.21.07h.24c.38,0,.78.11.84.95l.19,2.6c.08,1.18.68,2.6,3.06,2.71h0a.31.31,0,0,0,.22-.09.27.27,0,0,0,.08-.23l-.09-1.31A.3.3,0,0,0,108.7,112Zm-2.39-.85-.18-2.6c-.09-1.29-.92-1.5-1.42-1.5l0-.72a1.35,1.35,0,0,0,.9-.48,1.69,1.69,0,0,0,.29-1.21l-.18-2.6a2.1,2.1,0,0,1,1.85-2.4l0,.7a1.47,1.47,0,0,0-1.2,1.66l.18,2.6a2.28,2.28,0,0,1-.65,1.79.27.27,0,0,0-.08.22.26.26,0,0,0,.11.21,2.31,2.31,0,0,1,.9,1.68l.18,2.6a1.46,1.46,0,0,0,1.41,1.48l0,.7A2.1,2.1,0,0,1,106.31,111.19Z"/><path fill="#fff" d="M117.61,105.17c-.79.06-1.22-.35-1.28-1.22l-.18-2.6c-.11-1.54-1-2.35-2.78-2.43l.09,1.31a1.2,1.2,0,0,1,1.39,1.21L115,104a2.56,2.56,0,0,0,1,1.89,2.61,2.61,0,0,0-.74,2l.18,2.6c.06.8-.35,1.26-1.21,1.4l.09,1.3c1.72-.32,2.52-1.26,2.42-2.79l-.19-2.6c-.06-.87.31-1.34,1.1-1.39h.12l-.09-1.29Z"/><path d="M117.92,104.94a.27.27,0,0,0-.21-.07h-.24c-.38,0-.78-.11-.84-.95l-.18-2.6c-.09-1.17-.69-2.6-3.07-2.71a.32.32,0,0,0-.23.09.29.29,0,0,0-.08.23l.09,1.31a.3.3,0,0,0,.3.28c.71,0,1.05.29,1.1.93l.18,2.6a2.83,2.83,0,0,0,.89,1.9,2.89,2.89,0,0,0-.62,2l.18,2.6c0,.64-.25,1-1,1.08a.31.31,0,0,0-.25.32l.09,1.3a.32.32,0,0,0,.12.22.28.28,0,0,0,.18.06h0c2.35-.44,2.75-1.93,2.66-3.1l-.18-2.6a1.15,1.15,0,0,1,.17-.8.86.86,0,0,1,.65-.27h.12a.3.3,0,0,0,.2-.1.35.35,0,0,0,.08-.22l-.1-1.29A.28.28,0,0,0,117.92,104.94Zm-1.32,1.73a1.69,1.69,0,0,0-.29,1.21l.18,2.6a2.11,2.11,0,0,1-1.85,2.41l0-.71a1.46,1.46,0,0,0,1.2-1.65l-.18-2.6a2.28,2.28,0,0,1,.66-1.79.3.3,0,0,0,.07-.23.3.3,0,0,0-.1-.21,2.28,2.28,0,0,1-.91-1.68l-.18-2.6a1.45,1.45,0,0,0-1.41-1.47l0-.71a2.11,2.11,0,0,1,2.16,2.13L116,104c.09,1.29.92,1.5,1.42,1.51l0,.71A1.37,1.37,0,0,0,116.6,106.67Z"/><path fill="#fff" d="M117.51,115.78c-.8-1.3-2.21-1.33-5.17-.3s-8.66,1.45-10.91,1.45A226.36,226.36,0,0,0,78.68,116l2.9-5.1-19.36-3s-15.76,25,4,25a86.35,86.35,0,0,0,34.63-7.44c2.66,2.83,8.35-2.16,8.85-.68s.59,5.64,2.14,5.46c.93-.1,1.6-3,1.6-3a10.55,10.55,0,0,0,2.76,3.49c1.65,1.16,1.85-.72,1.85-.72.53,1.14,3.2,1.5,3.11-.12a31.34,31.34,0,0,0-1.41-4.21s2,2.89,3.44,2.32-.44-2.84-2.36-6.64A48.9,48.9,0,0,0,117.51,115.78Z"/><path d="M121.1,121.24a36.22,36.22,0,0,0-2.44-4.23c-.28-.42-.56-.85-.89-1.39a2.38,2.38,0,0,0-2.21-1.17,10.69,10.69,0,0,0-3.31.75c-2.88,1-8.55,1.43-10.82,1.43-.27,0-.86,0-1.76-.13-3-.25-9.16-.79-18.81-.79H79.19l2.64-4.65a.28.28,0,0,0,0-.28.3.3,0,0,0-.22-.17l-19.35-3a.3.3,0,0,0-.3.14c-.37.57-8.9,14.25-5,21.35,1.49,2.71,4.6,4.08,9.23,4.08a88,88,0,0,0,34.57-7.38,3.19,3.19,0,0,0,2.26.82,11.83,11.83,0,0,0,4.25-1.19,6.85,6.85,0,0,1,1.94-.65c.15,0,.16,0,.18.07a13.58,13.58,0,0,1,.35,1.69c.32,1.87.69,4,2,4h.13c.81-.09,1.37-1.53,1.66-2.47A9.56,9.56,0,0,0,116,131a2,2,0,0,0,1.12.44,1.14,1.14,0,0,0,1-.76,2.76,2.76,0,0,0,1.75.64,1.6,1.6,0,0,0,1.2-.45,1.24,1.24,0,0,0,.33-1,15.7,15.7,0,0,0-.8-2.65,3.39,3.39,0,0,0,2.11,1.15,1.5,1.5,0,0,0,.52-.09,1.15,1.15,0,0,0,.71-.67c.27-.78-.39-1.9-1.37-3.61C122.16,123.2,121.62,122.28,121.1,121.24Zm2.33,6.18c0,.09-.09.21-.35.31a.81.81,0,0,1-.31.06c-1,0-2.35-1.64-2.77-2.27a.3.3,0,0,0-.39-.09.31.31,0,0,0-.14.37,27,27,0,0,1,1.39,4.12.67.67,0,0,1-.16.52,1,1,0,0,1-.77.26,1.89,1.89,0,0,1-1.61-.8.29.29,0,0,0-.56.09s-.1.83-.61.83a1.45,1.45,0,0,1-.77-.32,10.36,10.36,0,0,1-2.68-3.38.29.29,0,0,0-.3-.17.3.3,0,0,0-.25.23c-.3,1.29-.91,2.7-1.34,2.75h-.07c-.78,0-1.14-2.1-1.38-3.49a13.79,13.79,0,0,0-.38-1.78.71.71,0,0,0-.74-.48,7,7,0,0,0-2.18.7,11.3,11.3,0,0,1-4,1.15,2.55,2.55,0,0,1-2-.8.31.31,0,0,0-.35-.06,86.91,86.91,0,0,1-34.5,7.41c-4.4,0-7.33-1.26-8.71-3.76-3.53-6.4,3.89-19,4.86-20.59l18.73,2.92-2.68,4.72a.32.32,0,0,0,0,.3.3.3,0,0,0,.26.15h0a206.6,206.6,0,0,1,20.94.78c.91.08,1.52.13,1.81.13,2.37,0,8-.43,11-1.47a10.41,10.41,0,0,1,3.12-.71,1.77,1.77,0,0,1,1.7.88c.34.55.63,1,.9,1.4a34.53,34.53,0,0,1,2.4,4.18c.54,1.06,1.08,2,1.55,2.8C123,125.76,123.62,126.9,123.43,127.42Z"/><rect width=".6" height="7.83" x="117.75" y="118.57" transform="rotate(-27.5 118.052 122.488)"/><path d="M116.17,124.14c-.54-1.26-1.15-2.69-1.62-3.69l-.54.26c.47,1,1.07,2.41,1.61,3.66.42,1,.79,1.87,1,2.38a27.61,27.61,0,0,1,1.12,3.35l.57-.15a24.36,24.36,0,0,0-1.15-3.45C117,126,116.59,125.14,116.17,124.14Z"/><path d="M112.81,124.26a22.35,22.35,0,0,0-1-2.77l-.53.27a21.39,21.39,0,0,1,1,2.68c.15.47.28.87.38,1.14.29.77.59,1.93.59,1.94l.58-.15c0-.05-.31-1.2-.61-2C113.08,125.11,113,124.72,112.81,124.26Z"/><path fill="#3b51ff" d="M54.86,111.27l.11,0a.66.66,0,0,0-.06.2c-.27,1.77,5.32,4.09,12.49,5.17s13.2.53,13.46-1.25a.37.37,0,0,0,0-.11c.54-1.06,2.6-5.11,3.6-7.51L76.19,80.9C61.33,89.83,54.86,111.27,54.86,111.27Z"/><path d="M84.59,107.51a.3.3,0,0,0-.39.16c-1,2.37-3,6.34-3.6,7.5a.28.28,0,0,0,0,.13v.07c-.21,1.38-5.65,2.13-13.13,1S55,112.92,55.2,111.53l0-.13a.3.3,0,0,0,0-.26h0a74.17,74.17,0,0,1,5-11.57c3.15-5.87,8.51-13.83,16.12-18.4a.3.3,0,1,0-.3-.51c-7.74,4.64-13.16,12.7-16.35,18.64a73,73,0,0,0-5.11,11.89.31.31,0,0,0,0,.25h0v0c-.34,2.27,6.31,4.54,12.75,5.51a48,48,0,0,0,6.91.55c3.75,0,6.67-.6,6.89-2.05a.19.19,0,0,1,0-.08c.63-1.24,2.6-5.13,3.58-7.48A.31.31,0,0,0,84.59,107.51Z"/><path d="M112.11,44.62a4.49,4.49,0,0,0,3.22-2.8s-1.1.48-7.21-.94c-8.45-2-9,2.89-9,2.89C93.83,40,88.79,54.24,94.43,62.59c5.82,8.63,14.62,3.35,18.57.43s.17-5.17.21-7.25,2.8-2.72,3.05-7.21S112.11,44.62,112.11,44.62Z"/><path d="M113.53,44.38a4.65,4.65,0,0,0,2.08-2.48.28.28,0,0,0-.08-.31.27.27,0,0,0-.31-.05,2.59,2.59,0,0,1-.7.06,30.82,30.82,0,0,1-6.33-1,16.94,16.94,0,0,0-3.7-.47c-4.09,0-5.27,2.21-5.59,3.17a3.16,3.16,0,0,0-1.57-.44c-1.45,0-2.84,1.11-3.92,3.13-2.29,4.3-2.62,11.76.77,16.78,2.17,3.22,5,4.85,8.31,4.85s6.79-1.46,10.69-4.35c2.9-2.16,1.86-4.07,1-5.6a4.24,4.24,0,0,1-.7-1.89,3.45,3.45,0,0,1,1-2,8.23,8.23,0,0,0,2-5.17,4,4,0,0,0-.94-3.14A3.84,3.84,0,0,0,113.53,44.38ZM116,48.54A7.8,7.8,0,0,1,114,53.39a3.91,3.91,0,0,0-1.13,2.37,4.67,4.67,0,0,0,.77,2.18c.84,1.54,1.63,3-.86,4.84-3.73,2.77-7.31,4.23-10.33,4.23s-5.76-1.54-7.82-4.58c-3.26-4.84-2.94-12-.73-16.17,1-1.82,2.17-2.82,3.39-2.82a2.72,2.72,0,0,1,1.59.57.3.3,0,0,0,.29,0,.32.32,0,0,0,.18-.24c0-.12.44-3.09,5.1-3.09a16.24,16.24,0,0,1,3.56.46,27.15,27.15,0,0,0,6.79,1,4.24,4.24,0,0,1-2.8,2.14.29.29,0,0,0,.1.58,3.89,3.89,0,0,1,.41,0,3.69,3.69,0,0,1,2.64,1A3.52,3.52,0,0,1,116,48.54Z"/><path d="M76.14,131.3a2.06,2.06,0,0,0,2.06,2.06h51.25v-2.19H76.14Z"/><path d="M129.45,130.87H76.14a.31.31,0,0,0-.3.3v.13a2.36,2.36,0,0,0,2.36,2.36h51.25a.31.31,0,0,0,.3-.3v-2.19A.31.31,0,0,0,129.45,130.87Zm-.3,2.19H78.2a1.75,1.75,0,0,1-1.75-1.59h52.7Z"/><path d="M191.32,93.62H138.19a2.06,2.06,0,0,0-2,1.46l-10.84,35.61a2.07,2.07,0,0,0,2,2.67h53.13a2.07,2.07,0,0,0,2-1.47l10.84-35.6A2.07,2.07,0,0,0,191.32,93.62Z"/><path d="M191.32,93.32H138.19A2.36,2.36,0,0,0,135.92,95l-10.83,35.6a2.37,2.37,0,0,0,2.26,3.06h53.13a2.37,2.37,0,0,0,2.27-1.68l10.83-35.6a2.37,2.37,0,0,0-2.26-3.06ZM193,96.2l-10.83,35.61a1.76,1.76,0,0,1-1.7,1.25H127.35a1.77,1.77,0,0,1-1.42-.71,1.75,1.75,0,0,1-.27-1.58l10.83-35.6a1.77,1.77,0,0,1,1.7-1.26h53.13a1.78,1.78,0,0,1,1.42.72A1.74,1.74,0,0,1,193,96.2Z"/><path fill="url(#a)" d="M162.67,120.91l-.46-.28a1.64,1.64,0,0,0-1.62-.08l-1.5.74a1.67,1.67,0,0,0-.18,2.88h0a3.5,3.5,0,0,0,3.88-.51A1.67,1.67,0,0,0,162.67,120.91Z"/><path d="M162.83,120.65l-.46-.28a2,2,0,0,0-1.91-.09L159,121a2,2,0,0,0-1.09,1.67,1.87,1.87,0,0,0,.88,1.72h0a2.88,2.88,0,0,0,1.56.43h0a4.62,4.62,0,0,0,2.65-1,2,2,0,0,0,.78-1.65A2,2,0,0,0,162.83,120.65Zm-.2,2.78a4,4,0,0,1-2.29.84,2.41,2.41,0,0,1-1.25-.34l-.16.25.14-.26a1.31,1.31,0,0,1-.61-1.19,1.37,1.37,0,0,1,.76-1.17l1.5-.74a1.39,1.39,0,0,1,1.34.06l.46.28a1.37,1.37,0,0,1,.65,1.13A1.3,1.3,0,0,1,162.63,123.43Z"/><path fill="url(#b)" d="M163.88,116.08l0,0a3.52,3.52,0,0,0-3.87.56,1.67,1.67,0,0,0,.17,2.76l.46.28a1.66,1.66,0,0,0,1.63,0l1.48-.76A1.65,1.65,0,0,0,163.88,116.08Z"/><path d="M164,115.82h0a3,3,0,0,0-1.53-.41,4.51,4.51,0,0,0-2.67,1A1.93,1.93,0,0,0,159,118a2,2,0,0,0,1,1.6l.46.28a2,2,0,0,0,1,.28,2,2,0,0,0,.9-.22l1.49-.76a2,2,0,0,0,1.07-1.69A1.87,1.87,0,0,0,164,115.82Zm-.43,2.87-1.49.76a1.42,1.42,0,0,1-1.33,0l-.47-.28a1.4,1.4,0,0,1-.67-1.12,1.31,1.31,0,0,1,.53-1.15,3.94,3.94,0,0,1,2.31-.87,2.3,2.3,0,0,1,1.22.33l.16-.26-.14.27a1.3,1.3,0,0,1,.62,1.18A1.35,1.35,0,0,1,163.6,118.69Z"/><path fill="#fff" d="M110.22,62.06l-17-2c.26,2.44-.66,17.79-.66,17.79,14.83,6.7,18.33,0,18.33,0C109.84,73.88,110.22,62.06,110.22,62.06Z"/><path fill="#0e0e27" d="M110.52,62.07a.3.3,0,0,0-.27-.31l-17-1.95a.29.29,0,0,0-.33.33c.25,2.38-.65,17.59-.66,17.75a.31.31,0,0,0,.17.29c4.41,2,8.27,3,11.47,3,5.54,0,7.18-3,7.24-3.14a.3.3,0,0,0,0-.21C110.15,73.89,110.51,62.19,110.52,62.07Zm-6.63,18.51a28.11,28.11,0,0,1-11-2.86c.11-1.83.83-14.17.68-17.28l16.38,1.88c0,1.82-.28,11.72.64,15.54C110.24,78.34,108.54,80.58,103.89,80.58Z"/><path fill="#fff" d="M114.26,48c-1.55-7.23-20.52-6.45-20.52,1.92,0,1.26-.22,3.69-.16,6.19h0a4.28,4.28,0,1,0,0,8.56,4.5,4.5,0,0,0,.9-.09c.47,3.26,1.06,7.45,3.82,9.95,1.75,1.59,5.35-.42,6.49,2.63,4.13-.2,7.78-1.28,10.46-4.41,2-2.33,1.26-7,1-10.28S114.93,51.08,114.26,48Z"/><path d="M116.54,62.41c-.23-3.19-1.31-11.38-2-14.51-.81-3.82-5.81-5.17-9.85-5.17-5.59,0-11.25,2.45-11.25,7.15,0,.46,0,1.08-.07,1.8-.06,1.17-.12,2.61-.1,4.1a4.58,4.58,0,0,0,.26,9.15,3.45,3.45,0,0,0,.64-.05c.49,3.31,1.13,7.34,3.88,9.83a4.55,4.55,0,0,0,3,.81c1.5.06,2.8.11,3.39,1.7a.31.31,0,0,0,.28.2h0c4.85-.22,8.24-1.66,10.68-4.51,1.81-2.12,1.48-6,1.2-9.18C116.6,63.27,116.57,62.82,116.54,62.41ZM115,72.51c-2.3,2.68-5.49,4-10,4.3-.78-1.77-2.4-1.83-3.84-1.88a4.14,4.14,0,0,1-2.65-.66c-2.66-2.42-3.25-6.47-3.72-9.73v-.05a.32.32,0,0,0-.12-.2.34.34,0,0,0-.17-.05h-.07a4,4,0,1,1-.83-7.88h0a.27.27,0,0,0,.21-.09.31.31,0,0,0,.09-.22c0-1.56,0-3.11.1-4.35,0-.73.06-1.36.06-1.83,0-4.31,5.37-6.56,10.66-6.56,4.11,0,8.58,1.46,9.27,4.7s1.75,11.26,2,14.43c0,.42.07.86.11,1.33C116.31,66.81,116.64,70.58,115,72.51Z"/><path d="M116.09,60.9a6.87,6.87,0,0,1-3.72,1c-1.83,0-2.87-.79-4.28-1A6.85,6.85,0,0,0,103.17,62c-1.55,1.12-3,2.23-5.44,2.23a6.91,6.91,0,0,1-3.47-.87c.53,3.37.89,8.33,4,11.15,1.75,1.59,5.35-.42,6.49,2.63,4.13-.2,7.78-1.28,10.46-4.41,2-2.33,1.26-7,1-10.28C116.21,62,116.16,61.49,116.09,60.9Zm-7.32,5.8c-2.24.78-5.09-.52-5.09-2.56,0-.89,7.11-1.45,7.11-.55A2.88,2.88,0,0,1,108.77,66.7Z"/><path d="M108.71,62.83s-5.33.08-5.33,1.31c0,1.91,2.08,3.09,4,3.09a4.61,4.61,0,0,0,1.49-.24,3.21,3.21,0,0,0,2.22-3.4C111.09,63.24,110.82,62.83,108.71,62.83Zm0,3.59a3.92,3.92,0,0,1-1.29.21c-1.63,0-3.37-1-3.4-2.45.27-.3,2.45-.75,4.73-.75a3.94,3.94,0,0,1,1.78.22A2.57,2.57,0,0,1,108.67,66.42Z"/><path d="M116.54,62.41c0-.4-.08-.92-.16-1.54a.29.29,0,0,0-.45-.22,6.57,6.57,0,0,1-3.56,1,7.41,7.41,0,0,1-2.62-.55,9.73,9.73,0,0,0-1.61-.45A7.16,7.16,0,0,0,103,61.74l-.24.17a7.92,7.92,0,0,1-5,2,6.66,6.66,0,0,1-3.33-.83.29.29,0,0,0-.31,0,.3.3,0,0,0-.13.3c.06.39.12.8.19,1.24.48,3.35,1.09,7.52,3.91,10.08a4.55,4.55,0,0,0,3,.81c1.5.06,2.8.11,3.39,1.7a.31.31,0,0,0,.28.2h0c4.85-.22,8.24-1.66,10.68-4.51,1.81-2.12,1.48-6,1.2-9.18C116.6,63.27,116.57,62.82,116.54,62.41ZM115,72.51c-2.3,2.68-5.49,4-10,4.3-.78-1.77-2.4-1.83-3.84-1.88a4.14,4.14,0,0,1-2.65-.66c-2.66-2.42-3.25-6.47-3.72-9.73,0-.23-.07-.45-.1-.67a7.39,7.39,0,0,0,3.09.63,8.38,8.38,0,0,0,5.38-2.11l.23-.17a6.6,6.6,0,0,1,4.7-1,8.2,8.2,0,0,1,1.52.43,8,8,0,0,0,2.81.57,7.2,7.2,0,0,0,3.47-.82c0,.41.08.77.1,1.06s.07.86.11,1.33C116.31,66.81,116.64,70.58,115,72.51Z"/><path fill="#0e0e27" d="M113.91,51.85c-3-1-4.69-.37-4.76-.34a.3.3,0,0,0-.17.38.31.31,0,0,0,.38.18,7.13,7.13,0,0,1,4.36.35h.09a.28.28,0,0,0,.28-.2A.3.3,0,0,0,113.91,51.85Z"/><path fill="#0e0e27" d="M103.05,50a7.58,7.58,0,0,0-4.56,1.41.31.31,0,0,0-.1.41.31.31,0,0,0,.26.14.28.28,0,0,0,.15,0A7.22,7.22,0,0,1,103,50.58a.3.3,0,0,0,.08-.59Z"/><path fill="#0e0e27" d="M102.18,55.05a.7.7,0,1,0,.7.7A.7.7,0,0,0,102.18,55.05Z"/><path fill="#0e0e27" d="M102.18,54.75a1,1,0,1,0,1,1A1,1,0,0,0,102.18,54.75Zm0,1.41a.41.41,0,1,1,.4-.41A.4.4,0,0,1,102.18,56.16Z"/><path fill="#0e0e27" d="M112.5,53.87a.7.7,0,1,0,.71.7A.7.7,0,0,0,112.5,53.87Z"/><path fill="#0e0e27" d="M112.5,53.57a1,1,0,1,0,1,1A1,1,0,0,0,112.5,53.57Zm0,1.4a.4.4,0,1,1,.41-.4A.4.4,0,0,1,112.5,55Z"/><path fill="#0e0e27" d="M108.22,57.59a.3.3,0,1,0-.14.58c.22,0,.49.15.55.33s-.17.59-.26.69a.31.31,0,0,0,0,.42.31.31,0,0,0,.2.07.28.28,0,0,0,.22-.1,1.46,1.46,0,0,0,.38-1.26A1.21,1.21,0,0,0,108.22,57.59Z"/><path fill="#00162c" d="M91.94,57.84a2.48,2.48,0,0,0-1.54,2.44,3.2,3.2,0,0,0,3,2.9l.06-.59c-.1,0-2.44-.27-2.52-2.33a1.89,1.89,0,0,1,1.19-1.87,2.19,2.19,0,0,1,2.37.38l.43-.41A2.78,2.78,0,0,0,91.94,57.84Z"/><path fill="#00162c" d="M92.54,59.44a1.46,1.46,0,0,1,.09-1.26l-.54-.25A2.06,2.06,0,0,0,92,59.7a2.09,2.09,0,0,0,1.28,1l.14-.58A1.46,1.46,0,0,1,92.54,59.44Z"/><path fill="#04fa98" d="M105.54,35.41c-5.17-1.55-16.91,3.61-15.88,11S92.1,52,92.1,52,92,44.83,111,42A7.6,7.6,0,0,0,105.54,35.41Z"/><path d="M105.62,35.12a7.77,7.77,0,0,0-2.2-.29,17.57,17.57,0,0,0-12,5.44,7.66,7.66,0,0,0-2.07,6.15c.57,4.07,1.34,6,2.35,6a.86.86,0,0,0,.62-.29A.33.33,0,0,0,92.4,52c0-.07.1-6.93,18.61-9.7a.3.3,0,0,0,.26-.31A8,8,0,0,0,105.62,35.12ZM91.81,51.85a.19.19,0,0,1-.09,0c-.1,0-1-.16-1.76-5.54a7.09,7.09,0,0,1,1.93-5.68,16.9,16.9,0,0,1,11.53-5.23,7.17,7.17,0,0,1,7.23,6.31C93.14,44.43,91.9,50.78,91.81,51.85Z"/><path fill="url(#c)" d="M127.6,40.15H107.11c-4.39,0-12.31,5.43-13.83,7.45A6.52,6.52,0,0,0,92.1,52a5.67,5.67,0,0,1,2.27-3.74c2.26-1.62,14.65-4.36,17.74-3.63,4.54,1.06,4.13,5,4.13,5S132.57,40.15,127.6,40.15Z"/><path d="M127.6,39.85H107.11c-4.58,0-12.51,5.5-14.06,7.58A6.63,6.63,0,0,0,91.81,52a.3.3,0,0,0,.29.26h0a.3.3,0,0,0,.3-.26,5.38,5.38,0,0,1,2.15-3.54c2-1.41,12-3.7,16.19-3.7a5.56,5.56,0,0,1,1.3.12c4.22,1,3.92,4.54,3.9,4.69a.31.31,0,0,0,.13.28.33.33,0,0,0,.32,0S119.62,48,122.72,46c6.44-4.25,6.2-5.15,6.1-5.53C128.66,39.85,127.87,39.85,127.6,39.85Zm-5.21,5.61c-2.4,1.59-4.87,3.07-5.86,3.65a5.1,5.1,0,0,0-4.35-4.78,6.25,6.25,0,0,0-1.44-.13c-4.42,0-14.46,2.31-16.54,3.81a6.34,6.34,0,0,0-1.63,1.78,6,6,0,0,1,1-2c1.54-2.05,9.35-7.33,13.59-7.33H127.6c.5,0,.63.1.64.13S128.31,41.56,122.39,45.46Z"/><path fill="#5b7895" d="M170.06,43.12c-1.76-3.55-3.75-4.63-5.52-4.62a8.94,8.94,0,0,0-1.75-4.08c-2.66-3.38-3-8.64.6-11.36a9.37,9.37,0,0,0-6,10.24c.1.77.16,1.56.22,2.35a2,2,0,0,0-1.93-.21c-.35-1.52-1.11-2.34-2.55-3.56-2.76-2.32-6.65-6.14-6.65-6.14,2.65,5.2,2.6,7.56,3.1,11.38h0a8.11,8.11,0,0,0-3.52-.16c-5.35.64-6.6,3.79-6.78,4.33a2.4,2.4,0,0,1,1-1h0a11.87,11.87,0,0,1,5.34-.84c3.42.13,3.17,3,5.92,5.71a13.38,13.38,0,0,0,3.15,2.34h-4.9v2h1.84l2.59,10h7.45l2.59-10h1.84v-2h-3.15a19.76,19.76,0,0,0,1.39-3.88A5.43,5.43,0,0,1,165,43c.1.11.2.22.3.35a16,16,0,0,0,9,5.45S172.74,48.54,170.06,43.12Z" opacity=".55"/><polygon points="140.8 58.62 136.26 63.29 136.26 58.81 132.19 63.45 132.19 82.83 174.94 82.83 180.38 77.82 177.99 77.82 181.43 74.77 140.8 58.62" style="mix-blend-mode:multiply" fill="#5b7895" opacity=".55"/><path fill="#04fa98" d="M169.16,16.63A10.44,10.44,0,0,0,162.5,28c1.05,8.83-.46,19.58-.46,19.58h4.39s7.84-10.48,2.06-18.33S169.16,16.63,169.16,16.63Z"/><path d="M166.93,20.15a8.29,8.29,0,0,1,2.41-3.28.29.29,0,0,0,.09-.37.31.31,0,0,0-.36-.15,10.8,10.8,0,0,0-6.87,11.72c1,8.68-.44,19.4-.46,19.5a.3.3,0,0,0,.07.24.29.29,0,0,0,.23.1h4.39a.29.29,0,0,0,.24-.12,25.39,25.39,0,0,0,3.24-6.3c1.65-4.81,1.24-9.09-1.18-12.39S165.81,22.93,166.93,20.15Zm-.65,27.17h-3.91c.25-1.91,1.36-11.43.42-19.32a10,10,0,0,1,2.84-8.75,10.93,10.93,0,0,1,2.13-1.61c-1.59,2-3.68,6.13.49,11.82C173.5,36.6,167.11,46.14,166.28,47.32Z"/><path fill="#04fa98" d="M168.55,17.18c-1.4,1.15-5.49,5.33-1.09,12.25,5.23,8.22-3.29,18.16-3.29,18.16l-2.11-.14a.91.91,0,0,0,0,.16h4.39s7.84-10.48,2.06-18.33C163.86,23,167.09,18.65,168.55,17.18Z"/><path d="M168.76,17.39a.3.3,0,0,0,0-.41.31.31,0,0,0-.41,0c-1.41,1.16-5.69,5.51-1.15,12.64,4.76,7.47-2.27,16.57-3.17,17.69l-2-.13a.3.3,0,0,0-.32.26l0,.16a.29.29,0,0,0,.3.34h4.39a.29.29,0,0,0,.24-.12,25.39,25.39,0,0,0,3.24-6.3c1.65-4.81,1.24-9.09-1.18-12.39C164.28,23,167.27,18.89,168.76,17.39Zm-2.48,29.93h-1.51a25.87,25.87,0,0,0,3.28-5.61c2-4.69,1.86-9-.33-12.44a10.7,10.7,0,0,1-1.93-5.94,11.38,11.38,0,0,0,2.46,6.13C173.5,36.6,167.11,46.14,166.28,47.32Z"/><path fill="#04fa98" d="M160.72,37.85c.41-7.83.09-8.81-3-11.4s-7.39-6.83-7.39-6.83c3,5.78,2.89,8.41,3.44,12.67.43,3.3,5.43,9.89,7.65,12.69C161,43.84,160.51,41.74,160.72,37.85Z"/><path d="M161,37.87c.41-7.85.12-8.94-3.08-11.64-3-2.55-7.34-6.78-7.38-6.83a.29.29,0,0,0-.38,0,.28.28,0,0,0-.09.37,26.78,26.78,0,0,1,3.2,10.89c.07.54.13,1.1.21,1.69.44,3.39,5.54,10.1,7.71,12.83a.3.3,0,0,0,.23.11.29.29,0,0,0,.16,0,.31.31,0,0,0,.12-.37C161.28,43.86,160.81,41.83,161,37.87Zm-6.93-5.62c-.08-.59-.14-1.14-.21-1.68A26.6,26.6,0,0,0,151.36,21c1.51,1.45,4.14,3.95,6.19,5.67,2.94,2.48,3.29,3.26,2.87,11.16a23.36,23.36,0,0,0,.27,5.7C158.29,40.41,154.45,35.06,154.09,32.25Z"/><path fill="#fff" d="M154.8,26.08c3.49,4.1,4.29,11.27,4.3,11.34l.2,0c0-.07-.81-7.3-4.35-11.45Z"/><path fill="url(#d)" d="M162.5,46.27s-.42-.49-1.06-1.29C161.94,46.12,162.5,46.27,162.5,46.27Z"/><path fill="#04fa98" d="M159.23,34.21A13.83,13.83,0,0,0,161,45.09h3.21a14.07,14.07,0,0,1,1.22-6.57,2.07,2.07,0,0,1,.19-.32c-.45-.21-.95-.43-1.51-.64C158.13,35.3,160.76,27.7,159.23,34.21Z"/><path d="M165.7,37.93c-.48-.22-1-.44-1.54-.65a6.31,6.31,0,0,1-4-5.4c0-.29-.07-.55-.35-.55s-.3.14-.45.86c-.09.42-.22,1.05-.43,2a14,14,0,0,0,1.77,11.13.33.33,0,0,0,.24.12h3.21a.27.27,0,0,0,.21-.09.29.29,0,0,0,.09-.21,13.75,13.75,0,0,1,1.19-6.44,1.23,1.23,0,0,1,.17-.28.31.31,0,0,0,0-.25A.28.28,0,0,0,165.7,37.93Zm-.59.46a13.89,13.89,0,0,0-1.25,6.4h-2.75a13.77,13.77,0,0,1-1.59-10.51c.11-.49.2-.9.28-1.24a6.54,6.54,0,0,0,4.15,4.8c.42.16.82.32,1.19.49Z"/><path fill="#04fa98" d="M167.55,35.85c-3.26,1.63-2.32,8.65-2.32,8.65l3.07,1.09a7.64,7.64,0,0,1,1.53-5.69c2.08-2.5,3.45-1.54,3.45-1.54S170.81,34.21,167.55,35.85Z"/><path d="M169.09,35.17a3.74,3.74,0,0,0-1.67.41c-3.41,1.71-2.52,8.66-2.48,9a.3.3,0,0,0,.19.24l3.07,1.09.1,0a.34.34,0,0,0,.19-.07.3.3,0,0,0,.1-.28,7.4,7.4,0,0,1,1.47-5.45c1.11-1.33,2-1.61,2.5-1.61a.93.93,0,0,1,.55.13.32.32,0,0,0,.38,0,.3.3,0,0,0,0-.37C173.47,38.08,171.7,35.17,169.09,35.17Zm3.47,2.71c-.65,0-1.7.32-3,1.83A7.76,7.76,0,0,0,168,45.15l-2.44-.87c-.12-1.09-.58-6.79,2.18-8.17a3.12,3.12,0,0,1,1.4-.35c1.57,0,2.85,1.31,3.49,2.12Z"/><path fill="#04fa98" d="M151.92,32.53a12.21,12.21,0,0,0-8.53,3.28,13.07,13.07,0,0,1,5.94-.94c3.81.14,3.54,3.35,6.6,6.35s5.61,3.43,5.61,3.43-4-5.82-7-9.78C154,34.18,154.5,32.53,151.92,32.53Z"/><path d="M154.75,34.69a1.89,1.89,0,0,1-.22-.6c-.21-.78-.49-1.85-2.61-1.85a12.49,12.49,0,0,0-8.75,3.36.3.3,0,0,0,0,.38.29.29,0,0,0,.37.09,13,13,0,0,1,5.8-.9c2.24.08,3,1.29,4,3a15.23,15.23,0,0,0,2.45,3.31c3.09,3,5.67,3.49,5.77,3.51h0a.31.31,0,0,0,.26-.14.3.3,0,0,0,0-.33C161.75,44.42,157.69,38.61,154.75,34.69ZM156.14,41a14.39,14.39,0,0,1-2.36-3.19c-1-1.69-1.87-3.15-4.44-3.25h-.68a15.6,15.6,0,0,0-3.81.44,12.44,12.44,0,0,1,7.07-2.17c1.66,0,1.84.68,2,1.41a2.31,2.31,0,0,0,.33.81c2.33,3.11,5.36,7.41,6.53,9.08A13.6,13.6,0,0,1,156.14,41Z"/><path fill="#faf8fb" d="M142.33,36.92l0,.1Z"/><path fill="#04fa98" d="M156.36,36c-1-1.36,0-4.71-6.48-3.94-5.95.72-7.35,4.22-7.55,4.82.15-.38,1.1-2,6.84-3.26,6.6-1.48,3.11,1.91,6.09,4.06a24.33,24.33,0,0,1,5.42,6.15s1.69,2.81,1.3.47S157.38,37.4,156.36,36Z"/><path d="M157.57,37.07c-.41-.5-.76-.93-1-1.21a3.5,3.5,0,0,1-.45-1.1c-.38-1.3-.9-3.07-4.5-3.07a14.94,14.94,0,0,0-1.8.12c-6.09.73-7.57,4.31-7.8,5a.31.31,0,0,0,.18.38.31.31,0,0,0,.38-.18c.11-.29,1-1.8,6.63-3.08a12,12,0,0,1,2.51-.35c1.4,0,1.51.55,1.72,1.54A4,4,0,0,0,155.09,38,24.07,24.07,0,0,1,160.42,44c.62,1,1.11,1.54,1.46,1.54a.39.39,0,0,0,.31-.15c.16-.18.18-.51.08-1.13C162,42.36,159.21,39.05,157.57,37.07Zm3.36,6.65a24.46,24.46,0,0,0-5.5-6.25A3.5,3.5,0,0,1,154.05,35c-.2-1-.41-2-2.3-2a12.51,12.51,0,0,0-2.64.37,19.44,19.44,0,0,0-5.46,1.91c1-1.14,2.86-2.47,6.27-2.88a13.73,13.73,0,0,1,1.73-.11c3.15,0,3.55,1.34,3.93,2.64a4,4,0,0,0,.54,1.29c.22.29.56.7,1,1.23,1.59,1.93,4.26,5.17,4.56,6.94a3.25,3.25,0,0,1,0,.44A7.71,7.71,0,0,1,160.93,43.72Z"/><path fill="#04fa98" d="M176.58,39c-3-6-6.59-5.64-9-4.32-3.4,1.87-2.84,9.7-2.84,9.7l.48.16s.08-1.52.34-4.13,1.55-6.32,5.71-1.17a17.71,17.71,0,0,0,10.05,6.07S179.57,45,176.58,39Z"/><path d="M181.39,45s-1.72-.44-4.54-6.15c-1.74-3.52-3.88-5.3-6.38-5.3a6.19,6.19,0,0,0-3,.85c-3.53,1.94-3,9.65-3,10a.29.29,0,0,0,.2.26l.49.16a.3.3,0,0,0,.26,0,.28.28,0,0,0,.13-.23s.08-1.54.34-4.11c.08-.82.46-3.49,1.91-3.49.58,0,1.62.43,3.27,2.47a18,18,0,0,0,10.24,6.19h0a.29.29,0,0,0,.29-.24A.3.3,0,0,0,181.39,45Zm-9.88-6c-1.46-1.81-2.68-2.69-3.73-2.69-1.9,0-2.38,2.81-2.5,4s-.22,2.31-.27,3c0-2.11.21-7.08,2.72-8.46a5.76,5.76,0,0,1,2.74-.77c2.25,0,4.22,1.67,5.85,5a21.23,21.23,0,0,0,3.54,5.49A17.67,17.67,0,0,1,171.51,39Z"/><path fill="#fff" d="M176.09,40.26A16.9,16.9,0,0,0,174,36.94a5.19,5.19,0,0,0-3.22-2.18,1.72,1.72,0,0,0-1.27.33l.13.15a1.6,1.6,0,0,1,1.13-.28c.65.06,1.72.47,3.07,2.11a16.28,16.28,0,0,1,2.1,3.28A7.86,7.86,0,0,0,179.09,44l.11-.16A7.65,7.65,0,0,1,176.09,40.26Z"/><path fill="#04fa98" d="M168.69,31.44a2.58,2.58,0,0,0-2.62-.26,3.15,3.15,0,0,1-2.83-.25c-3.14-1.89-3.38.7-3.38.7l.08.7a0,0,0,0,1,0,0,6.44,6.44,0,0,0,4.11,5.2c.56.22,5.49,2.34,5.49,2.34C168.89,37.21,170.61,32.85,168.69,31.44Z"/><path d="M168.87,31.2a2.9,2.9,0,0,0-2.92-.29,2.88,2.88,0,0,1-2.56-.24,4.33,4.33,0,0,0-2.1-.73,1.75,1.75,0,0,0-1.73,1.66v.07l.09.7v0h0a6.72,6.72,0,0,0,4.3,5.43c.55.21,5.44,2.31,5.49,2.33a.2.2,0,0,0,.11,0,.37.37,0,0,0,.2-.07.31.31,0,0,0,.09-.3,12.17,12.17,0,0,1,0-3.63C170,34.12,170.16,32.15,168.87,31.2Zm.35,4.95a14.84,14.84,0,0,0-.06,3.25c-1.29-.55-4.54-1.94-5-2.12a6.13,6.13,0,0,1-3.92-5,.13.13,0,0,0,0-.06l-.07-.63a1.16,1.16,0,0,1,1.13-1.09,3.67,3.67,0,0,1,1.79.64,3.52,3.52,0,0,0,3.1.28,2.3,2.3,0,0,1,2.34.22C169.54,32.43,169.38,34.24,169.22,36.15Z"/><polygon fill="#fff" points="158.91 57.12 167.21 57.12 170.66 43.83 155.46 43.83 158.91 57.12"/><path d="M170.66,43.54h-15.2a.3.3,0,0,0-.24.11.28.28,0,0,0-.05.26l3.45,13.28a.29.29,0,0,0,.28.22h8.31a.29.29,0,0,0,.28-.22l3.45-13.28a.28.28,0,0,0-.05-.26A.3.3,0,0,0,170.66,43.54ZM167,56.82h-7.85l-3.29-12.69h14.43Z"/><rect width="18.16" height="2.18" x="153.97" y="43.83" fill="#fff"/><path d="M172.14,43.54H154a.29.29,0,0,0-.29.29V46a.29.29,0,0,0,.29.29h18.17a.29.29,0,0,0,.29-.29V43.83A.29.29,0,0,0,172.14,43.54Zm-.3,2.18H154.27V44.13h17.57Z"/><path fill="#fff" d="M165.28,32.06a18.7,18.7,0,0,1,3.44,6.64l.19-.06a18.78,18.78,0,0,0-3.49-6.71Z"/><rect width="38.39" height="13.32" x="142.86" y="61.24" fill="#fff"/><path d="M181.25,60.94H142.86a.3.3,0,0,0-.3.3V74.56a.31.31,0,0,0,.3.3h38.39a.3.3,0,0,0,.3-.3V61.24A.29.29,0,0,0,181.25,60.94ZM181,74.26h-37.8V61.54H181Z"/><rect width="34.45" height="9.63" x="144.83" y="63.09" fill="#fff"/><path d="M179.28,62.79H144.83a.3.3,0,0,0-.3.3v9.62a.31.31,0,0,0,.3.3h34.45a.3.3,0,0,0,.3-.3V63.09A.29.29,0,0,0,179.28,62.79ZM179,72.41H145.13v-9H179Z"/><polygon points="142.81 65.03 176.99 65.03 181.3 61.35 142.81 61.35 142.81 65.03" style="mix-blend-mode:multiply" fill="#5b7895" opacity=".55"/><rect width="42.51" height="4.06" x="140.8" y="57.18" fill="#fff"/><path d="M183.31,56.88H140.8a.3.3,0,0,0-.3.3v4.06a.31.31,0,0,0,.3.3h42.51a.3.3,0,0,0,.3-.3V57.18A.29.29,0,0,0,183.31,56.88ZM183,60.94H141.1V57.48H183Z"/><path d="M161.69,67.3A1.35,1.35,0,1,0,163,68.65,1.35,1.35,0,0,0,161.69,67.3Z" style="mix-blend-mode:multiply" fill="#5b7895" opacity=".55"/><path fill="#fff" d="M162.39,66.6A1.35,1.35,0,1,0,163.74,68,1.36,1.36,0,0,0,162.39,66.6Z"/><path d="M162.39,66.3A1.65,1.65,0,1,0,164,68,1.64,1.64,0,0,0,162.39,66.3Zm0,2.7a1.05,1.05,0,1,1,1.06-1A1,1,0,0,1,162.39,69Z"/></g></svg>