<svg xmlns="http://www.w3.org/2000/svg" viewBox="0 0 200 150"><g data-name="Layer 1"><rect width="39.65" height="82.91" x="115.18" y="29.19" fill="#00162c" rx="3.72"/><path fill="#00162c" d="M151.11,29H118.9a4,4,0,0,0-4,4v75.46a4,4,0,0,0,4,4h32.21a4,4,0,0,0,4-4V32.92A4,4,0,0,0,151.11,29Zm3.49,79.42a3.49,3.49,0,0,1-3.49,3.49H118.9a3.49,3.49,0,0,1-3.49-3.49V32.92a3.49,3.49,0,0,1,3.49-3.49h32.21a3.49,3.49,0,0,1,3.49,3.49Z"/><path fill="#3700ff" d="M150.51,29.19h-31a4.32,4.32,0,0,0-4.32,4.33v.08h39.65v-.08A4.32,4.32,0,0,0,150.51,29.19Z"/><path fill="#00162c" d="M150.51,29h-31A4.56,4.56,0,0,0,115,33.52v.08a.23.23,0,0,0,.23.24h39.65a.24.24,0,0,0,.24-.24v-.08A4.56,4.56,0,0,0,150.51,29Zm-35.09,4.41a4.08,4.08,0,0,1,4.08-3.94h31a4.09,4.09,0,0,1,4.09,3.94Z"/><polygon fill="#04fa98" points="132.22 43.13 134.98 39.59 129.46 39.59 132.22 43.13"/><path fill="#0e0e27" d="M135,39.35h-5.52a.24.24,0,0,0-.21.14.21.21,0,0,0,0,.24L132,43.28a.24.24,0,0,0,.18.09.28.28,0,0,0,.19-.09l2.76-3.55a.23.23,0,0,0,0-.24A.24.24,0,0,0,135,39.35Zm-2.76,3.4-2.28-2.93h4.56Z"/><polygon fill="#04fa98" points="138.31 43.13 141.07 39.59 135.56 39.59 138.31 43.13"/><path fill="#0e0e27" d="M141.08,39.35h-5.52a.24.24,0,0,0-.19.38l2.76,3.55a.26.26,0,0,0,.19.09.24.24,0,0,0,.18-.09l2.76-3.55a.24.24,0,0,0-.18-.38Zm-2.76,3.4L136,39.82h4.57Z"/><path fill="#fff" d="M142.16,39.52a.23.23,0,0,0-.31-.11.25.25,0,0,0-.11.32l1.72,3.47a.23.23,0,0,0,.21.13l.1,0a.25.25,0,0,0,.11-.32Z"/><path fill="#fff" d="M144.44,39.52a.23.23,0,0,0-.31-.11.24.24,0,0,0-.1.32l1.71,3.47a.23.23,0,0,0,.21.13l.1,0a.25.25,0,0,0,.11-.32Z"/><rect width=".58" height=".57" x="147.2" y="40.02" fill="#fff"/><rect width=".58" height=".57" x="147.2" y="41.51" fill="#fff"/><rect width="1.23" height=".47" x="148.8" y="40.92" fill="#fff"/><path fill="#fff" d="M151.43,40.48a.65.65,0,1,0,.65.65A.65.65,0,0,0,151.43,40.48Z"/><path fill="#fff" d="M151.43,40.25a.89.89,0,1,0,.88.88A.88.88,0,0,0,151.43,40.25Zm0,1.3a.42.42,0,0,1-.42-.42.42.42,0,0,1,.84,0A.42.42,0,0,1,151.43,41.55Z"/><polygon fill="#04fa98" points="146.56 84.13 152.08 84.13 149.32 80.58 146.56 84.13"/><path fill="#0e0e27" d="M149.5,80.44a.24.24,0,0,0-.36,0L146.38,84a.23.23,0,0,0,.18.38h5.53a.23.23,0,0,0,.24-.23.23.23,0,0,0-.1-.19ZM147,83.89,149.32,81l2.28,2.92Z"/><polygon fill="#04fa98" points="140.47 84.13 145.99 84.13 143.23 80.58 140.47 84.13"/><path fill="#0e0e27" d="M143.41,80.44a.25.25,0,0,0-.37,0L140.28,84a.25.25,0,0,0,0,.25.23.23,0,0,0,.21.13H146a.23.23,0,0,0,.23-.23.25.25,0,0,0-.09-.19Zm-2.47,3.45L143.23,81l2.28,2.92Z"/><path fill="#fff" d="M138.08,80.52a.22.22,0,0,0-.31-.11.23.23,0,0,0-.1.31l1.71,3.48a.23.23,0,0,0,.21.13.19.19,0,0,0,.1,0,.23.23,0,0,0,.11-.31Z"/><path fill="#fff" d="M135.8,80.52a.22.22,0,0,0-.31-.11.25.25,0,0,0-.11.31l1.72,3.48a.23.23,0,0,0,.21.13.19.19,0,0,0,.1,0,.23.23,0,0,0,.11-.31Z"/><rect width=".58" height=".57" x="133.76" y="83.12" fill="#fff"/><rect width=".58" height=".57" x="133.76" y="81.63" fill="#fff"/><rect width="2.97" height=".47" x="129.77" y="82.32" fill="#fff"/><rect width="8.13" height=".62" x="118.15" y="38.43" fill="#fff"/><rect width="8.13" height=".62" x="118.15" y="41.39" fill="#fff"/><rect width="8.13" height=".62" x="118.15" y="44.34" fill="#fff"/><path fill="#fff" d="M133.86,93.79a.23.23,0,0,0-.42.21l1.72,3.47a.22.22,0,0,0,.21.13.2.2,0,0,0,.1,0,.23.23,0,0,0,.1-.31Z"/><path fill="#fff" d="M136.14,93.79a.23.23,0,0,0-.31-.1.23.23,0,0,0-.11.31l1.72,3.47a.22.22,0,0,0,.21.13.18.18,0,0,0,.1,0,.23.23,0,0,0,.1-.31Z"/><rect width=".58" height=".57" x="138.9" y="94.3" fill="#fff"/><rect width=".58" height=".58" x="138.9" y="95.78" fill="#fff"/><rect width="4.18" height=".47" x="140.5" y="95.2" fill="#fff"/><path fill="#fff" d="M147.19,94.76a.65.65,0,1,0,.65.65A.65.65,0,0,0,147.19,94.76Z"/><path fill="#fff" d="M147.19,94.52a.89.89,0,1,0,0,1.77.89.89,0,0,0,0-1.77Zm0,1.3a.41.41,0,0,1-.42-.41.42.42,0,0,1,.84,0A.41.41,0,0,1,147.19,95.82Z"/><rect width="8.13" height=".62" x="118.15" y="92.71" fill="#fff"/><rect width="8.13" height=".62" x="118.15" y="95.66" fill="#fff"/><rect width="8.13" height=".62" x="118.15" y="98.61" fill="#fff"/><rect width="8.13" height=".62" x="118.15" y="51.24" fill="#fff"/><rect width="8.13" height=".62" x="118.15" y="54.2" fill="#fff"/><rect width="8.13" height=".62" x="118.15" y="57.15" fill="#fff"/><rect width="4.88" height=".62" x="128.63" y="51.24" fill="#04fa98"/><rect width="4.88" height=".62" x="128.63" y="54.2" fill="#04fa98"/><rect width="8.13" height=".62" x="118.15" y="65.46" fill="#3700ff"/><rect width="8.13" height=".62" x="118.15" y="68.42" fill="#3700ff"/><rect width="8.13" height=".62" x="118.15" y="71.37" fill="#3700ff"/><rect width="8.13" height=".62" x="118.15" y="79.13" fill="#04fa98"/><rect width="8.13" height=".62" x="118.15" y="82.08" fill="#04fa98"/><rect width="8.13" height=".62" x="118.15" y="85.04" fill="#04fa98"/><rect width="4.88" height=".62" x="128.63" y="65.46" fill="#04fa98"/><rect width="4.88" height=".62" x="128.63" y="68.42" fill="#04fa98"/><rect width="25.71" height=".47" x="121.01" y="106.08" fill="#fff"/><rect width="65.44" height="31.31" x="45.17" y="19.89" fill="#00162c" rx="3.72"/><path fill="#00162c" d="M106.88,19.65h-58a4,4,0,0,0-4,4V47.48a4,4,0,0,0,4,4h58a4,4,0,0,0,4-4V23.61A4,4,0,0,0,106.88,19.65Zm3.49,27.83A3.49,3.49,0,0,1,106.88,51h-58a3.5,3.5,0,0,1-3.49-3.49V23.61a3.49,3.49,0,0,1,3.49-3.49h58a3.49,3.49,0,0,1,3.49,3.49Z"/><rect width=".47" height="20.59" x="52.99" y="23.99" fill="#fff"/><rect width="6.89" height=".62" x="57.4" y="25.03" fill="#3700ff"/><rect width="6.89" height=".62" x="57.4" y="27.53" fill="#3700ff"/><rect width="6.89" height=".62" x="57.4" y="30.03" fill="#3700ff"/><rect width="4.13" height=".62" x="66.27" y="25.03" fill="#04fa98"/><rect width="4.13" height=".62" x="66.27" y="27.53" fill="#04fa98"/><rect width="6.89" height=".47" x="57.4" y="35.64" fill="#fff"/><rect width="6.89" height=".47" x="57.4" y="38.15" fill="#fff"/><rect width="6.89" height=".47" x="57.4" y="40.65" fill="#fff"/><rect width="4.13" height=".47" x="66.27" y="35.64" fill="#fff"/><rect width="4.13" height=".47" x="66.27" y="38.15" fill="#fff"/><polygon fill="#04fa98" points="100.98 28.12 105.65 28.12 103.31 25.12 100.98 28.12"/><path fill="#0e0e27" d="M103.5,25a.24.24,0,0,0-.37,0l-2.34,3a.25.25,0,0,0,0,.25.22.22,0,0,0,.21.13h4.68a.24.24,0,0,0,.24-.24.26.26,0,0,0-.1-.19Zm-2,2.91,1.86-2.39,1.86,2.39Z"/><polygon fill="#04fa98" points="95.81 28.12 100.49 28.12 98.15 25.12 95.81 28.12"/><path fill="#0e0e27" d="M98.34,25A.24.24,0,0,0,98,25l-2.34,3a.23.23,0,0,0,0,.25.23.23,0,0,0,.21.13h4.69a.23.23,0,0,0,.23-.24.25.25,0,0,0-.09-.19Zm-2,2.91,1.86-2.39L100,27.89Z"/><path fill="#fff" d="M93.83,25.05a.24.24,0,0,0-.32-.11.23.23,0,0,0-.1.31l1.45,2.95a.23.23,0,0,0,.21.13.19.19,0,0,0,.1,0,.23.23,0,0,0,.11-.31Z"/><path fill="#fff" d="M91.89,25.05a.22.22,0,0,0-.31-.11.24.24,0,0,0-.11.31l1.46,2.95a.23.23,0,0,0,.21.13.19.19,0,0,0,.1,0,.23.23,0,0,0,.1-.31Z"/><rect width=".49" height=".49" x="90.13" y="27.27" fill="#fff"/><rect width=".49" height=".49" x="90.13" y="26.01" fill="#fff"/><rect width="5.28" height=".47" x="83.99" y="26.56" fill="#fff"/><path fill="#fff" d="M81.92,25.94a.84.84,0,1,0,0,1.67.84.84,0,0,0,0-1.67Z"/><polygon fill="#04fa98" points="83.42 34.05 85.76 31.04 81.08 31.04 83.42 34.05"/><path fill="#0e0e27" d="M85.76,30.81H81.08a.23.23,0,0,0-.21.13.25.25,0,0,0,0,.25l2.34,3a.21.21,0,0,0,.18.09.25.25,0,0,0,.19-.09l2.33-3a.23.23,0,0,0,0-.25A.23.23,0,0,0,85.76,30.81Zm-2.34,2.86-1.86-2.39h3.72Z"/><polygon fill="#04fa98" points="88.58 34.05 90.92 31.04 86.25 31.04 88.58 34.05"/><path fill="#0e0e27" d="M90.92,30.81H86.25a.23.23,0,0,0-.21.13.25.25,0,0,0,0,.25l2.34,3a.23.23,0,0,0,.19.09.21.21,0,0,0,.18-.09l2.34-3a.25.25,0,0,0,0-.25A.23.23,0,0,0,90.92,30.81Zm-2.33,2.86-1.86-2.39h3.72Z"/><path fill="#fff" d="M91.88,31a.23.23,0,1,0-.42.21l1.45,2.94a.23.23,0,0,0,.21.13.17.17,0,0,0,.1,0,.22.22,0,0,0,.11-.31Z"/><path fill="#fff" d="M93.81,31a.23.23,0,1,0-.42.21l1.45,2.94a.24.24,0,0,0,.21.13.24.24,0,0,0,.21-.34Z"/><rect width=".49" height=".49" x="96.12" y="31.41" fill="#fff"/><rect width=".49" height=".49" x="96.12" y="32.67" fill="#fff"/><rect width="5.28" height=".47" x="97.47" y="32.14" fill="#fff"/><path fill="#fff" d="M104.82,31.56a.84.84,0,0,0-.84.83.85.85,0,0,0,.84.84.84.84,0,0,0,.83-.84A.83.83,0,0,0,104.82,31.56Z"/><rect width="22.71" height="4.21" x="83.41" y="42.35" fill="#3700ff" rx=".65"/><path fill="#00162c" d="M105.46,42.11H84.06a.89.89,0,0,0-.89.89v2.9a.89.89,0,0,0,.89.89h21.4a.89.89,0,0,0,.89-.89V43A.89.89,0,0,0,105.46,42.11Zm.42,3.79a.42.42,0,0,1-.42.42H84.06a.42.42,0,0,1-.42-.42V43a.42.42,0,0,1,.42-.42h21.4a.42.42,0,0,1,.42.42Z"/><rect width="11.75" height=".47" x="86.77" y="44.22" fill="#fff"/><polygon fill="#fff" points="102.32 45.39 103.79 43.51 100.85 43.51 102.32 45.39"/><rect width="54.61" height="49.27" x="55.74" y="60.88" fill="#3700ff" rx="3.72"/><path fill="#00162c" d="M106.63,60.65H59.46a4,4,0,0,0-4,4v41.82a4,4,0,0,0,4,4h47.17a4,4,0,0,0,4-4V64.61A4,4,0,0,0,106.63,60.65Zm3.49,45.78a3.5,3.5,0,0,1-3.49,3.49H59.46A3.5,3.5,0,0,1,56,106.43V64.61a3.49,3.49,0,0,1,3.49-3.49h47.17a3.49,3.49,0,0,1,3.49,3.49Z"/><rect width="54.61" height="49.27" x="55.74" y="60.88" fill="#3700ff" rx="3.72"/><path fill="#00162c" d="M106.63,60.65H59.46a4,4,0,0,0-4,4v41.82a4,4,0,0,0,4,4h47.17a4,4,0,0,0,4-4V64.61A4,4,0,0,0,106.63,60.65Zm3.49,45.78a3.5,3.5,0,0,1-3.49,3.49H59.46A3.5,3.5,0,0,1,56,106.43V64.61a3.49,3.49,0,0,1,3.49-3.49h47.17a3.49,3.49,0,0,1,3.49,3.49Z"/><path d="M106.63,60.88h-3.21V99.67a4.62,4.62,0,0,0,4.62,4.62h2.31V64.61A3.72,3.72,0,0,0,106.63,60.88Z" style="mix-blend-mode:multiply" fill="#5b7895"/><rect width="6.89" height=".47" x="70.08" y="65.12" fill="#fff"/><rect width="25.44" height=".47" x="70.08" y="79.44" fill="#fff"/><rect width="9.75" height=".47" x="70.08" y="83.81" fill="#fff"/><rect width="4.27" height=".47" x="84.19" y="83.81" fill="#fff"/><rect width="9.75" height=".47" x="70.08" y="97.91" fill="#fff"/><rect width="14.32" height=".47" x="70.08" y="101.88" fill="#fff"/><rect width="6.47" height=".47" x="87.75" y="101.88" fill="#fff"/><rect width="2.5" height=".47" x="70.08" y="68.73" fill="#fff"/><path fill="#fff" d="M62.79,63.84H59.47a.23.23,0,0,0-.24.23v2.22a.24.24,0,0,0,.24.24h3.32a.24.24,0,0,0,.24-.24V64.07A.23.23,0,0,0,62.79,63.84Zm-.23,2.22H59.7V64.3h2.86Z"/><path fill="#fff" d="M62.79,67.57H59.47a.23.23,0,0,0-.24.23V70a.23.23,0,0,0,.24.23h3.32A.23.23,0,0,0,63,70V67.8A.23.23,0,0,0,62.79,67.57Zm-.23,2.23H59.7V68h2.86Z"/><path fill="#fff" d="M62.79,71.3H59.47a.24.24,0,0,0-.24.24v2.22a.24.24,0,0,0,.24.24h3.32a.24.24,0,0,0,.24-.24V71.54A.24.24,0,0,0,62.79,71.3Zm-.23,2.23H59.7V71.77h2.86Z"/><path fill="#fff" d="M62.79,75H59.47a.23.23,0,0,0-.24.23V77.5a.23.23,0,0,0,.24.23h3.32A.23.23,0,0,0,63,77.5V75.27A.23.23,0,0,0,62.79,75Zm-.23,2.22H59.7V75.51h2.86Z"/><path fill="#fff" d="M62.79,78.77H59.47a.24.24,0,0,0-.24.24v2.22a.24.24,0,0,0,.24.24h3.32a.24.24,0,0,0,.24-.24V79A.24.24,0,0,0,62.79,78.77ZM62.56,81H59.7V79.24h2.86Z"/><path fill="#fff" d="M62.79,82.51H59.47a.23.23,0,0,0-.24.23V85a.23.23,0,0,0,.24.23h3.32A.23.23,0,0,0,63,85V82.74A.23.23,0,0,0,62.79,82.51Zm-.23,2.22H59.7V83h2.86Z"/><path fill="#fff" d="M62.79,86.24H59.47a.24.24,0,0,0-.24.23V88.7a.23.23,0,0,0,.24.23h3.32A.23.23,0,0,0,63,88.7V86.47A.24.24,0,0,0,62.79,86.24Zm-.23,2.23H59.7V86.71h2.86Z"/><path fill="#fff" d="M62.79,90H59.47a.23.23,0,0,0-.24.23v2.22a.24.24,0,0,0,.24.24h3.32a.24.24,0,0,0,.24-.24V90.21A.23.23,0,0,0,62.79,90Zm-.23,2.22H59.7V90.44h2.86Z"/><path fill="#fff" d="M62.79,93.71H59.47a.23.23,0,0,0-.24.23v2.23a.23.23,0,0,0,.24.23h3.32a.23.23,0,0,0,.24-.23V93.94A.23.23,0,0,0,62.79,93.71Zm-.23,2.23H59.7V94.18h2.86Z"/><path fill="#fff" d="M62.79,97.44H59.47a.24.24,0,0,0-.24.24V99.9a.24.24,0,0,0,.24.24h3.32A.24.24,0,0,0,63,99.9V97.68A.24.24,0,0,0,62.79,97.44Zm-.23,2.23H59.7V97.91h2.86Z"/><path fill="#fff" d="M62.79,101.18H59.47a.23.23,0,0,0-.24.23v2.23a.23.23,0,0,0,.24.23h3.32a.23.23,0,0,0,.24-.23v-2.23A.23.23,0,0,0,62.79,101.18Zm-.23,2.22H59.7v-1.75h2.86Z"/><path fill="#fff" d="M62.79,104.91H59.47a.24.24,0,0,0-.24.24v2.22a.24.24,0,0,0,.24.24h3.32a.24.24,0,0,0,.24-.24v-2.22A.24.24,0,0,0,62.79,104.91Zm-.23,2.23H59.7v-1.76h2.86Z"/><path d="M95.06,98s-1.44-5.62-6.53-1.82c0,0-1.16-3.9-8.5,2.13,0,0,.53-1.55,0-2.3a5,5,0,0,0,3.38-2c1-1.39.66-3.07-.64-3.54-.85-.3-2.25,1.46-4.31,2.45-3.84,1.83-2.71,4.41-4.52,8.32-1,2.13-1.63,5.41-2.32,8.9H91.24c0-1.55.4-3.21,1.83-3.93a29.84,29.84,0,0,0,4.05-2.37s1.29,6,4.95,6c2.62,0-.16-5.37-1.38-9.27C99.17,95.7,95.06,98,95.06,98Z" style="mix-blend-mode:multiply" fill="#5b7895"/><path fill="#fff" d="M148.82,127.13H52.37a.74.74,0,0,0-.75.75,2.23,2.23,0,0,0,2.24,2.23h93.47a2.23,2.23,0,0,0,2.24-2.23A.75.75,0,0,0,148.82,127.13Z"/><path fill="#00162c" d="M148.82,126.89H52.37a1,1,0,0,0-1,1,2.48,2.48,0,0,0,2.48,2.47h93.47a2.48,2.48,0,0,0,2.47-2.47A1,1,0,0,0,148.82,126.89Zm-1.49,3H53.86a2,2,0,0,1-2-2,.52.52,0,0,1,.52-.52h96.45a.52.52,0,0,1,.52.52A2,2,0,0,1,147.33,129.88Z"/><polygon fill="#00162c" points="141.07 125.62 140.39 127.09 145.69 127.09 145.01 125.62 141.07 125.62"/><path fill="#00162c" d="M145.23,125.52a.25.25,0,0,0-.22-.14h-3.94a.23.23,0,0,0-.21.14l-.69,1.47a.24.24,0,0,0,0,.22.23.23,0,0,0,.2.11h5.3a.23.23,0,0,0,.2-.11.24.24,0,0,0,0-.22Zm-4.48,1.33.47-1h3.65l.46,1Z"/><polygon fill="#fff" points="142.33 125.62 141.65 127.09 146.95 127.09 146.27 125.62 142.33 125.62"/><path fill="#00162c" d="M146.49,125.52a.25.25,0,0,0-.22-.14h-3.94a.23.23,0,0,0-.21.14l-.69,1.47a.24.24,0,0,0,0,.22.23.23,0,0,0,.2.11H147a.23.23,0,0,0,.2-.11.24.24,0,0,0,0-.22ZM142,126.85l.47-1h3.65l.46,1Z"/><polygon fill="#00162c" points="134.55 125.62 133.87 127.09 139.18 127.09 138.5 125.62 134.55 125.62"/><path fill="#00162c" d="M138.71,125.52a.24.24,0,0,0-.21-.14h-3.95a.24.24,0,0,0-.21.14l-.68,1.47a.22.22,0,0,0,0,.22.21.21,0,0,0,.19.11h5.31a.23.23,0,0,0,.2-.11.22.22,0,0,0,0-.22Zm-4.47,1.33.46-1h3.65l.47,1Z"/><polygon fill="#fff" points="135.81 125.62 135.13 127.09 140.44 127.09 139.76 125.62 135.81 125.62"/><path fill="#00162c" d="M140,125.52a.23.23,0,0,0-.21-.14h-3.95a.24.24,0,0,0-.21.14l-.68,1.47a.22.22,0,0,0,0,.22.21.21,0,0,0,.19.11h5.31a.23.23,0,0,0,.2-.11.22.22,0,0,0,0-.22Zm-4.47,1.33.46-1h3.65l.47,1Z"/><polygon fill="#00162c" points="128.04 125.62 127.36 127.09 132.67 127.09 131.99 125.62 128.04 125.62"/><path fill="#00162c" d="M132.2,125.52a.24.24,0,0,0-.21-.14h-4a.24.24,0,0,0-.21.14l-.68,1.47a.23.23,0,0,0,.21.33h5.31a.24.24,0,0,0,.2-.11.22.22,0,0,0,0-.22Zm-4.47,1.33.46-1h3.65l.46,1Z"/><polygon fill="#fff" points="129.3 125.62 128.62 127.09 133.93 127.09 133.25 125.62 129.3 125.62"/><path fill="#00162c" d="M133.46,125.52a.24.24,0,0,0-.21-.14H129.3a.24.24,0,0,0-.21.14l-.68,1.47a.23.23,0,0,0,.21.33h5.31a.23.23,0,0,0,.21-.33ZM129,126.85l.46-1h3.65l.46,1Z"/><polygon fill="#00162c" points="74.35 125.62 73.67 127.09 78.98 127.09 78.3 125.62 74.35 125.62"/><path fill="#00162c" d="M78.51,125.52a.25.25,0,0,0-.22-.14H74.35a.23.23,0,0,0-.21.14L73.46,127a.22.22,0,0,0,0,.22.23.23,0,0,0,.2.11H79a.21.21,0,0,0,.19-.11.22.22,0,0,0,0-.22ZM74,126.85l.47-1h3.65l.46,1Z"/><polygon fill="#fff" points="75.61 125.62 74.93 127.09 80.24 127.09 79.56 125.62 75.61 125.62"/><path fill="#00162c" d="M79.77,125.52a.24.24,0,0,0-.21-.14h-4a.23.23,0,0,0-.21.14L74.72,127a.22.22,0,0,0,0,.22.23.23,0,0,0,.2.11h5.31a.21.21,0,0,0,.19-.11.22.22,0,0,0,0-.22Zm-4.48,1.33.47-1h3.65l.46,1Z"/><polygon fill="#00162c" points="67.83 125.62 67.16 127.09 72.46 127.09 71.78 125.62 67.83 125.62"/><path fill="#00162c" d="M72,125.52a.23.23,0,0,0-.21-.14H67.84a.25.25,0,0,0-.22.14L66.94,127a.24.24,0,0,0,0,.22.23.23,0,0,0,.2.11h5.3a.23.23,0,0,0,.2-.11.22.22,0,0,0,0-.22Zm-4.47,1.33.46-1h3.65l.47,1Z"/><polygon fill="#fff" points="69.1 125.62 68.42 127.09 73.72 127.09 73.04 125.62 69.1 125.62"/><path fill="#00162c" d="M73.25,125.52a.23.23,0,0,0-.21-.14H69.1a.25.25,0,0,0-.22.14L68.2,127a.22.22,0,0,0,0,.22.23.23,0,0,0,.2.11h5.3a.23.23,0,0,0,.2-.11.22.22,0,0,0,0-.22Zm-4.47,1.33.46-1h3.65l.47,1Z"/><polygon fill="#00162c" points="61.32 125.62 60.64 127.09 65.95 127.09 65.27 125.62 61.32 125.62"/><path fill="#00162c" d="M65.48,125.52a.24.24,0,0,0-.21-.14H61.32a.24.24,0,0,0-.21.14L60.43,127a.23.23,0,0,0,.21.33H66a.24.24,0,0,0,.2-.11.22.22,0,0,0,0-.22ZM61,126.85l.46-1h3.65l.47,1Z"/><polygon fill="#fff" points="62.58 125.62 61.9 127.09 67.21 127.09 66.53 125.62 62.58 125.62"/><path fill="#00162c" d="M66.74,125.52a.24.24,0,0,0-.21-.14h-4a.24.24,0,0,0-.21.14L61.69,127a.22.22,0,0,0,0,.22.21.21,0,0,0,.19.11h5.31a.24.24,0,0,0,.2-.11.22.22,0,0,0,0-.22Zm-4.47,1.33.46-1h3.65l.46,1Z"/><polygon fill="#00162c" points="54.77 125.62 54.09 127.09 59.4 127.09 58.72 125.62 54.77 125.62"/><path fill="#00162c" d="M58.93,125.52a.24.24,0,0,0-.21-.14H54.77a.24.24,0,0,0-.21.14L53.88,127a.22.22,0,0,0,0,.22.24.24,0,0,0,.2.11H59.4a.21.21,0,0,0,.19-.11.22.22,0,0,0,0-.22Zm-4.47,1.33.46-1h3.65l.46,1Z"/><polygon fill="#fff" points="56.03 125.62 55.35 127.09 60.66 127.09 59.98 125.62 56.03 125.62"/><path fill="#00162c" d="M60.19,125.52a.24.24,0,0,0-.21-.14H56a.24.24,0,0,0-.21.14L55.14,127a.22.22,0,0,0,0,.22.24.24,0,0,0,.2.11h5.31a.23.23,0,0,0,.21-.33Zm-4.47,1.33.46-1h3.65l.46,1Z"/><polygon fill="#00162c" points="120.69 125.62 120.15 127.09 124.37 127.09 123.83 125.62 120.69 125.62"/><path fill="#00162c" d="M124.05,125.54a.22.22,0,0,0-.22-.16h-3.14a.22.22,0,0,0-.22.16l-.54,1.47a.22.22,0,0,0,0,.21.26.26,0,0,0,.2.1h4.22a.23.23,0,0,0,.19-.1.2.2,0,0,0,0-.21Zm-3.57,1.31.37-1h2.82l.37,1Z"/><polygon fill="#fff" points="121.69 125.62 121.15 127.09 125.38 127.09 124.83 125.62 121.69 125.62"/><path fill="#00162c" d="M125.05,125.54a.22.22,0,0,0-.22-.16h-3.14a.23.23,0,0,0-.22.16l-.54,1.47a.2.2,0,0,0,0,.21.23.23,0,0,0,.19.1h4.23a.26.26,0,0,0,.19-.1.22.22,0,0,0,0-.21Zm-3.57,1.31.37-1h2.82l.37,1Z"/><polygon fill="#00162c" points="115.5 125.62 114.96 127.09 119.19 127.09 118.64 125.62 115.5 125.62"/><path fill="#00162c" d="M118.86,125.54a.22.22,0,0,0-.22-.16H115.5a.23.23,0,0,0-.22.16l-.54,1.47a.2.2,0,0,0,0,.21.23.23,0,0,0,.19.1h4.23a.24.24,0,0,0,.19-.1.26.26,0,0,0,0-.21Zm-3.56,1.31.37-1h2.81l.37,1Z"/><polygon fill="#fff" points="116.5 125.62 115.96 127.09 120.19 127.09 119.65 125.62 116.5 125.62"/><path fill="#00162c" d="M119.87,125.54a.23.23,0,0,0-.22-.16H116.5a.22.22,0,0,0-.21.16l-.55,1.47a.23.23,0,0,0,.22.31h4.23a.23.23,0,0,0,.19-.1.2.2,0,0,0,0-.21Zm-3.57,1.31.37-1h2.82l.36,1Z"/><polygon fill="#00162c" points="83.15 125.62 82.61 127.09 111.75 127.09 111.21 125.62 83.15 125.62"/><path fill="#00162c" d="M111.42,125.54a.22.22,0,0,0-.21-.16H83.15a.23.23,0,0,0-.22.16L82.39,127a.23.23,0,0,0,.22.31h29.14a.24.24,0,0,0,.19-.1.26.26,0,0,0,0-.21ZM83,126.85l.37-1H111l.37,1Z"/><polygon fill="#fff" points="84.16 125.62 83.61 127.09 112.75 127.09 112.21 125.62 84.16 125.62"/><path fill="#00162c" d="M112.43,125.54a.22.22,0,0,0-.22-.16h-28a.22.22,0,0,0-.22.16L83.39,127a.26.26,0,0,0,0,.21.24.24,0,0,0,.19.1h29.14a.23.23,0,0,0,.19-.1.2.2,0,0,0,0-.21ZM84,126.85l.37-1h27.73l.37,1Z"/><path fill="#fff" d="M86.36,112.91a29.84,29.84,0,0,0,4-2.37s1.29,5.94,5,5.94c2.62,0-.15-5.36-1.38-9.26-1.52-4.82-5.62-2.54-5.62-2.54s-1.45-5.61-6.53-1.81c0,0-1.17-3.9-8.51,2.13,0,0,.53-1.55,0-2.3a4.94,4.94,0,0,0,3.38-2c1-1.38.66-3.06-.64-3.53-.85-.31-2.25,1.46-4.31,2.45-3.84,1.83-2.71,4.41-4.52,8.32-2.37,5.12-2.76,16.86-6.49,22.17H77.15s.81-1.87,4.48-1.71,7.56-5.24,12.38-4.62c4.15.54,2.19-3.77-2.23-4.6-2.86-.54-6.27,1.33-6.6.77C84.55,118.9,83.69,114.25,86.36,112.91Z"/><path fill="#00162c" d="M86.47,113.12a33.75,33.75,0,0,0,3.8-2.19c.34,1.3,1.77,5.79,5.09,5.79a1.2,1.2,0,0,0,1.07-.49c.72-1-.23-3.59-1.24-6.28-.35-.94-.71-1.92-1-2.8-.84-2.68-2.48-3.24-3.7-3.24a5,5,0,0,0-2,.45c-.28-.79-1.26-3-3.48-3a5.55,5.55,0,0,0-3.1,1.2,2.3,2.3,0,0,0-2.11-1.12c-1.53,0-3.58,1-6.1,3a2.94,2.94,0,0,0,0-1.5,5.1,5.1,0,0,0,3.21-2,3,3,0,0,0,.51-2.56A2,2,0,0,0,76.12,97c-.57-.2-1.29.3-2.21,1a14.22,14.22,0,0,1-2.28,1.47c-2.64,1.26-3,2.89-3.52,5A17.19,17.19,0,0,1,67,107.84a43.8,43.8,0,0,0-2.33,8.94c-.93,4.75-2,10.14-4.14,13.2a.23.23,0,0,0,.19.37H77.15a.24.24,0,0,0,.21-.14c0-.07.81-1.73,4.26-1.57,1.71.08,3.46-1,5.3-2.15S91,124,93.23,124a4.73,4.73,0,0,1,.75,0,5.8,5.8,0,0,0,.7,0c1.56,0,1.81-.84,1.84-1.2.13-1.4-1.85-3.38-4.7-3.91a6.11,6.11,0,0,0-1.16-.1,14.93,14.93,0,0,0-3.83.67,7.22,7.22,0,0,1-1.37.3h-.09A7.54,7.54,0,0,1,85,115,2.88,2.88,0,0,1,86.47,113.12ZM85,120.07c.21.35.87.2,2-.1a14.21,14.21,0,0,1,3.7-.66,6.19,6.19,0,0,1,1.08.1c2.74.51,4.41,2.39,4.32,3.41-.07.68-.89.78-1.38.78a5,5,0,0,1-.64,0,7.34,7.34,0,0,0-.81,0c-2.41,0-4.52,1.32-6.56,2.59-1.77,1.11-3.44,2.14-5,2.08-3.23-.15-4.35,1.25-4.63,1.71H61.16c2-3.17,3-8.17,4-13A44.24,44.24,0,0,1,67.42,108a17.82,17.82,0,0,0,1.15-3.58c.48-2,.82-3.47,3.26-4.63a13.92,13.92,0,0,0,2.36-1.52c.76-.57,1.42-1,1.77-.92a1.6,1.6,0,0,1,1,1,2.52,2.52,0,0,1-.45,2.15,4.76,4.76,0,0,1-3.21,1.9.22.22,0,0,0-.19.13.23.23,0,0,0,0,.24c.39.53.12,1.68,0,2.08a.22.22,0,0,0,.09.27.24.24,0,0,0,.28,0c3.33-2.75,5.29-3.32,6.34-3.32a1.74,1.74,0,0,1,1.79,1.07.24.24,0,0,0,.15.16.22.22,0,0,0,.21,0A5.38,5.38,0,0,1,85,101.78c2.32,0,3.1,2.93,3.11,3a.26.26,0,0,0,.13.16.26.26,0,0,0,.21,0,4.62,4.62,0,0,1,2-.51c1.55,0,2.65,1,3.26,2.91.28.89.64,1.87,1,2.82.87,2.35,1.87,5,1.28,5.86a.75.75,0,0,1-.68.28c-3.43,0-4.71-5.7-4.72-5.76a.24.24,0,0,0-.14-.17.27.27,0,0,0-.23,0,29.43,29.43,0,0,1-4,2.35,3.37,3.37,0,0,0-1.72,2.2A8,8,0,0,0,85,120.07Z"/><path fill="#00162c" d="M77.56,107.19l.38.26a20.48,20.48,0,0,1,4-4.4l-.28-.37A20.25,20.25,0,0,0,77.56,107.19Z"/><path fill="#00162c" d="M71.64,107.15l.4.23a9.51,9.51,0,0,1,1.7-2.41l-.27-.38A8.66,8.66,0,0,0,71.64,107.15Z"/><path fill="#00162c" d="M82.41,108.12l.3.36a25.83,25.83,0,0,1,6-3.67l-.17-.43A26.16,26.16,0,0,0,82.41,108.12Z"/><path fill="#fff" d="M123.38,105.68c-2.27.29-1.52,1.49-1.52,1.49-7.08-4.5-7.66-.42-7.66-.42-5.72-2.74-6,3-6,3s-4.13-1.73-4.68,3.29c-.45,4.06-4.49,9.47-1.87,9.47,3.9,0,5.67-6.62,5.67-6.62a30.36,30.36,0,0,0,4.43,1.54c2.89.79,2.94,3,2.53,4.19-.22.61-3.92-.56-6.63.52-4.17,1.67-5.26,6.29-1.29,5,4.61-1.55,7.14,1.43,10.81,1.26s4.48,1.71,4.48,1.71H138c-3.73-5.31-5.29-16.18-8.61-20.74C126.89,105.88,125.18,105.45,123.38,105.68Z"/><path fill="#00162c" d="M133.71,119.12c-1.26-3.92-2.46-7.63-4.1-9.89-2-2.69-3.6-3.84-5.49-3.84a5.3,5.3,0,0,0-.77.06c-.95.12-1.53.41-1.75.87a1,1,0,0,0-.09.35,10.48,10.48,0,0,0-5-1.85,2.39,2.39,0,0,0-2.46,1.6,6.37,6.37,0,0,0-2.58-.64c-2.75,0-3.39,2.77-3.52,3.7a4.74,4.74,0,0,0-1.34-.2c-1.11,0-3,.49-3.37,3.78a20.54,20.54,0,0,1-1.63,5.12c-.8,1.93-1.44,3.46-1,4.2a1.06,1.06,0,0,0,.94.41c3.62,0,5.43-5.26,5.82-6.52a32.81,32.81,0,0,0,4.22,1.44,3.39,3.39,0,0,1,2.24,1.58,3,3,0,0,1,.14,2.27s-.08.06-.45.06-.64,0-1-.06c-.57,0-1.21-.09-1.9-.09a8.42,8.42,0,0,0-3.1.5c-2.61,1-4.15,3.28-3.89,4.62a1.3,1.3,0,0,0,1.43,1h0a4.1,4.1,0,0,0,1.31-.25,8,8,0,0,1,2.56-.43,12.11,12.11,0,0,1,4,.87,11.4,11.4,0,0,0,4.17.84c3.44-.16,4.23,1.5,4.26,1.57a.23.23,0,0,0,.21.14H138a.23.23,0,0,0,.19-.37C136.34,127.29,135,123.14,133.71,119.12Zm-12,10.76c-.28-.46-1.4-1.86-4.63-1.71a10.56,10.56,0,0,1-4-.82,12.53,12.53,0,0,0-4.17-.89,8.43,8.43,0,0,0-2.71.46,3.76,3.76,0,0,1-1.16.23h0c-.56,0-.89-.22-1-.64-.2-1,1.08-3.09,3.6-4.1a7.72,7.72,0,0,1,2.93-.47c.67,0,1.31,0,1.87.09s.78.06,1.08.06.77,0,.88-.35a3.47,3.47,0,0,0-.16-2.66,3.83,3.83,0,0,0-2.53-1.83,29.77,29.77,0,0,1-4.39-1.52.23.23,0,0,0-.2,0,.24.24,0,0,0-.13.15c0,.07-1.76,6.44-5.44,6.44-.41,0-.52-.15-.55-.2-.35-.53.3-2.1,1-3.77a20.82,20.82,0,0,0,1.66-5.24c.24-2.2,1.25-3.37,2.91-3.37a4.18,4.18,0,0,1,1.44.27.24.24,0,0,0,.22,0,.27.27,0,0,0,.11-.19c0-.14.24-3.56,3.09-3.56a6.3,6.3,0,0,1,2.63.71.22.22,0,0,0,.21,0,.21.21,0,0,0,.12-.17,1.89,1.89,0,0,1,2.08-1.49c1.3,0,3.06.7,5.23,2.07a.23.23,0,0,0,.29,0,.24.24,0,0,0,0-.29.62.62,0,0,1,0-.52c.1-.21.43-.49,1.39-.61a6.22,6.22,0,0,1,.71,0c1.22,0,2.78.43,5.11,3.64,1.6,2.2,2.78,5.88,4,9.76s2.54,7.88,4.33,10.62Z"/><path fill="#00162c" d="M114.1,107a20.47,20.47,0,0,1,4.8,3.53l.32-.33a20,20,0,0,0-4.92-3.62Z"/><path fill="#00162c" d="M121.72,106.8l-.19.43a8.94,8.94,0,0,1,2.13,2l.36-.3A8.65,8.65,0,0,0,121.72,106.8Z"/><path fill="#00162c" d="M107.84,110a25.73,25.73,0,0,1,6.58,2.43l.22-.41a26.16,26.16,0,0,0-6.71-2.48Z"/></g></svg>