<svg width="226" height="180" viewBox="0 0 226 180" fill="none" xmlns="http://www.w3.org/2000/svg">
<path d="M203.401 0C209.651 0 214.701 5.02734 214.701 11.25V168.75C214.701 174.973 209.651 180 203.401 180C197.15 180 192.101 174.973 192.101 168.75V11.25C192.101 5.02734 197.15 0 203.401 0ZM158.201 33.75C164.451 33.75 169.501 38.7773 169.501 45V168.75C169.501 174.973 164.451 180 158.201 180C151.95 180 146.901 174.973 146.901 168.75V45C146.901 38.7773 151.95 33.75 158.201 33.75ZM124.301 78.75V168.75C124.301 174.973 119.251 180 113.001 180C106.75 180 101.701 174.973 101.701 168.75V78.75C101.701 72.5273 106.75 67.5 113.001 67.5C119.251 67.5 124.301 72.5273 124.301 78.75ZM67.8008 101.25C74.0511 101.25 79.1008 106.277 79.1008 112.5V168.75C79.1008 174.973 74.0511 180 67.8008 180C61.5505 180 56.5008 174.973 56.5008 168.75V112.5C56.5008 106.277 61.5505 101.25 67.8008 101.25ZM33.9008 146.25V168.75C33.9008 174.973 28.8511 180 22.6008 180C16.3505 180 11.3008 174.973 11.3008 168.75V146.25C11.3008 140.027 16.3505 135 22.6008 135C28.8511 135 33.9008 140.027 33.9008 146.25Z" fill="#146FFE"/>
</svg>
