<svg xmlns="http://www.w3.org/2000/svg" viewBox="0 0 200 150"><defs><linearGradient id="a" x1="68.26" x2="102.48" y1="105.77" y2="71.55" gradientUnits="userSpaceOnUse"><stop offset="0" stop-color="#8eff99"/><stop offset=".31" stop-color="#73bfbf"/><stop offset=".63" stop-color="#5a84e1"/><stop offset=".87" stop-color="#4a60f7"/><stop offset=".99" stop-color="#4452ff"/></linearGradient><linearGradient id="b" x1="71.8" x2="68.64" y1="92.88" y2="111.74" gradientUnits="userSpaceOnUse"><stop offset="0" stop-color="#8eff99"/><stop offset=".33" stop-color="#74c2bd"/><stop offset=".78" stop-color="#5272ec"/><stop offset=".99" stop-color="#4452ff"/></linearGradient></defs><g data-name="Layer 1"><rect width="109.65" height="33.08" x="46.45" y="56.21" fill="url(#a)" rx="5.53"/><path d="M150.57,56H52a5.77,5.77,0,0,0-5.76,5.76v22A5.76,5.76,0,0,0,52,89.53h98.59a5.77,5.77,0,0,0,5.77-5.76v-22A5.78,5.78,0,0,0,150.57,56Zm5.3,27.79a5.3,5.3,0,0,1-5.3,5.29H52a5.29,5.29,0,0,1-5.29-5.29v-22A5.29,5.29,0,0,1,52,56.45h98.59a5.3,5.3,0,0,1,5.3,5.29Z"/><path d="M153.12,58.52H137a.23.23,0,0,0-.23.24V71.69a.23.23,0,0,0,.23.23h16.17a.23.23,0,0,0,.23-.23V58.76A.24.24,0,0,0,153.12,58.52Zm-.24,12.93H137.19V59h15.69Z"/><path d="M137.1,58.57a.24.24,0,0,0-.29.37L153,71.87a.25.25,0,0,0,.15,0,.24.24,0,0,0,.18-.09.24.24,0,0,0,0-.33Z"/><path d="M153,58.57,136.81,71.5a.24.24,0,0,0,0,.33.23.23,0,0,0,.18.09.3.3,0,0,0,.15,0l16.16-12.93a.24.24,0,1,0-.29-.37Z"/><path d="M153.12,73.78H137a.23.23,0,0,0-.23.23V86.94a.23.23,0,0,0,.23.24h16.17a.24.24,0,0,0,.23-.24V74A.23.23,0,0,0,153.12,73.78Zm-.24,12.93H137.19V74.25h15.69Z"/><path d="M137.1,73.83a.24.24,0,1,0-.29.37L153,87.13a.25.25,0,0,0,.15.05.24.24,0,0,0,.18-.09.24.24,0,0,0,0-.33Z"/><path d="M153,73.83,136.81,86.76a.24.24,0,0,0,0,.33.23.23,0,0,0,.18.09.3.3,0,0,0,.15-.05l16.16-12.94a.23.23,0,0,0,0-.32A.24.24,0,0,0,153,73.83Z"/><path d="M97.89,68.43H87.4a.23.23,0,0,0-.23.23v8.39a.23.23,0,0,0,.23.23H97.89a.23.23,0,0,0,.23-.23V68.66A.23.23,0,0,0,97.89,68.43Zm-.23,8.38h-10V68.89h10Z"/><path d="M87.55,68.48a.23.23,0,1,0-.29.36l10.48,8.39a.3.3,0,0,0,.15,0,.21.21,0,0,0,.18-.09.24.24,0,0,0,0-.33Z"/><path d="M97.74,68.48,87.26,76.86a.24.24,0,0,0,0,.33.24.24,0,0,0,.18.09.25.25,0,0,0,.15,0L98,68.84a.23.23,0,0,0-.3-.36Z"/><path d="M97.89,58.48H87.4a.23.23,0,0,0-.23.23V67.1a.23.23,0,0,0,.23.23H97.89a.23.23,0,0,0,.23-.23V58.71A.23.23,0,0,0,97.89,58.48Zm-.23,8.38h-10V58.94h10Z"/><path d="M87.55,58.53a.23.23,0,1,0-.29.36l10.48,8.39a.23.23,0,0,0,.15,0,.21.21,0,0,0,.18-.09.22.22,0,0,0,0-.32Z"/><path d="M97.74,58.53,87.26,66.92a.23.23,0,0,0,0,.32.24.24,0,0,0,.18.09.2.2,0,0,0,.15,0L98,58.89a.23.23,0,0,0-.3-.36Z"/><path d="M85.28,58.48H69.45a.23.23,0,0,0-.23.23v28a.23.23,0,0,0,.23.24H85.28a.24.24,0,0,0,.24-.24v-28A.23.23,0,0,0,85.28,58.48Zm-.23,28H69.69V58.94H85.05Z"/><path d="M69.66,58.6a.23.23,0,0,0-.32-.09.22.22,0,0,0-.09.32l15.83,28a.24.24,0,0,0,.2.12.27.27,0,0,0,.12,0,.24.24,0,0,0,.09-.32Z"/><path d="M85.4,58.51a.22.22,0,0,0-.32.09l-15.83,28a.23.23,0,0,0,.09.32.2.2,0,0,0,.11,0,.27.27,0,0,0,.21-.12l15.83-28A.24.24,0,0,0,85.4,58.51Z"/><path d="M67.34,58.48H49.56a.23.23,0,0,0-.23.23v28a.24.24,0,0,0,.23.24H67.34a.23.23,0,0,0,.23-.24v-28A.23.23,0,0,0,67.34,58.48Zm-.24,28H49.8V58.94H67.1Z"/><path d="M49.76,58.59a.23.23,0,0,0-.32-.08.24.24,0,0,0-.07.33l17.77,28a.23.23,0,0,0,.2.11.19.19,0,0,0,.12,0,.23.23,0,0,0,.07-.32Z"/><path d="M67.46,58.51a.23.23,0,0,0-.32.08l-17.77,28a.23.23,0,0,0,.07.32.2.2,0,0,0,.13,0,.23.23,0,0,0,.19-.11l17.77-28A.24.24,0,0,0,67.46,58.51Z"/><path d="M97.89,78.32H87.4a.23.23,0,0,0-.23.24v8.38a.23.23,0,0,0,.23.24H97.89a.23.23,0,0,0,.23-.24V78.56A.23.23,0,0,0,97.89,78.32Zm-.23,8.39h-10V78.79h10Z"/><path d="M87.55,78.37a.24.24,0,0,0-.29.37l10.48,8.39a.3.3,0,0,0,.15.05.21.21,0,0,0,.18-.09.24.24,0,0,0,0-.33Z"/><path d="M97.74,78.37,87.26,86.76a.24.24,0,0,0,0,.33.24.24,0,0,0,.18.09.25.25,0,0,0,.15-.05L98,78.74a.24.24,0,0,0-.3-.37Z"/><path d="M135.08,58.51H99.83a.23.23,0,0,0-.23.23v28.2a.23.23,0,0,0,.23.24h35.25a.24.24,0,0,0,.24-.24V58.74A.23.23,0,0,0,135.08,58.51Zm-.23,28.2H100.07V59h34.78Z"/><path d="M100,58.56a.24.24,0,0,0-.29.37l35.25,28.2a.24.24,0,0,0,.14.05.25.25,0,0,0,.19-.09.24.24,0,0,0,0-.33Z"/><path d="M134.94,58.56,99.69,86.76a.24.24,0,0,0,0,.33.24.24,0,0,0,.18.09.25.25,0,0,0,.15-.05l35.25-28.2a.23.23,0,0,0,0-.33A.23.23,0,0,0,134.94,58.56Z"/><rect width="109.65" height="33.08" x="46.45" y="19.86" fill="#04fa98" rx="5.53"/><path fill="#0e0e27" d="M150.57,19.63H52a5.77,5.77,0,0,0-5.76,5.76v22A5.76,5.76,0,0,0,52,53.18h98.59a5.77,5.77,0,0,0,5.77-5.76v-22A5.78,5.78,0,0,0,150.57,19.63Zm5.3,27.79a5.3,5.3,0,0,1-5.3,5.29H52a5.29,5.29,0,0,1-5.29-5.29v-22A5.29,5.29,0,0,1,52,20.1h98.59a5.3,5.3,0,0,1,5.3,5.29Z"/><g style="mix-blend-mode:multiply"><path fill="#5b7895" d="M64.3,25.86l.82-.47a5.58,5.58,0,0,0-.51-1.11l-.89.3a4.73,4.73,0,0,0-.43-.57,4.81,4.81,0,0,0-.5-.51l.43-.84a5.55,5.55,0,0,0-1-.66l-.59.74a4.65,4.65,0,0,0-1.36-.41l-.09-.93a6.22,6.22,0,0,0-1.22,0l-.1.92a5.62,5.62,0,0,0-1.37.39L56.91,22a6,6,0,0,0-1,.67l.4.8h0a5.13,5.13,0,0,0-.93,1.06l-.83-.28A5.85,5.85,0,0,0,54,25.37l.75.45a4.88,4.88,0,0,0-.21,1.42l-.84.21a6.32,6.32,0,0,0,.18,1.21l.85,0A5.19,5.19,0,0,0,55.32,30l-.58.61a5.85,5.85,0,0,0,.38.49,4.37,4.37,0,0,0,.42.44l.7-.48a5.2,5.2,0,0,0,1.21.78l-.16.84a6.14,6.14,0,0,0,1.18.35l.33-.79a4.9,4.9,0,0,0,1.43,0l.33.81a5.48,5.48,0,0,0,1.18-.34l-.16-.87A4.89,4.89,0,0,0,62.77,31h0l.73.52a5.81,5.81,0,0,0,.81-.92L63.71,30a5.06,5.06,0,0,0,.59-1.3l.92,0a5,5,0,0,0,.18-1.21l-.9-.23A4.79,4.79,0,0,0,64.3,25.86Zm-4.86,4.69a3.36,3.36,0,1,1,3.48-3.24A3.35,3.35,0,0,1,59.44,30.55Z"/><path fill="#5b7895" d="M102.22,36.29l1.7-1a12,12,0,0,0-1-2.32L101,33.6a11.16,11.16,0,0,0-.89-1.19,10.41,10.41,0,0,0-1-1l.9-1.77a12.19,12.19,0,0,0-2.14-1.38l-1.23,1.54a10.67,10.67,0,0,0-2.84-.85L93.55,27A12.08,12.08,0,0,0,91,27l-.2,1.92a10.81,10.81,0,0,0-2.87.82l-1.18-1.49A12.71,12.71,0,0,0,84.6,29.6l.84,1.68,0,0a10.15,10.15,0,0,0-1.94,2.22l-1.75-.6a12.28,12.28,0,0,0-1.06,2.34l1.57.93a10.37,10.37,0,0,0-.44,3l-1.74.43a12.25,12.25,0,0,0,.36,2.55l1.78-.07a10.43,10.43,0,0,0,1.24,2.75l-1.21,1.29a12.52,12.52,0,0,0,.78,1c.29.33.58.64.89.93l1.46-1a10.21,10.21,0,0,0,2.53,1.63l-.33,1.76a12.83,12.83,0,0,0,2.46.73l.69-1.66a10.47,10.47,0,0,0,3,0l.68,1.69a12.63,12.63,0,0,0,2.47-.7l-.33-1.82A10.45,10.45,0,0,0,99,47.11l0,0,1.53,1.08a11.75,11.75,0,0,0,1.69-1.92L101,44.85a10.33,10.33,0,0,0,1.23-2.71l1.93.08a11.81,11.81,0,0,0,.39-2.52l-1.9-.48A10.12,10.12,0,0,0,102.22,36.29ZM92,48.07a9,9,0,1,1,9.32-8.67A9,9,0,0,1,92,48.07Z"/><path fill="#5b7895" d="M74.58,36.75l1.09-.69a8.7,8.7,0,0,0-.74-1.5L73.71,35a5.49,5.49,0,0,0-.61-.76,7.33,7.33,0,0,0-.7-.67l.54-1.17a7.75,7.75,0,0,0-1.43-.86l-.77,1a6.61,6.61,0,0,0-1.88-.49l-.18-1.27A8.39,8.39,0,0,0,67,30.9l-.09,1.27a7,7,0,0,0-1.86.6l-.81-1a8.46,8.46,0,0,0-1.37,1l.59,1.08,0,0a6.92,6.92,0,0,0-1.22,1.5L61.08,35a8.31,8.31,0,0,0-.64,1.55l1.05.58a6.72,6.72,0,0,0-.22,2l-1.13.32a7.82,7.82,0,0,0,.3,1.66L61.6,41a7,7,0,0,0,.88,1.77l-.77.87c.17.22.35.44.54.65a8.25,8.25,0,0,0,.61.58l.93-.69a6.64,6.64,0,0,0,1.69,1l-.17,1.16a7.66,7.66,0,0,0,1.63.42l.41-1.1a6.79,6.79,0,0,0,2-.07l.49,1.09a8.31,8.31,0,0,0,1.6-.52L71.14,45a6.76,6.76,0,0,0,1.59-1.1l0,0,1,.67a7.72,7.72,0,0,0,1.07-1.29L74,42.38a6.73,6.73,0,0,0,.75-1.8H76a7.77,7.77,0,0,0,.2-1.66l-1.25-.27A7.3,7.3,0,0,0,74.58,36.75Zm-6.43,5.7A3.65,3.65,0,1,1,71.8,38.8,3.64,3.64,0,0,1,68.15,42.45Z"/><path fill="#5b7895" d="M124.67,39.35l1.39-.88a10.26,10.26,0,0,0-.94-1.91l-1.55.58a7.8,7.8,0,0,0-.78-1,8,8,0,0,0-.9-.85l.69-1.5a9.64,9.64,0,0,0-1.82-1.09l-1,1.32a8.7,8.7,0,0,0-2.39-.63l-.22-1.61a10.11,10.11,0,0,0-2.13.08l-.12,1.61a8.7,8.7,0,0,0-2.36.77l-1-1.21a10.71,10.71,0,0,0-1.74,1.22l.75,1.38,0,0a8.49,8.49,0,0,0-1.55,1.91l-1.48-.45a10.57,10.57,0,0,0-.81,2l1.33.73a8.78,8.78,0,0,0-.28,2.49l-1.44.42a10.16,10.16,0,0,0,.38,2.11l1.48-.11A8.82,8.82,0,0,0,109.24,47l-1,1.11A10.7,10.7,0,0,0,109,49c.25.27.51.52.77.75l1.19-.89a8.25,8.25,0,0,0,2.16,1.29l-.22,1.47a10,10,0,0,0,2.08.55l.52-1.41a8.46,8.46,0,0,0,2.51-.09l.62,1.39a9.34,9.34,0,0,0,2-.66l-.33-1.5a8.81,8.81,0,0,0,2-1.4l0,0,1.32.86A10,10,0,0,0,125,47.66l-1.12-1.12a8.67,8.67,0,0,0,1-2.3h1.61a10.15,10.15,0,0,0,.25-2.12l-1.6-.34A8.46,8.46,0,0,0,124.67,39.35Zm-8.19,7.27A4.65,4.65,0,1,1,121.13,42,4.65,4.65,0,0,1,116.48,46.62Z"/><path fill="#5b7895" d="M61.44,48.33a18.89,18.89,0,0,0-1.74-2.18,20.13,20.13,0,0,0-2-1.9l1.56-3.37a22.57,22.57,0,0,0-4.1-2.45l-2.22,3A19.52,19.52,0,0,0,47.53,40L47,36.36l-.77,0V48.75a10.45,10.45,0,0,1,7.83,4.46H64l3-1.9A22.13,22.13,0,0,0,64.92,47Z"/><path fill="#5b7895" d="M154.36,40.78,154,43.53a14.62,14.62,0,0,0-4.09,1.07l-1.68-2.25a17.59,17.59,0,0,0-3.11,1.85l1.19,2.56a14.92,14.92,0,0,0-1.54,1.44,15.75,15.75,0,0,0-1.33,1.65l-2.63-1a16.58,16.58,0,0,0-1.61,3.24l1.91,1.21h5.67a10.41,10.41,0,0,1,8.65-5l.43,0V40.75C155.36,40.74,154.86,40.75,154.36,40.78Z"/><path fill="#5b7895" d="M52.41,29.06l.74-.46a5.49,5.49,0,0,0-.5-1l-.81.3A4.6,4.6,0,0,0,51,27l.36-.79a4.67,4.67,0,0,0-1-.57l-.52.69A4.6,4.6,0,0,0,48.58,26l-.11-.84a4.67,4.67,0,0,0-1.12,0l-.06.84a4.73,4.73,0,0,0-1,.32v.79a3.86,3.86,0,0,1,1.85-.48,3.82,3.82,0,1,1,0,7.64,3.76,3.76,0,0,1-1.85-.49v.92l.06,0-.06.42v.37a5.28,5.28,0,0,0,1,.26l.27-.73a4.87,4.87,0,0,0,1.32,0l.33.73a5.35,5.35,0,0,0,1.07-.35l-.18-.79a4.72,4.72,0,0,0,1.07-.73v0l.69.45a6.44,6.44,0,0,0,.72-.86L52,32.84a4.52,4.52,0,0,0,.49-1.21h.85a5.11,5.11,0,0,0,.13-1.11l-.84-.18A4.37,4.37,0,0,0,52.41,29.06Z"/><path fill="#5b7895" d="M143.4,23.13a7.51,7.51,0,0,0-.67-2l1-.89c-.11-.2-.23-.39-.36-.59h-3.36a6.26,6.26,0,1,1-7.9,0h-2l0,.07a7.83,7.83,0,0,0-1.11,1.86l-1.27-.19a8.56,8.56,0,0,0-.46,1.79l1.21.45a7.45,7.45,0,0,0,.07,2.16l-1.2.54A9,9,0,0,0,128,28l1.3-.28a7.51,7.51,0,0,0,1.21,1.75l0,0-.74,1.13a8.65,8.65,0,0,0,1.42,1.17l1-1a7.41,7.41,0,0,0,2,.82v1.39a8,8,0,0,0,1.83.21l.29-1.37a7.53,7.53,0,0,0,2.1-.37l.76,1.19a8.62,8.62,0,0,0,1.64-.81l-.49-1.33a10.14,10.14,0,0,0,.83-.67,8.88,8.88,0,0,0,.73-.78l1.29.6a9.73,9.73,0,0,0,.94-1.57l-1.14-.85a7.53,7.53,0,0,0,.54-2.07l1.39-.19a8.63,8.63,0,0,0-.07-1.83Z"/></g><path fill="#fff" d="M65.69,24.48,66.5,24a6.1,6.1,0,0,0-.5-1.11l-.9.3a3.8,3.8,0,0,0-.42-.57,5.9,5.9,0,0,0-.5-.5l.43-.84a5.91,5.91,0,0,0-1-.66l-.6.73a5,5,0,0,0-1.35-.4l-.1-.93a6.22,6.22,0,0,0-1.22,0l-.09.92a4.76,4.76,0,0,0-1.37.39l-.57-.71a5.55,5.55,0,0,0-1,.66l.4.8,0,0a4.66,4.66,0,0,0-.93,1.06l-.83-.29A5.94,5.94,0,0,0,55.38,24l.75.44a5,5,0,0,0-.21,1.43l-.83.2a5.6,5.6,0,0,0,.17,1.22l.85,0a4.83,4.83,0,0,0,.6,1.31l-.58.62a5.58,5.58,0,0,0,.37.48,6.14,6.14,0,0,0,.43.45l.69-.48a5.2,5.2,0,0,0,1.21.78l-.15.83a6.08,6.08,0,0,0,1.17.36l.33-.8a5,5,0,0,0,1.44,0l.33.81a6,6,0,0,0,1.17-.33L63,30.41a4.66,4.66,0,0,0,1.18-.76h0l.73.51a5.74,5.74,0,0,0,.81-.91l-.62-.67a4.85,4.85,0,0,0,.59-1.29l.93,0a6,6,0,0,0,.18-1.2l-.9-.23A5.15,5.15,0,0,0,65.69,24.48Zm-4.86,4.68a3.35,3.35,0,1,1,3.47-3.23A3.35,3.35,0,0,1,60.83,29.16Z"/><path d="M66.85,25.88l-.73-.18A5.82,5.82,0,0,0,66,24.59l.66-.39a.22.22,0,0,0,.1-.27,5.41,5.41,0,0,0-.52-1.15.23.23,0,0,0-.27-.11l-.73.24c-.11-.15-.22-.3-.34-.44a4.89,4.89,0,0,0-.39-.4l.34-.69a.22.22,0,0,0-.06-.29,5.81,5.81,0,0,0-1.06-.68.23.23,0,0,0-.29.06l-.47.6a5.18,5.18,0,0,0-1.08-.33L61.78,20a.23.23,0,0,0-.21-.2,5.4,5.4,0,0,0-1.27,0,.22.22,0,0,0-.21.2l-.08.74a5.79,5.79,0,0,0-1.08.31l-.46-.57a.22.22,0,0,0-.28-.06,5.75,5.75,0,0,0-1.07.69.24.24,0,0,0-.06.29l.32.64a5.07,5.07,0,0,0-.75.85L56,22.65a.24.24,0,0,0-.28.11,5.81,5.81,0,0,0-.53,1.16.24.24,0,0,0,.1.27l.6.35a5.42,5.42,0,0,0-.17,1.13l-.66.17a.23.23,0,0,0-.18.23A6.09,6.09,0,0,0,55,27.34a.21.21,0,0,0,.23.17l.67,0a5.72,5.72,0,0,0,.47,1L56,29a.23.23,0,0,0,0,.29q.18.26.39.51c.15.16.29.31.45.46a.24.24,0,0,0,.29,0l.55-.38a5.42,5.42,0,0,0,1,.62l-.12.66a.22.22,0,0,0,.14.26,6.16,6.16,0,0,0,1.22.37.24.24,0,0,0,.26-.14l.26-.63a5.43,5.43,0,0,0,1.14,0l.26.64a.24.24,0,0,0,.22.15h0a5.85,5.85,0,0,0,1.22-.35.23.23,0,0,0,.14-.25l-.12-.7a5.1,5.1,0,0,0,1-.61l.59.41a.22.22,0,0,0,.29,0,5.4,5.4,0,0,0,.84-.95.22.22,0,0,0,0-.29l-.49-.54a4.91,4.91,0,0,0,.46-1l.75,0a.25.25,0,0,0,.23-.18A5.72,5.72,0,0,0,67,26.12.24.24,0,0,0,66.85,25.88Zm-.42,1.19-.74,0a.23.23,0,0,0-.23.17,4.89,4.89,0,0,1-.56,1.23.24.24,0,0,0,0,.29l.49.52a6,6,0,0,1-.53.6l-.58-.41a.26.26,0,0,0-.3,0,4.65,4.65,0,0,1-1.13.73.22.22,0,0,0-.13.25l.12.68a6.77,6.77,0,0,1-.77.22l-.26-.63a.23.23,0,0,0-.21-.15h0a4.49,4.49,0,0,1-1.37,0,.25.25,0,0,0-.25.14l-.25.62a6.82,6.82,0,0,1-.77-.23l.12-.65a.24.24,0,0,0-.13-.26,4.86,4.86,0,0,1-1.16-.74.23.23,0,0,0-.28,0l-.54.38-.27-.3c-.09-.1-.17-.21-.25-.31l.45-.48a.24.24,0,0,0,0-.29,4.27,4.27,0,0,1-.56-1.25A.22.22,0,0,0,56.1,27l-.66,0a7,7,0,0,1-.11-.8l.65-.16a.23.23,0,0,0,.17-.22,4.82,4.82,0,0,1,.21-1.36.25.25,0,0,0-.11-.27l-.58-.34a4.8,4.8,0,0,1,.33-.73l.65.22a.24.24,0,0,0,.27-.09,4.66,4.66,0,0,1,.91-1,.25.25,0,0,0,.05-.27l-.32-.63a6,6,0,0,1,.67-.44l.45.56a.21.21,0,0,0,.27.07,5,5,0,0,1,1.31-.37.24.24,0,0,0,.2-.21l.08-.73a5.21,5.21,0,0,1,.79,0l.07.74a.26.26,0,0,0,.2.21,4.52,4.52,0,0,1,1.3.38.23.23,0,0,0,.28-.06l.47-.59a5.74,5.74,0,0,1,.66.43L64,22a.24.24,0,0,0,0,.29,4.57,4.57,0,0,1,.88,1,.23.23,0,0,0,.28.09l.71-.23a5.88,5.88,0,0,1,.33.72l-.65.37a.25.25,0,0,0-.11.27,4.72,4.72,0,0,1,.19,1.34.23.23,0,0,0,.18.23l.71.18A6.66,6.66,0,0,1,66.43,27.07Z"/><path d="M61.08,22.22H61a3.59,3.59,0,0,0-.13,7.18H61a3.59,3.59,0,0,0,.13-7.18ZM61,28.93h-.11a3.11,3.11,0,0,1-2.18-1A3.13,3.13,0,0,1,61,22.69h.11A3.12,3.12,0,0,1,61,28.93Z"/><path fill="#fff" d="M103.6,34.9l1.7-1a12,12,0,0,0-1-2.32l-1.88.62a10.83,10.83,0,0,0-.89-1.19,9.38,9.38,0,0,0-1-1.05l.89-1.76a12.11,12.11,0,0,0-2.13-1.38L98,28.36a10.56,10.56,0,0,0-2.84-.85l-.2-1.94a12.68,12.68,0,0,0-2.54,0l-.21,1.92a10,10,0,0,0-2.86.82l-1.19-1.49A12,12,0,0,0,86,28.22l.84,1.68,0,0a10.42,10.42,0,0,0-1.94,2.22l-1.74-.6a12.2,12.2,0,0,0-1.06,2.33l1.57.93a10.06,10.06,0,0,0-.45,3l-1.74.43a12.15,12.15,0,0,0,.36,2.54l1.78-.06a10.61,10.61,0,0,0,1.25,2.75L83.6,44.74c.24.34.5.68.79,1s.58.63.89.93l1.45-1a10.7,10.7,0,0,0,2.53,1.63l-.32,1.75a11.81,11.81,0,0,0,2.46.74l.68-1.66a10.12,10.12,0,0,0,3,0l.69,1.69a12.06,12.06,0,0,0,2.46-.7l-.33-1.82a10.46,10.46,0,0,0,2.49-1.58s0,0,0,0L102,46.78a12.71,12.71,0,0,0,1.69-1.92l-1.3-1.39a10.36,10.36,0,0,0,1.24-2.71l1.93.08a12.69,12.69,0,0,0,.38-2.52L104,37.84A10.5,10.5,0,0,0,103.6,34.9ZM93.37,46.69A9,9,0,1,1,102.69,38,9,9,0,0,1,93.37,46.69Z"/><path d="M94,28.46a9.24,9.24,0,1,0-.66,18.46h.34A9.24,9.24,0,0,0,94,28.46Zm-.64,18a8.77,8.77,0,0,1,.3-17.54H94a8.77,8.77,0,1,1-.62,17.53Z"/><path d="M106,38.09l-1.72-.43a10.72,10.72,0,0,0-.37-2.65l1.54-.9a.23.23,0,0,0,.11-.27,12.3,12.3,0,0,0-1.07-2.37.24.24,0,0,0-.28-.1l-1.7.57a10.72,10.72,0,0,0-.81-1.07,10.4,10.4,0,0,0-.93-.95l.81-1.61a.22.22,0,0,0-.06-.28,12.13,12.13,0,0,0-2.18-1.41.22.22,0,0,0-.28.06l-1.13,1.4a10.67,10.67,0,0,0-2.56-.77l-.17-1.76a.23.23,0,0,0-.21-.21,12.55,12.55,0,0,0-2.6,0,.25.25,0,0,0-.21.21L92,27.29a10.9,10.9,0,0,0-2.58.74l-1.08-1.35a.23.23,0,0,0-.28-.06A12.81,12.81,0,0,0,85.84,28a.23.23,0,0,0-.06.28l.76,1.52a10.42,10.42,0,0,0-1.78,2l-1.58-.54a.22.22,0,0,0-.27.1,12.16,12.16,0,0,0-1.08,2.38.21.21,0,0,0,.1.27l1.41.84a10.66,10.66,0,0,0-.4,2.68L81.37,38a.24.24,0,0,0-.17.24,12,12,0,0,0,.37,2.59.23.23,0,0,0,.23.18l1.6-.06a10.85,10.85,0,0,0,1.12,2.48l-1.09,1.16a.23.23,0,0,0,0,.29c.25.36.52.71.8,1s.59.64.91.94a.23.23,0,0,0,.29,0L86.72,46A10.33,10.33,0,0,0,89,47.44L88.71,49a.24.24,0,0,0,.14.26,12.92,12.92,0,0,0,2.5.75.24.24,0,0,0,.26-.14l.62-1.49a11.17,11.17,0,0,0,2.71,0l.62,1.52a.24.24,0,0,0,.22.15h0a12.83,12.83,0,0,0,2.51-.71.24.24,0,0,0,.14-.26l-.29-1.64A10.37,10.37,0,0,0,100.44,46l1.39,1a.24.24,0,0,0,.29,0,12.26,12.26,0,0,0,1.73-2,.26.26,0,0,0,0-.3l-1.17-1.26A10.76,10.76,0,0,0,103.77,41l1.75.07a.25.25,0,0,0,.24-.17,13.07,13.07,0,0,0,.38-2.57A.24.24,0,0,0,106,38.09Zm-.62,2.51-1.74-.07a.23.23,0,0,0-.24.16,9.9,9.9,0,0,1-1.2,2.65.24.24,0,0,0,0,.29l1.17,1.25a12.52,12.52,0,0,1-1.41,1.6l-1.39-1a.28.28,0,0,0-.32,0,10.28,10.28,0,0,1-2.42,1.55.26.26,0,0,0-.14.26L98,49a12.4,12.4,0,0,1-2.06.59l-.61-1.52a.23.23,0,0,0-.22-.14h0a10.34,10.34,0,0,1-2.94,0,.22.22,0,0,0-.25.14l-.61,1.48a11.43,11.43,0,0,1-2.06-.61l.29-1.57a.22.22,0,0,0-.13-.25,10.25,10.25,0,0,1-2.47-1.6.24.24,0,0,0-.29,0l-1.3.9c-.26-.25-.51-.51-.74-.78s-.45-.55-.66-.84L85,43.61a.23.23,0,0,0,0-.29,10,10,0,0,1-1.21-2.69.21.21,0,0,0-.24-.16L82,40.52a12.44,12.44,0,0,1-.3-2.12L83.23,38a.23.23,0,0,0,.17-.22,10.32,10.32,0,0,1,.44-2.91.23.23,0,0,0-.11-.27l-1.4-.83a12.23,12.23,0,0,1,.88-2l1.57.54a.24.24,0,0,0,.27-.1,9.69,9.69,0,0,1,1.88-2.15l.07-.06a.26.26,0,0,0,0-.27l-.76-1.51a12.71,12.71,0,0,1,1.79-1.16l1.07,1.34a.21.21,0,0,0,.27.07,10.09,10.09,0,0,1,2.8-.8.22.22,0,0,0,.2-.21l.19-1.73a12.51,12.51,0,0,1,2.12,0l.18,1.75a.24.24,0,0,0,.2.21,9.85,9.85,0,0,1,2.77.83.24.24,0,0,0,.28-.07l1.12-1.39a12.29,12.29,0,0,1,1.78,1.15l-.81,1.6a.23.23,0,0,0,.05.28,9.85,9.85,0,0,1,1.89,2.19.24.24,0,0,0,.27.1l1.7-.57A11.9,11.9,0,0,1,105,33.8l-1.54.9a.24.24,0,0,0-.1.27,10.26,10.26,0,0,1,.41,2.87.23.23,0,0,0,.17.22l1.71.44A12.39,12.39,0,0,1,105.35,40.6Z"/><path fill="#fff" d="M76,35.36l1.09-.69a8.27,8.27,0,0,0-.74-1.49l-1.21.45a8.82,8.82,0,0,0-.61-.76,6.31,6.31,0,0,0-.71-.66L74.33,31a8.78,8.78,0,0,0-1.44-.85l-.77,1a7.14,7.14,0,0,0-1.88-.49l-.17-1.26a7.76,7.76,0,0,0-1.67.06l-.09,1.26a6.49,6.49,0,0,0-1.85.61l-.81-.95a7.88,7.88,0,0,0-1.37,1l.58,1.08,0,0A6.69,6.69,0,0,0,63.62,34l-1.15-.35a7.79,7.79,0,0,0-.64,1.55l1.05.57a6.83,6.83,0,0,0-.23,2l-1.12.32a7.91,7.91,0,0,0,.29,1.66L63,39.62a6.77,6.77,0,0,0,.87,1.77l-.76.87a5.47,5.47,0,0,0,.54.65,6.67,6.67,0,0,0,.6.59l.93-.69a6.82,6.82,0,0,0,1.7,1L66.69,45a8.52,8.52,0,0,0,1.63.43l.41-1.11a6.84,6.84,0,0,0,2-.06l.49,1.09a8.21,8.21,0,0,0,1.59-.52l-.25-1.18a6.7,6.7,0,0,0,1.58-1.1l0,0,1,.67a8.08,8.08,0,0,0,1.06-1.29L75.35,41a6.77,6.77,0,0,0,.74-1.81h1.27a8.36,8.36,0,0,0,.19-1.66l-1.25-.27A6.62,6.62,0,0,0,76,35.36Zm-6.42,5.71a3.65,3.65,0,1,1,3.65-3.65A3.65,3.65,0,0,1,69.54,41.07Z"/><path d="M77.6,37.32l-1.07-.24a7.44,7.44,0,0,0-.29-1.62l.94-.59a.24.24,0,0,0,.09-.28,8.47,8.47,0,0,0-.76-1.54.24.24,0,0,0-.28-.09l-1,.39a7.67,7.67,0,0,0-.52-.64,6.37,6.37,0,0,0-.59-.57l.47-1a.24.24,0,0,0-.07-.28A7.92,7.92,0,0,0,73,30a.22.22,0,0,0-.28.07l-.67.89a6.64,6.64,0,0,0-1.59-.41l-.15-1.09a.22.22,0,0,0-.22-.2,8.14,8.14,0,0,0-1.71.06.22.22,0,0,0-.2.21l-.08,1.09a6.7,6.7,0,0,0-1.57.51l-.7-.81a.23.23,0,0,0-.29-.06,8.53,8.53,0,0,0-1.41,1,.24.24,0,0,0-.05.29l.5.92a7.23,7.23,0,0,0-1,1.29l-1-.3a.25.25,0,0,0-.28.12,8.88,8.88,0,0,0-.66,1.59.23.23,0,0,0,.12.27l.89.49a6.66,6.66,0,0,0-.19,1.66l-1,.28a.24.24,0,0,0-.17.24,8.09,8.09,0,0,0,.31,1.7.24.24,0,0,0,.24.17l1-.07a7,7,0,0,0,.75,1.5l-.65.74a.25.25,0,0,0,0,.3c.18.23.36.45.56.66s.4.41.62.61a.24.24,0,0,0,.29,0l.79-.59a7.22,7.22,0,0,0,1.44.86l-.15,1a.24.24,0,0,0,.15.25,8.37,8.37,0,0,0,1.67.44h0a.24.24,0,0,0,.22-.15l.35-.94a7.17,7.17,0,0,0,1.67,0l.41.92a.23.23,0,0,0,.27.13A8,8,0,0,0,72.88,45a.22.22,0,0,0,.13-.26l-.22-1a6.6,6.6,0,0,0,1.37-1l.88.58a.26.26,0,0,0,.29,0A8.56,8.56,0,0,0,76.42,42a.24.24,0,0,0,0-.3L75.64,41a7,7,0,0,0,.63-1.53h1.09a.24.24,0,0,0,.23-.19,8.05,8.05,0,0,0,.19-1.7A.23.23,0,0,0,77.6,37.32ZM77.17,39H76.09a.22.22,0,0,0-.22.18,7,7,0,0,1-.72,1.74.23.23,0,0,0,0,.28l.75.75a8.14,8.14,0,0,1-.8,1l-.87-.57a.3.3,0,0,0-.31.05,6.44,6.44,0,0,1-1.53,1.06.24.24,0,0,0-.12.26l.21,1a7.89,7.89,0,0,1-1.19.39l-.41-.92a.21.21,0,0,0-.25-.13,6.72,6.72,0,0,1-1.9.06.24.24,0,0,0-.25.15l-.34.92A8.07,8.07,0,0,1,67,44.82l.15-1A.26.26,0,0,0,67,43.6a6.05,6.05,0,0,1-1.64-1,.26.26,0,0,0-.29,0l-.77.58c-.16-.15-.31-.29-.45-.45s-.28-.31-.41-.48l.64-.72a.24.24,0,0,0,0-.29,6.51,6.51,0,0,1-.85-1.71.24.24,0,0,0-.24-.16l-1,.07a7.33,7.33,0,0,1-.23-1.24l.95-.27a.24.24,0,0,0,.17-.23,6.69,6.69,0,0,1,.21-1.89.23.23,0,0,0-.11-.26l-.88-.49a8.22,8.22,0,0,1,.48-1.15l1,.29a.22.22,0,0,0,.26-.1A6.89,6.89,0,0,1,65,32.67l.05,0a.23.23,0,0,0,0-.26l-.5-.92a8.86,8.86,0,0,1,1-.71l.69.8a.25.25,0,0,0,.28.06A6.72,6.72,0,0,1,68.35,31a.21.21,0,0,0,.19-.21l.08-1.07a7.35,7.35,0,0,1,1.24-.05L70,30.76a.24.24,0,0,0,.21.2,6.52,6.52,0,0,1,1.81.47.24.24,0,0,0,.28-.08l.66-.88a8.06,8.06,0,0,1,1.06.64l-.46,1a.23.23,0,0,0,.06.28,6,6,0,0,1,.69.64,6.63,6.63,0,0,1,.58.73.24.24,0,0,0,.28.09l1-.39a6.84,6.84,0,0,1,.55,1.12l-.92.58a.23.23,0,0,0-.1.28,6.71,6.71,0,0,1,.33,1.84.23.23,0,0,0,.18.22l1.06.23A7.36,7.36,0,0,1,77.17,39Z"/><path d="M69.54,33.54a3.88,3.88,0,1,0,3.88,3.88A3.88,3.88,0,0,0,69.54,33.54Zm0,7.29A3.42,3.42,0,1,1,73,37.42,3.42,3.42,0,0,1,69.54,40.83Z"/><path fill="#fff" d="M126.05,38l1.39-.88a9.87,9.87,0,0,0-.94-1.9l-1.55.58a8.85,8.85,0,0,0-.77-1,9.08,9.08,0,0,0-.91-.85l.7-1.5a10.65,10.65,0,0,0-1.83-1.09l-1,1.32a8.75,8.75,0,0,0-2.4-.62l-.22-1.61a10.13,10.13,0,0,0-2.13.07l-.11,1.61a8.88,8.88,0,0,0-2.37.77l-1-1.2a10.2,10.2,0,0,0-1.75,1.22l.75,1.38,0,0a9,9,0,0,0-1.55,1.91l-1.47-.44a9.74,9.74,0,0,0-.82,2l1.34.73a8.71,8.71,0,0,0-.29,2.49l-1.44.41a11,11,0,0,0,.38,2.12l1.49-.11a8.51,8.51,0,0,0,1.12,2.26l-1,1.11a10.46,10.46,0,0,0,.69.83c.24.26.5.51.77.75l1.18-.89a8.89,8.89,0,0,0,2.17,1.29l-.23,1.47a10.28,10.28,0,0,0,2.08.54l.52-1.4a8.8,8.8,0,0,0,2.51-.09l.63,1.39a10.69,10.69,0,0,0,2-.66l-.32-1.51a8.51,8.51,0,0,0,2-1.4l0,0,1.31.85a10.48,10.48,0,0,0,1.36-1.64l-1.13-1.13a8.54,8.54,0,0,0,1-2.3h1.62a10.66,10.66,0,0,0,.24-2.11l-1.59-.35A9,9,0,0,0,126.05,38Zm-8.19,7.28a4.66,4.66,0,1,1,4.66-4.65A4.65,4.65,0,0,1,117.86,45.24Z"/><path d="M117.86,35.7a4.89,4.89,0,1,0,4.89,4.89A4.89,4.89,0,0,0,117.86,35.7Zm0,9.31a4.42,4.42,0,1,1,4.42-4.42A4.43,4.43,0,0,1,117.86,45Z"/><path d="M128.13,40.52l-1.42-.31a8.58,8.58,0,0,0-.38-2.14l1.24-.79a.23.23,0,0,0,.09-.28,10.3,10.3,0,0,0-1-1.94.23.23,0,0,0-.28-.1l-1.38.52a8,8,0,0,0-.69-.85,9.41,9.41,0,0,0-.79-.75l.62-1.34a.22.22,0,0,0-.07-.28,10.4,10.4,0,0,0-1.87-1.12.24.24,0,0,0-.28.07l-.88,1.18a9,9,0,0,0-2.11-.55l-.2-1.44a.22.22,0,0,0-.21-.2,10.56,10.56,0,0,0-2.18.08.24.24,0,0,0-.2.22l-.1,1.43a8.66,8.66,0,0,0-2.09.68l-.91-1.08a.25.25,0,0,0-.29-.05A10.45,10.45,0,0,0,111,32.73a.23.23,0,0,0,0,.29l.66,1.22A8.82,8.82,0,0,0,110.22,36l-1.31-.4a.24.24,0,0,0-.27.12,10.21,10.21,0,0,0-.83,2,.22.22,0,0,0,.11.27l1.18.65a8.59,8.59,0,0,0-.25,2.2l-1.27.36a.23.23,0,0,0-.17.24,9.9,9.9,0,0,0,.39,2.16.23.23,0,0,0,.24.17l1.3-.09a9.24,9.24,0,0,0,1,2l-.86,1a.24.24,0,0,0,0,.29c.23.3.47.58.71.84a9.45,9.45,0,0,0,.78.77.24.24,0,0,0,.3,0l1-.78a9,9,0,0,0,1.91,1.14l-.2,1.3a.25.25,0,0,0,.15.25,10.65,10.65,0,0,0,2.12.55h0a.23.23,0,0,0,.22-.16l.46-1.23a9.06,9.06,0,0,0,2.21-.08l.55,1.23a.24.24,0,0,0,.26.13,10.21,10.21,0,0,0,2.09-.68.23.23,0,0,0,.13-.26l-.29-1.33a8.79,8.79,0,0,0,1.81-1.26l1.16.76a.24.24,0,0,0,.3,0,10.19,10.19,0,0,0,1.38-1.69.23.23,0,0,0,0-.29l-1-1a8.47,8.47,0,0,0,.84-2h1.44a.25.25,0,0,0,.23-.19,10.36,10.36,0,0,0,.24-2.16A.22.22,0,0,0,128.13,40.52Zm-.48,2.11h-1.43a.22.22,0,0,0-.22.18,8.37,8.37,0,0,1-.93,2.23.24.24,0,0,0,0,.29l1,1A9.93,9.93,0,0,1,125,47.62l-1.16-.75a.3.3,0,0,0-.31.05,8.38,8.38,0,0,1-2,1.37.21.21,0,0,0-.12.25l.28,1.32a10,10,0,0,1-1.63.53l-.54-1.22a.25.25,0,0,0-.26-.13,8.32,8.32,0,0,1-2.44.08.25.25,0,0,0-.25.16l-.45,1.22a10,10,0,0,1-1.67-.43l.2-1.29a.25.25,0,0,0-.15-.25,8.45,8.45,0,0,1-2.1-1.25.24.24,0,0,0-.29,0l-1,.77c-.21-.19-.42-.39-.61-.6s-.38-.43-.56-.66l.85-1a.24.24,0,0,0,0-.29,8.16,8.16,0,0,1-1.09-2.19.24.24,0,0,0-.24-.16l-1.29.09a9.67,9.67,0,0,1-.31-1.69l1.26-.36a.25.25,0,0,0,.17-.24,8.26,8.26,0,0,1,.27-2.42.24.24,0,0,0-.11-.27l-1.17-.64a9.53,9.53,0,0,1,.65-1.58l1.29.39a.24.24,0,0,0,.27-.11,8.39,8.39,0,0,1,1.5-1.85l.06-.05a.26.26,0,0,0,0-.27L111.45,33a11.33,11.33,0,0,1,1.4-1l.91,1.07a.23.23,0,0,0,.28.05,8.14,8.14,0,0,1,2.3-.74.25.25,0,0,0,.19-.22l.1-1.42a9.67,9.67,0,0,1,1.7-.06l.2,1.42a.22.22,0,0,0,.21.2,8.52,8.52,0,0,1,2.33.61.24.24,0,0,0,.28-.08l.87-1.16a10.23,10.23,0,0,1,1.46.87l-.62,1.33a.22.22,0,0,0,.07.27A9.91,9.91,0,0,1,124,35a8.59,8.59,0,0,1,.75.94A.24.24,0,0,0,125,36l1.37-.51a9.38,9.38,0,0,1,.76,1.52l-1.23.78a.24.24,0,0,0-.1.27,8.32,8.32,0,0,1,.42,2.37.23.23,0,0,0,.19.22l1.4.31A9.61,9.61,0,0,1,127.65,42.63Z"/><path fill="#fff" d="M66.31,45.64l-3.48,1.3a18.68,18.68,0,0,0-1.75-2.17,18.29,18.29,0,0,0-2-1.91l1.57-3.37A24.55,24.55,0,0,0,56.52,37L54.3,40a19.57,19.57,0,0,0-5.39-1.4L48.41,35c-.65,0-1.3,0-2,0V47.35h.44A10.43,10.43,0,0,1,56.15,53h9.46c-.1-.35-.19-.7-.31-1.05l3.13-2A23.34,23.34,0,0,0,66.31,45.64Z"/><path d="M66.51,45.52a.24.24,0,0,0-.28-.1l-3.31,1.24a20.63,20.63,0,0,0-1.66-2,18.33,18.33,0,0,0-1.92-1.81l1.49-3.21a.22.22,0,0,0-.07-.28,23.76,23.76,0,0,0-4.14-2.48.26.26,0,0,0-.29.07l-2.11,2.83a19.36,19.36,0,0,0-5.1-1.33L48.65,35a.23.23,0,0,0-.22-.2c-.62,0-1.29-.06-2,0a.23.23,0,0,0-.23.23V47.35a.21.21,0,0,0,.07.17.23.23,0,0,0,.17.07h.43A10.21,10.21,0,0,1,56,53.06a.24.24,0,0,0,.2.12h9.46a.21.21,0,0,0,.18-.09.24.24,0,0,0,0-.2c-.08-.3-.16-.59-.25-.89l3-1.88a.23.23,0,0,0,.09-.28A23.11,23.11,0,0,0,66.51,45.52Zm-1.33,6.19a.23.23,0,0,0-.1.27c.08.24.15.49.22.73h-9a10.66,10.66,0,0,0-9.4-5.61h-.2V35.17c.53,0,1,0,1.52,0l.47,3.44a.22.22,0,0,0,.21.2,19.42,19.42,0,0,1,5.32,1.39.24.24,0,0,0,.28-.08l2.1-2.81a22.3,22.3,0,0,1,3.73,2.23l-1.48,3.2a.22.22,0,0,0,.07.27,18.9,18.9,0,0,1,2,1.89,18.61,18.61,0,0,1,1.73,2.14.22.22,0,0,0,.27.09l3.3-1.23a22.45,22.45,0,0,1,1.93,3.9Z"/><path fill="#fff" d="M154.72,40.25l-.36,2.56a13.68,13.68,0,0,0-3.8,1L149,41.71a16.83,16.83,0,0,0-2.9,1.73l1.11,2.38a13.08,13.08,0,0,0-1.44,1.35,14.71,14.71,0,0,0-1.23,1.53l-2.46-.91a16.34,16.34,0,0,0-1.5,3l2.21,1.4c-.08.24-.15.49-.21.74h4.53a9.71,9.71,0,0,1,8.6-5.68l.4,0V40.22Q155.41,40.21,154.72,40.25Z"/><path d="M156.11,40a13.27,13.27,0,0,0-1.41,0,.23.23,0,0,0-.22.2l-.32,2.38a14.48,14.48,0,0,0-3.52.92l-1.46-2a.23.23,0,0,0-.29-.07A16.42,16.42,0,0,0,146,43.25a.23.23,0,0,0-.07.29l1,2.22a14.17,14.17,0,0,0-2.47,2.66l-2.29-.85a.24.24,0,0,0-.28.09,16.86,16.86,0,0,0-1.52,3.07.24.24,0,0,0,.1.28l2.05,1.3c-.05.19-.11.38-.16.58a.24.24,0,0,0,0,.2.23.23,0,0,0,.19.09h4.53a.23.23,0,0,0,.22-.14,9.46,9.46,0,0,1,8.38-5.54h.39a.2.2,0,0,0,.17-.06.25.25,0,0,0,.08-.17V40.22A.23.23,0,0,0,156.11,40Zm-.24,7h-.17A10,10,0,0,0,147,52.71h-4.08c0-.14.09-.28.13-.43a.22.22,0,0,0-.09-.27l-2-1.3a15.82,15.82,0,0,1,1.31-2.64l2.28.85a.23.23,0,0,0,.27-.08,13.56,13.56,0,0,1,1.21-1.51A14.78,14.78,0,0,1,147.34,46a.23.23,0,0,0,.07-.28l-1-2.21A17.53,17.53,0,0,1,148.92,42l1.45,2a.24.24,0,0,0,.28.07,13.39,13.39,0,0,1,3.74-1,.26.26,0,0,0,.21-.2l.32-2.38c.32,0,.63,0,1,0Z"/><path fill="#fff" d="M53.8,27.68l.73-.47a5.19,5.19,0,0,0-.5-1l-.81.31a4,4,0,0,0-.41-.51,5,5,0,0,0-.47-.45l.36-.78a5.49,5.49,0,0,0-1-.58l-.52.7A4.69,4.69,0,0,0,50,24.57l-.12-.85a5.86,5.86,0,0,0-1.11,0l-.07.85a4.72,4.72,0,0,0-1.24.4l-.54-.63-.36.22v2a3.83,3.83,0,1,1,0,4.81v1.23l0,0a4.41,4.41,0,0,0,1.14.68l-.12.77a5.16,5.16,0,0,0,1.09.29l.28-.74a4.8,4.8,0,0,0,1.31,0l.33.73A5.58,5.58,0,0,0,51.67,34l-.17-.79a4.5,4.5,0,0,0,1.06-.74h0l.69.45A5.3,5.3,0,0,0,54,32l-.59-.59a4.55,4.55,0,0,0,.5-1.21h.85a5.24,5.24,0,0,0,.12-1.11L54,29A4.59,4.59,0,0,0,53.8,27.68Z"/><path d="M54.91,28.91l-.66-.14a4.66,4.66,0,0,0-.17-1l.57-.37a.23.23,0,0,0,.1-.28,5.32,5.32,0,0,0-.52-1A.25.25,0,0,0,54,26l-.64.25a4.16,4.16,0,0,0-.32-.39l-.36-.35.29-.63a.23.23,0,0,0-.08-.28,5.89,5.89,0,0,0-1-.6.25.25,0,0,0-.28.07l-.41.55a5.53,5.53,0,0,0-1-.25l-.1-.67a.22.22,0,0,0-.21-.2,5.73,5.73,0,0,0-1.17,0,.24.24,0,0,0-.2.22l0,.66a4.71,4.71,0,0,0-1,.32l-.42-.5a.23.23,0,0,0-.29-.06l-.38.23a.26.26,0,0,0-.1.2v2a.25.25,0,0,0,.15.22.23.23,0,0,0,.26-.08,3.59,3.59,0,1,1,0,4.52.25.25,0,0,0-.26-.07.24.24,0,0,0-.15.22v1.23a.24.24,0,0,0,.15.2h0a4.4,4.4,0,0,0,1,.58l-.09.6a.22.22,0,0,0,.15.25,5.37,5.37,0,0,0,1.13.3h0a.24.24,0,0,0,.22-.15l.21-.57a5,5,0,0,0,1,0l.25.57a.22.22,0,0,0,.26.13,5.62,5.62,0,0,0,1.12-.36A.23.23,0,0,0,51.9,34l-.13-.62a4.6,4.6,0,0,0,.83-.58l.54.35a.23.23,0,0,0,.29,0,5.87,5.87,0,0,0,.75-.9.23.23,0,0,0,0-.29l-.46-.47a5.08,5.08,0,0,0,.39-.93h.67A.23.23,0,0,0,55,30.3a6.44,6.44,0,0,0,.13-1.16A.24.24,0,0,0,54.91,28.91ZM54.55,30h-.66a.23.23,0,0,0-.23.18,4.36,4.36,0,0,1-.47,1.14.24.24,0,0,0,0,.29l.46.45c-.14.19-.29.37-.44.54l-.53-.35a.29.29,0,0,0-.31,0,4.29,4.29,0,0,1-1,.7.24.24,0,0,0-.13.26l.13.6a5.11,5.11,0,0,1-.66.22l-.25-.56a.24.24,0,0,0-.26-.13,4.75,4.75,0,0,1-1.25,0,.21.21,0,0,0-.24.15l-.21.56c-.23,0-.46-.11-.68-.18l.09-.58a.25.25,0,0,0-.14-.25,4.73,4.73,0,0,1-1-.61v-.47a4.06,4.06,0,1,0,0-6V24.72l.08,0,.42.48a.22.22,0,0,0,.28.06,4.33,4.33,0,0,1,1.17-.38.24.24,0,0,0,.2-.22L49,24c.23,0,.47,0,.7,0l.09.66a.22.22,0,0,0,.2.2,4.42,4.42,0,0,1,1.2.31.25.25,0,0,0,.28-.07l.4-.54a5.08,5.08,0,0,1,.59.35l-.28.62a.23.23,0,0,0,.06.28,3.61,3.61,0,0,1,.45.42,4.54,4.54,0,0,1,.39.48.24.24,0,0,0,.27.09l.64-.24c.11.2.21.41.3.62l-.57.36a.22.22,0,0,0-.09.27A4.16,4.16,0,0,1,53.79,29a.25.25,0,0,0,.19.22l.65.14C54.61,29.56,54.59,29.79,54.55,30Z"/><path fill="#fff" d="M145,23a6.38,6.38,0,0,0-.59-1.79l.92-.79c-.1-.17-.2-.35-.32-.52H142a5.52,5.52,0,1,1-7,0h-1.78l0,.06a6.68,6.68,0,0,0-1,1.64l-1.12-.17a8,8,0,0,0-.41,1.58l1.07.4a6.38,6.38,0,0,0,.06,1.9l-1,.47a7.19,7.19,0,0,0,.5,1.55l1.14-.25a6.55,6.55,0,0,0,1.06,1.53l0,0-.65,1a8,8,0,0,0,1.25,1l.85-.85a6.34,6.34,0,0,0,1.75.72v1.22a8,8,0,0,0,1.61.19l.26-1.21a6.55,6.55,0,0,0,1.85-.33l.66,1.05a7.49,7.49,0,0,0,1.45-.71l-.44-1.18a5.81,5.81,0,0,0,.73-.58,7,7,0,0,0,.65-.69l1.14.53a8.09,8.09,0,0,0,.82-1.38l-1-.75a6.51,6.51,0,0,0,.47-1.82l1.23-.17a7.87,7.87,0,0,0-.06-1.61Z"/><path d="M146.2,22.81l-1-.07a6.67,6.67,0,0,0-.49-1.51l.78-.67a.22.22,0,0,0,.05-.29c-.1-.18-.21-.36-.32-.53a.24.24,0,0,0-.2-.11H142a.22.22,0,0,0-.22.16.22.22,0,0,0,.07.26,5.29,5.29,0,1,1-6.66,0,.26.26,0,0,0,.07-.26.22.22,0,0,0-.22-.16h-1.78a.23.23,0,0,0-.21.13.3.3,0,0,0,0,.13,7.24,7.24,0,0,0-.85,1.41l-.94-.14a.24.24,0,0,0-.25.15,7.87,7.87,0,0,0-.42,1.62.23.23,0,0,0,.15.26l.9.33a6.66,6.66,0,0,0,.05,1.61l-.89.4a.23.23,0,0,0-.13.26,7.77,7.77,0,0,0,.51,1.59.25.25,0,0,0,.27.14l1-.21a7.21,7.21,0,0,0,.92,1.31l-.55.85a.24.24,0,0,0,0,.29,9.32,9.32,0,0,0,1.29,1.06.26.26,0,0,0,.3,0l.72-.73a7.24,7.24,0,0,0,1.47.61v1a.23.23,0,0,0,.18.23,7.66,7.66,0,0,0,1.65.19h0a.22.22,0,0,0,.22-.18l.23-1a6.89,6.89,0,0,0,1.56-.27l.57.9a.23.23,0,0,0,.28.09,8.47,8.47,0,0,0,1.48-.73.23.23,0,0,0,.1-.28l-.38-1a4.92,4.92,0,0,0,.61-.5,7.4,7.4,0,0,0,.55-.57l1,.45a.22.22,0,0,0,.28-.07,7.6,7.6,0,0,0,.85-1.43.22.22,0,0,0-.07-.28l-.86-.64a6.28,6.28,0,0,0,.4-1.53l1.05-.15a.22.22,0,0,0,.2-.21,7.76,7.76,0,0,0-.06-1.67A.24.24,0,0,0,146.2,22.81ZM146,24.46l-1,.14a.23.23,0,0,0-.2.2,6.26,6.26,0,0,1-.46,1.76.22.22,0,0,0,.08.27l.85.64a8.86,8.86,0,0,1-.61,1l-1-.45a.24.24,0,0,0-.28.06c-.2.24-.41.46-.62.67a7.59,7.59,0,0,1-.71.56.25.25,0,0,0-.09.28l.37,1a7.49,7.49,0,0,1-1.06.53l-.57-.9a.25.25,0,0,0-.27-.09,6.28,6.28,0,0,1-1.78.32.23.23,0,0,0-.22.18l-.22,1a6.56,6.56,0,0,1-1.18-.14v-1a.24.24,0,0,0-.17-.23,6.39,6.39,0,0,1-1.69-.69.23.23,0,0,0-.28,0l-.72.72a8.24,8.24,0,0,1-.92-.76l.55-.84a.26.26,0,0,0,0-.3,6.56,6.56,0,0,1-1-1.49.25.25,0,0,0-.26-.12l-1,.21a6.6,6.6,0,0,1-.37-1.14l.88-.4a.23.23,0,0,0,.13-.25,6.3,6.3,0,0,1-.06-1.84.22.22,0,0,0-.15-.24l-.89-.33a7.72,7.72,0,0,1,.3-1.17l.93.14a.23.23,0,0,0,.25-.14,6.22,6.22,0,0,1,.92-1.55h1a5.76,5.76,0,1,0,8.17,0h2.23l.14.23-.77.66a.24.24,0,0,0-.06.28,6.63,6.63,0,0,1,.57,1.73.21.21,0,0,0,.21.19l1,.08A6.74,6.74,0,0,1,146,24.46Z"/><path fill="#00162c" d="M150.44,94.88l-98.19-9a5.53,5.53,0,0,0-6,5l-2,21.94a5.53,5.53,0,0,0,5,6l98.19,9a5.53,5.53,0,0,0,6-5l2-21.93A5.53,5.53,0,0,0,150.44,94.88Z"/><path fill="#00162c" d="M150.46,94.65l-98.19-9A5.74,5.74,0,0,0,46,90.89l-2,21.94a5.77,5.77,0,0,0,5.21,6.26l98.19,9a4.61,4.61,0,0,0,.53,0,5.73,5.73,0,0,0,5.73-5.23l2-21.94A5.77,5.77,0,0,0,150.46,94.65Zm4.75,6.22-2,21.93a5.25,5.25,0,0,1-5.75,4.79l-98.19-9a5.3,5.3,0,0,1-4.79-5.75l2-21.93a5.28,5.28,0,0,1,5.27-4.82,4,4,0,0,1,.49,0l98.19,9A5.32,5.32,0,0,1,155.21,100.87Z"/><path fill="#fff" d="M153.42,123.79l-109.59-10a.15.15,0,0,0-.17.14.16.16,0,0,0,.14.17l109.59,10h0a.16.16,0,0,0,.16-.14A.16.16,0,0,0,153.42,123.79Z"/><path fill="#fff" d="M153.86,119,44.27,109a.16.16,0,0,0-.17.14.17.17,0,0,0,.15.17l109.58,10h0a.16.16,0,0,0,.16-.14A.16.16,0,0,0,153.86,119Z"/><path fill="#fff" d="M154.3,114.17l-109.59-10a.15.15,0,0,0-.17.14.17.17,0,0,0,.14.17l109.59,10h0a.16.16,0,0,0,.16-.14A.16.16,0,0,0,154.3,114.17Z"/><path fill="#fff" d="M154.74,109.36l-109.59-10a.15.15,0,0,0-.17.14.16.16,0,0,0,.14.17l109.59,10h0a.16.16,0,0,0,.16-.14A.15.15,0,0,0,154.74,109.36Z"/><path fill="#fff" d="M155.18,104.55l-109.59-10a.17.17,0,0,0-.17.15.15.15,0,0,0,.14.16l109.59,10h0a.16.16,0,0,0,.16-.15A.15.15,0,0,0,155.18,104.55Z"/><path fill="#fff" d="M155.61,99.73,46,89.72a.16.16,0,0,0-.17.14A.15.15,0,0,0,46,90l109.59,10h0a.16.16,0,0,0,.16-.14A.17.17,0,0,0,155.61,99.73Z"/><path fill="#fff" d="M51.29,85.31a.15.15,0,0,0-.17.14L48,119.17a.15.15,0,0,0,.14.17h0a.16.16,0,0,0,.16-.14l3.08-33.72A.16.16,0,0,0,51.29,85.31Z"/><path fill="#fff" d="M56.1,85.75a.15.15,0,0,0-.17.14l-3.08,33.72a.15.15,0,0,0,.14.17h0a.16.16,0,0,0,.16-.14l3.08-33.73A.15.15,0,0,0,56.1,85.75Z"/><path fill="#fff" d="M60.91,86.18a.16.16,0,0,0-.17.15l-3.08,33.72a.15.15,0,0,0,.14.17h0a.16.16,0,0,0,.16-.14l3.08-33.73A.16.16,0,0,0,60.91,86.18Z"/><path fill="#fff" d="M65.72,86.62a.16.16,0,0,0-.17.14l-3.08,33.73a.15.15,0,0,0,.14.17h0a.16.16,0,0,0,.16-.14l3.08-33.73A.16.16,0,0,0,65.72,86.62Z"/><path fill="#fff" d="M70.53,87.06a.17.17,0,0,0-.17.14l-3.08,33.73a.16.16,0,0,0,.14.17h0a.15.15,0,0,0,.16-.14l3.08-33.73A.16.16,0,0,0,70.53,87.06Z"/><path fill="#fff" d="M75.34,87.5a.17.17,0,0,0-.17.14l-3.08,33.73a.16.16,0,0,0,.14.17h0a.15.15,0,0,0,.16-.14l3.08-33.73A.16.16,0,0,0,75.34,87.5Z"/><path fill="#fff" d="M80.15,87.94a.17.17,0,0,0-.17.14L76.9,121.81A.16.16,0,0,0,77,122h0a.15.15,0,0,0,.16-.14l3.08-33.73A.16.16,0,0,0,80.15,87.94Z"/><path fill="#fff" d="M85,88.38a.14.14,0,0,0-.16.14l-3.09,33.73a.17.17,0,0,0,.14.17h0a.15.15,0,0,0,.15-.14L85.1,88.55A.16.16,0,0,0,85,88.38Z"/><path fill="#fff" d="M89.77,88.82a.15.15,0,0,0-.16.14l-3.08,33.73a.16.16,0,0,0,.14.17h0a.16.16,0,0,0,.16-.14L89.92,89A.17.17,0,0,0,89.77,88.82Z"/><path fill="#fff" d="M94.61,89.26a.16.16,0,0,0-.17.14l-3.08,33.73a.16.16,0,0,0,.14.17h0a.15.15,0,0,0,.15-.14l3.08-33.73A.16.16,0,0,0,94.61,89.26Z"/><path fill="#fff" d="M99.42,89.7a.16.16,0,0,0-.17.14l-3.08,33.73a.16.16,0,0,0,.14.17h0a.15.15,0,0,0,.16-.14l3.08-33.73A.16.16,0,0,0,99.42,89.7Z"/><path fill="#fff" d="M104.23,90.14a.17.17,0,0,0-.17.14L101,124a.16.16,0,0,0,.14.17h0a.15.15,0,0,0,.15-.14l3.08-33.73A.16.16,0,0,0,104.23,90.14Z"/><path fill="#fff" d="M109,90.58a.15.15,0,0,0-.16.14l-3.09,33.73a.17.17,0,0,0,.14.17h0a.15.15,0,0,0,.15-.14l3.08-33.73A.16.16,0,0,0,109,90.58Z"/><path fill="#fff" d="M113.85,91a.15.15,0,0,0-.16.14l-3.08,33.73a.16.16,0,0,0,.14.17h0a.16.16,0,0,0,.16-.15L114,91.19A.17.17,0,0,0,113.85,91Z"/><path fill="#fff" d="M118.67,91.46a.15.15,0,0,0-.17.14l-3.08,33.73a.16.16,0,0,0,.14.17h0a.16.16,0,0,0,.16-.15l3.08-33.72A.16.16,0,0,0,118.67,91.46Z"/><path fill="#fff" d="M123.48,91.9a.16.16,0,0,0-.17.14l-3.08,33.73a.14.14,0,0,0,.14.16h0a.17.17,0,0,0,.16-.15l3.08-33.72A.16.16,0,0,0,123.48,91.9Z"/><path fill="#fff" d="M128.29,92.34a.16.16,0,0,0-.17.14L125,126.21a.14.14,0,0,0,.14.16h0a.17.17,0,0,0,.16-.15l3.08-33.72A.16.16,0,0,0,128.29,92.34Z"/><path fill="#fff" d="M133.1,92.78a.16.16,0,0,0-.17.14l-3.08,33.72a.15.15,0,0,0,.14.17h0a.16.16,0,0,0,.16-.14L133.24,93A.15.15,0,0,0,133.1,92.78Z"/><path fill="url(#b)" d="M78.44,115.61a4.1,4.1,0,0,1-.55-.73,3.76,3.76,0,0,1-.25-.49l-.57-1.59c-.17-.47-.34-1-.52-1.76-.4-1.42-.8-2.87-1.19-4.33s-.81-3-1.23-4.54S73.26,99,72.8,97.29s-1-3.47-1.47-5.35l-.26,0c-.1.14-.24.33-.43.55a6.29,6.29,0,0,1-.68.7,5.39,5.39,0,0,1-.91.68,4.82,4.82,0,0,1-1.12.53l.26.75c-.64,1.18-1.31,2.45-2,3.81s-1.44,2.71-2.17,4l-2.13,3.89c-.69,1.27-1.31,2.39-1.87,3.38a24,24,0,0,1-1.51,2.42,8.05,8.05,0,0,1-.85,1,3.39,3.39,0,0,1-.76.43,3.81,3.81,0,0,1-1.5.33l0,.36,7,.64,0-.33-.89-.23a4,4,0,0,1-.87-.35A2,2,0,0,1,60,114a1,1,0,0,1-.2-.73,8.48,8.48,0,0,1,.92-2.43c.38-.74.75-1.48,1.13-2.2s.77-1.5,1.17-2.3l8.74.8c.26.88.49,1.73.7,2.55s.4,1.55.56,2.22.28,1.23.36,1.69a4.17,4.17,0,0,1,.09,1,1,1,0,0,1-.38.72,2.41,2.41,0,0,1-.76.4,4.32,4.32,0,0,1-.82.15,3.79,3.79,0,0,1-.48,0l0,.33,9.6.87,0-.39a3.44,3.44,0,0,1-1.29-.42A3.74,3.74,0,0,1,78.44,115.61ZM63.35,105.7l1.79-3.47c.55-1.07,1-2,1.51-2.86l1.14-2.15c.3-.59.54-1,.69-1.3.16.5.35,1.14.57,1.93l.76,2.59c.28.94.57,1.92.86,2.94s.58,2,.87,3.06Z"/><path fill="#fff" d="M92,89c-.94-.76-2.71.83-2.74,3.85,0,2.43-2.42,5.88-.46,8.37l3-3.58a30.12,30.12,0,0,0,.06-5.06C91.57,91,92.33,89.29,92,89Z"/><path fill="#0e0e27" d="M90.89,88.71C90,89.13,89,90.6,89,92.85a10.48,10.48,0,0,1-.56,2.66c-.57,1.92-1.22,4.11.15,5.85a.25.25,0,0,0,.19.09.24.24,0,0,0,.18-.38c-1.22-1.55-.64-3.52-.07-5.43a11.13,11.13,0,0,0,.58-2.79c0-1.95.83-3.35,1.61-3.71a.69.69,0,0,1,.74,0,3,3,0,0,1-.1,1,7.84,7.84,0,0,0-.14,2.47,30.94,30.94,0,0,1-.06,5,.24.24,0,0,0,.21.25.23.23,0,0,0,.26-.21,30.56,30.56,0,0,0,0-5.12,7.33,7.33,0,0,1,.15-2.32c.12-.71.2-1.18-.07-1.4A1.13,1.13,0,0,0,90.89,88.71Z"/><path fill="#fff" d="M143.76,62.77c.53-3.38,1.34-10-4.76-12.86s-16.12-.91-17.55.52-2.41,7.48-1.84,9.1-.71,2-.71,5.73a18.56,18.56,0,0,0,5.28,12.08c2,1.94,7.15-.33,7.15-.33l.63,4.73,12.94-5.82a18,18,0,0,1-1.61-6.1A26.86,26.86,0,0,1,143.76,62.77Z"/><path fill="#00162c" d="M143.52,69.8a24.42,24.42,0,0,1,.39-6.44l.08-.55c.43-2.76,1.58-10.08-4.89-13.11a19.23,19.23,0,0,0-8-1.49c-4.59,0-8.87,1.08-9.84,2-1.56,1.57-2.47,7.71-1.89,9.35a2.51,2.51,0,0,1-.12,1.86,10.72,10.72,0,0,0-.6,3.79A18.8,18.8,0,0,0,124,77.51a3.64,3.64,0,0,0,2.59.85,13.68,13.68,0,0,0,4.54-1l.59,4.42a.25.25,0,0,0,.11.18.27.27,0,0,0,.12,0l.09,0L145,76.13a.24.24,0,0,0,.13-.13.25.25,0,0,0,0-.19A17.91,17.91,0,0,1,143.52,69.8ZM132.15,81.4,131.56,77a.23.23,0,0,0-.12-.17.2.2,0,0,0-.11,0l-.1,0a13.8,13.8,0,0,1-4.63,1.09,3.17,3.17,0,0,1-2.26-.71,18.3,18.3,0,0,1-5.2-11.92,10.49,10.49,0,0,1,.57-3.64,2.89,2.89,0,0,0,.12-2.17c-.52-1.48.38-7.46,1.78-8.86.78-.78,4.88-1.91,9.51-1.91a18.63,18.63,0,0,1,7.78,1.45c5.45,2.55,5.34,8.08,4.63,12.61l-.08.54a25.26,25.26,0,0,0-.4,6.56,18.78,18.78,0,0,0,1.54,6Z"/><path fill="#3700ff" d="M144.12,71.56c-3.05.36-11.42,7.1-14.59,8.37,0,0,.62.66-1.17,2.8-5.07,6-9.45,11-9.45,20.91s-4.34,18.13-3.21,26.51h40.08c0-15.93-.81-32.7-5.29-42.89C148.16,82,145.37,76.9,144.12,71.56Z"/><path fill="#00162c" d="M148.88,83.19a61.44,61.44,0,0,1-4.54-11.68.22.22,0,0,0-.25-.18c-1.84.22-5.38,2.57-8.81,4.85a44.45,44.45,0,0,1-5.84,3.54.19.19,0,0,0-.14.16.21.21,0,0,0,0,.2s.41.61-1.16,2.5l-.44.51c-4.86,5.81-9.07,10.82-9.07,20.55a58.55,58.55,0,0,1-1.81,12.82c-1,4.71-2,9.17-1.4,13.72a.24.24,0,0,0,.23.21h40.08a.23.23,0,0,0,.23-.24c0-14.39-.6-32.28-5.31-43C150.11,85.83,149.49,84.49,148.88,83.19Zm-33,46.73c-.55-4.4.41-8.76,1.42-13.36a59.2,59.2,0,0,0,1.82-12.92c0-9.56,4.15-14.51,9-20.25l.43-.51c1.32-1.58,1.41-2.43,1.3-2.83a48,48,0,0,0,5.7-3.49c3.1-2.06,6.6-4.38,8.4-4.73a63.5,63.5,0,0,0,4.52,11.56c.6,1.3,1.23,2.64,1.81,4,4.65,10.56,5.27,28.25,5.28,42.56Z"/><path fill="#00162c" d="M129.05,63.17l.24.4a1.86,1.86,0,0,1,2.16.24,1.69,1.69,0,0,1,.43,2C131.19,67.45,129.09,67,129,67l-.1.46a4.29,4.29,0,0,0,.78.07A2.64,2.64,0,0,0,132.31,66a2.16,2.16,0,0,0-.55-2.51A2.34,2.34,0,0,0,129.05,63.17Z"/><path fill="#00162c" d="M131.13,63.64a1.27,1.27,0,0,1-.29,1,1.42,1.42,0,0,1-1,.32l-.05.46h.13a1.83,1.83,0,0,0,1.25-.45,1.71,1.71,0,0,0,.42-1.41Z"/><path fill="#fff" d="M91.42,96.21c-.45-1-2.08-6.83-2.71-8.63-.83-2.37-3.8-.86-5.84-.86-1.73,0-3.77-1-4.13-.13-.57,1.4,2.45,2.82,4.88,2.67,2.63-.16,2.18.83,2.18.83s-4.88-1.65-5.73.88c0,0-1.93,1-1.6,2.7,0,.14-3.34,3.59-1.2,4.93.7.44,3.53,2.94,3.77,1.09.16-1.23-2.28-2.31-2-2.64s.5-.9.6-.67c2.92,6.31,5.54,8,7.55,7.83,5.32,4.9,9.76,8.29,9.76,8.29l5.14-10.44S91.87,97.18,91.42,96.21Z"/><path fill="#0e0e27" d="M102.23,101.85C97.3,99.5,91.9,96.69,91.64,96.12s-.89-2.67-1.51-4.74c-.48-1.59-.93-3.1-1.2-3.87a2.16,2.16,0,0,0-2.3-1.5,11.32,11.32,0,0,0-1.95.25,11.49,11.49,0,0,1-1.81.23,9.86,9.86,0,0,1-2-.28A7.21,7.21,0,0,0,79.48,86a.93.93,0,0,0-1,.52,1.24,1.24,0,0,0,.17,1.19A5.25,5.25,0,0,0,82,89.38a2.35,2.35,0,0,0-2.07,1.42,3,3,0,0,0-1.65,2.83l-.18.23c-.58.74-1.93,2.46-1.7,3.8a1.64,1.64,0,0,0,.79,1.14c.12.07.28.19.49.34a6.27,6.27,0,0,0,2.76,1.45.84.84,0,0,0,.86-.75c1.88,3.06,3.8,4.61,5.73,4.61h.16c5.24,4.81,9.66,8.2,9.71,8.23a.19.19,0,0,0,.14,0H97a.26.26,0,0,0,.16-.13l5.14-10.43a.23.23,0,0,0,0-.18A.24.24,0,0,0,102.23,101.85Zm-5.32,10.29c-1-.75-4.94-3.88-9.52-8.1a.26.26,0,0,0-.16-.07H87c-2.31,0-4.76-2.66-7.09-7.7a.28.28,0,0,0-.26-.19c-.19,0-.28.16-.41.38a2.94,2.94,0,0,1-.3.42.29.29,0,0,0-.1.25c0,.24.27.45.7.8.58.47,1.37,1.11,1.29,1.72-.06.41-.23.47-.42.47a6.21,6.21,0,0,1-2.48-1.36l-.52-.37a1.17,1.17,0,0,1-.58-.82c-.2-1.13,1.11-2.8,1.61-3.43.26-.33.3-.39.28-.52-.29-1.54,1.46-2.45,1.47-2.46a.2.2,0,0,0,.12-.13c.28-.82,1.1-1.24,2.43-1.24a10.78,10.78,0,0,1,3,.52.25.25,0,0,0,.29-.13.7.7,0,0,0-.06-.62c-.24-.38-.83-.56-1.79-.56l-.57,0c-1.75.11-3.9-.67-4.53-1.6a.79.79,0,0,1-.11-.76c0-.06.09-.22.52-.22a7.26,7.26,0,0,1,1.34.21,9.84,9.84,0,0,0,2.05.29,11.73,11.73,0,0,0,1.89-.23,10.77,10.77,0,0,1,1.87-.24,1.72,1.72,0,0,1,1.86,1.18c.27.77.72,2.27,1.19,3.86.62,2.08,1.27,4.23,1.53,4.79.45,1,8.48,4.85,10.61,5.86ZM80.13,97.83l-.31-.25a4,4,0,0,1-.5-.44,3.24,3.24,0,0,0,.28-.4C79.77,97.12,80,97.48,80.13,97.83Zm4.15-8.35c.81,0,1.12.17,1.23.28C85.22,89.68,84.79,89.57,84.28,89.48Z"/><path fill="#0e0e27" d="M80.22,93.29a1.68,1.68,0,0,0-1.91.21.24.24,0,0,0,0,.33.23.23,0,0,0,.33,0A1.2,1.2,0,0,1,80,93.71a18.1,18.1,0,0,1,2.16,1.43.19.19,0,0,0,.14,0,.25.25,0,0,0,.19-.09.24.24,0,0,0,0-.33A20.25,20.25,0,0,0,80.22,93.29Z"/><path fill="#0e0e27" d="M84,92.12s-.82-.45-1.76-.94A4,4,0,0,0,80,90.81a.23.23,0,0,0-.2.26.23.23,0,0,0,.26.2,3.66,3.66,0,0,1,1.94.32c.94.49,1.75.94,1.75.94l.11,0a.22.22,0,0,0,.21-.12A.24.24,0,0,0,84,92.12Z"/><path fill="#3700ff" d="M125.41,87.3c-6.36,7.22-12.29,17.85-12.29,17.85a106.91,106.91,0,0,0-15.67-7.71s-5.81,12.19-3.62,19.91c0,0,21.88,10.76,23.66,10.32.94-.23,9.32-4.94,15.25-13.19,6.08-8.45,6.49-19.16-.2-27.11A4.49,4.49,0,0,0,125.41,87.3Z"/><path fill="#00162c" d="M129,85.34a5.12,5.12,0,0,0-3.78,1.8c-5.8,6.61-11.32,16.16-12.19,17.69a107.26,107.26,0,0,0-15.51-7.61.23.23,0,0,0-.29.12c-.24.5-5.83,12.35-3.63,20.08a.21.21,0,0,0,.12.14c.86.43,21.09,10.36,23.63,10.36l.18,0c1-.25,9.48-5.08,15.39-13.29,6.39-8.89,6.31-19.64-.21-27.39A4.82,4.82,0,0,0,129,85.34Zm3.54,29c-5.83,8.11-14.13,12.86-15.12,13.11h-.07c-1.94,0-16-6.68-23.33-10.26-1.93-7,2.83-17.88,3.54-19.46A107.28,107.28,0,0,1,113,105.36a.23.23,0,0,0,.18,0,.28.28,0,0,0,.15-.11c.06-.11,6-10.69,12.26-17.82A4.6,4.6,0,0,1,129,85.81a4.35,4.35,0,0,1,3.35,1.71C138.74,95.1,138.81,105.63,132.55,114.34Z"/><path fill="#00162c" d="M132.94,45.2a19.92,19.92,0,0,0-12.2,3.22c-2.75,1.89-5,5.37-3.6,7.46S127,59.73,127.62,63a3.33,3.33,0,0,1,3.24-1.14,3.34,3.34,0,0,1,.92,6.22c.57,4.07,3.44,6.58,7,5.45,1.44-.46,6.91-1.94,6.91-2.87,0-3,.23-15.2-.92-18.34C143.07,47.72,138.37,45.38,132.94,45.2Z"/><path fill="#00162c" d="M132.94,45a20.22,20.22,0,0,0-12.33,3.27c-2.94,2-5.17,5.57-3.66,7.78.62.91,2.34,1.7,4.34,2.61,2.7,1.23,5.76,2.62,6.1,4.46l.09.49.32-.39a3.11,3.11,0,1,1,3.87,4.73l-.14.08,0,.16c.49,3.54,2.72,5.91,5.54,5.91a5.69,5.69,0,0,0,1.74-.28l.89-.27c3.91-1.17,6.18-2,6.18-2.82,0-.34,0-.8,0-1.35,0-4.26.09-14.25-.94-17.07C143.38,47.9,138.88,45.17,132.94,45Zm12.5,24.38c0,.55,0,1,0,1.35s-2,1.21-5.85,2.37c-.36.11-.68.2-.89.28a5.4,5.4,0,0,1-1.6.26c-2.54,0-4.55-2.15-5.05-5.36a3.58,3.58,0,1,0-4.31-5.67c-.7-1.85-3.63-3.19-6.24-4.38-1.86-.84-3.61-1.64-4.16-2.44-1.3-1.92.78-5.24,3.54-7.14a19.7,19.7,0,0,1,12.06-3.18c5.83.2,10.06,2.75,11.6,7C145.53,55.18,145.47,65.1,145.44,69.34Z"/><path fill="#5b7895" d="M144.17,71.76c.87-.38,1.5-.76,1.5-1.07,0-3,.23-15.2-.92-18.34-1.68-4.63-6.38-7-11.81-7.15a21.42,21.42,0,0,0-9.09,1.54,14.75,14.75,0,0,1,5.9,1.83l.79.44.2.12c.28.18.57.36.84.55a.41.41,0,0,1,.11.07,21.53,21.53,0,0,1,1.83,1.4l.1.09.69.63.21.21c.18.17.35.36.52.54l.23.24.46.54.19.23c.2.26.39.51.56.77,3.32,4.91,2.72,11.1,1.66,16.65-.71,3.68-2.21,7-3.23,10.59-.86,3-.08,6.18.05,9.27,0,.4,0,.8,0,1.2v.22c0,.41,0,.83,0,1.24v.08c0,.36,0,.73-.09,1.1,0,.1,0,.2,0,.3q-.06.6-.18,1.2c-1.47,7.67-8.24,15.2-15.21,18.43-.34.16-.68.3-1,.44l-.11,0c-.34.13-.68.26-1,.37a17.81,17.81,0,0,1-11.62-.18,18.69,18.69,0,0,1-6.79-4q-.47-.45-.9-.9l-.87-.9-.17-.18c-.23-.24-.47-.48-.71-.71l-.26-.26c-.31-.28-.62-.56-1-.82s-7.51-4.28-7.51-4.28c-3.88-2.85-3-4.51-6.67-7.62-1.58-1.32-5.16,2-3.6,2.93.7.44,3.53,2.94,3.77,1.09.16-1.23-2.28-2.31-2-2.64s.5-.9.6-.67c2.92,6.31,5.54,8,7.55,7.83,2.43,2.24,4.67,4.16,6.4,5.58a18.35,18.35,0,0,0,.2,7.56s15,7.36,21.15,9.66c.25,0,2.26.66,2.51.66.61,0,5.37-3.13,5.55-3.11,5.34.41,5.72,4.27,10.89,5.37a5,5,0,0,1,.78.22h21.07c0-15.93-.81-32.7-5.29-42.89C148.19,82.05,145.44,77,144.17,71.76Z"/></g></svg>