<svg xmlns="http://www.w3.org/2000/svg" viewBox="0 0 200 150"><g data-name="Layer 1"><path fill="#3b51ff" d="M43.94,19.86h70.9a8.52,8.52,0,0,1,8.52,8.52v93.23a8.52,8.52,0,0,1-8.52,8.52H43.93a8.52,8.52,0,0,1-8.52-8.52V28.39A8.53,8.53,0,0,1,43.94,19.86Z"/><path d="M114.83,19.63H43.93a8.76,8.76,0,0,0-8.75,8.76v93.22a8.76,8.76,0,0,0,8.75,8.76h70.9a8.77,8.77,0,0,0,8.76-8.76V28.39A8.77,8.77,0,0,0,114.83,19.63Zm8.29,102a8.29,8.29,0,0,1-8.29,8.29H43.93a8.29,8.29,0,0,1-8.29-8.29V28.39a8.3,8.3,0,0,1,8.29-8.29h70.9a8.3,8.3,0,0,1,8.29,8.29Z"/><rect width=".31" height="103.9" x="42.93" y="26.02" fill="#fff"/><rect width=".31" height="103.9" x="50.91" y="26.02" fill="#fff"/><rect width=".31" height="103.9" x="58.89" y="26.02" fill="#fff"/><rect width=".31" height="103.9" x="66.87" y="26.02" fill="#fff"/><rect width=".31" height="103.9" x="74.84" y="26.02" fill="#fff"/><rect width=".31" height="103.9" x="82.82" y="26.02" fill="#fff"/><rect width=".31" height="103.9" x="90.8" y="26.02" fill="#fff"/><rect width=".31" height="103.9" x="98.78" y="26.02" fill="#fff"/><rect width=".31" height="103.9" x="106.75" y="26.02" fill="#fff"/><rect width=".31" height="103.9" x="114.73" y="26.02" fill="#fff"/><rect width="87.45" height=".31" x="35.69" y="41.77" fill="#fff"/><rect width="87.45" height=".31" x="35.69" y="49.77" fill="#fff"/><rect width="87.45" height=".31" x="35.69" y="57.78" fill="#fff"/><rect width="87.45" height=".31" x="35.69" y="33.52" fill="#fff"/><rect width="87.45" height=".31" x="35.69" y="65.78" fill="#fff"/><rect width="87.45" height=".31" x="35.69" y="73.78" fill="#fff"/><rect width="87.45" height=".31" x="35.69" y="81.79" fill="#fff"/><rect width="87.45" height=".31" x="35.69" y="89.79" fill="#fff"/><rect width="87.45" height=".31" x="35.69" y="97.79" fill="#fff"/><rect width="87.45" height=".31" x="35.69" y="105.8" fill="#fff"/><rect width="87.45" height=".31" x="35.69" y="113.8" fill="#fff"/><rect width="87.45" height=".31" x="35.69" y="121.81" fill="#fff"/><path fill="#fff" d="M114.83,19.86H43.93a8.53,8.53,0,0,0-8.52,8.53h87.94A8.52,8.52,0,0,0,114.83,19.86Z"/><path fill="#20171f" d="M114.83,19.63H43.93a8.76,8.76,0,0,0-8.75,8.76.23.23,0,0,0,.23.23h87.94a.23.23,0,0,0,.24-.23A8.77,8.77,0,0,0,114.83,19.63ZM35.65,28.15a8.29,8.29,0,0,1,8.28-8h70.9a8.31,8.31,0,0,1,8.29,8Z"/><rect width=".47" height="3.15" x="41.95" y="23.77" fill="#20171f" transform="rotate(-45.01 42.18 25.352)"/><rect width="3.15" height=".47" x="40.61" y="25.11" fill="#20171f" transform="rotate(-45.09 42.174 25.345)"/><path fill="#20171f" d="M46.64,23.85a1.51,1.51,0,1,0,1.51,1.51A1.51,1.51,0,0,0,46.64,23.85Zm0,2.55a1,1,0,1,1,1-1A1,1,0,0,1,46.64,26.4Z"/><rect width="2.26" height=".47" x="49.09" y="26.4" fill="#20171f"/><path d="M113.78,114.53H51.55a5.16,5.16,0,0,0,0,10.32h62.23a5.16,5.16,0,0,0,0-10.32Z" style="mix-blend-mode:multiply" fill="#5b7895"/><path d="M113.78,94.65H51.55a5.16,5.16,0,0,0,0,10.32h62.23a5.16,5.16,0,0,0,0-10.32Z" style="mix-blend-mode:multiply" fill="#5b7895"/><path d="M113.78,74.77H51.55a5.16,5.16,0,0,0,0,10.32h62.23a5.16,5.16,0,0,0,0-10.32Z" style="mix-blend-mode:multiply" fill="#5b7895"/><path d="M112.71,50,51.16,59.12a5.16,5.16,0,1,0,1.52,10.2l61.55-9.16A5.16,5.16,0,1,0,112.71,50Z" style="mix-blend-mode:multiply" fill="#5b7895"/><path d="M111.15,111.17H47.61a5.27,5.27,0,1,0,0,10.54h63.54a5.27,5.27,0,0,0,0-10.54Z"/><path d="M111.15,110.94H47.61a5.5,5.5,0,0,0,0,11h63.54a5.5,5.5,0,0,0,0-11Zm0,10.53H47.61a5,5,0,0,1,0-10.06h63.54a5,5,0,1,1,0,10.06Z"/><path d="M111.15,90.87H47.61a5.27,5.27,0,0,0,0,10.54h63.54a5.27,5.27,0,0,0,0-10.54Z"/><path d="M111.15,90.64H47.61a5.5,5.5,0,0,0,0,11h63.54a5.5,5.5,0,0,0,0-11Zm0,10.53H47.61a5,5,0,0,1,0-10.07h63.54a5,5,0,1,1,0,10.07Z"/><path d="M111.15,70.57H47.61a5.27,5.27,0,0,0,0,10.54h63.54a5.27,5.27,0,0,0,0-10.54Z"/><path d="M111.15,70.33H47.61a5.51,5.51,0,0,0,0,11h63.54a5.51,5.51,0,0,0,0-11Zm0,10.54H47.61a5,5,0,0,1,0-10.07h63.54a5,5,0,1,1,0,10.07Z"/><path fill="#04fa98" d="M111.15,33.42H47.61a5.5,5.5,0,0,0,0,11h63.54a5.5,5.5,0,0,0,0-11Zm0,10.53H47.61a5,5,0,0,1,0-10.07h63.54a5,5,0,1,1,0,10.07Z"/><path d="M110.06,45.24,47.21,54.59A5.27,5.27,0,0,0,48.76,65l62.85-9.35a5.27,5.27,0,0,0-1.55-10.42Z"/><path d="M110.84,45A5.66,5.66,0,0,0,110,45L47.18,54.36a5.51,5.51,0,0,0,.8,11,5.67,5.67,0,0,0,.82-.07l62.84-9.35a5.5,5.5,0,0,0-.8-10.94Zm.73,10.48L48.73,64.78a4.74,4.74,0,0,1-.75.06,5,5,0,0,1-.73-10l62.84-9.35a4.74,4.74,0,0,1,.75-.06,5,5,0,0,1,.73,10Z"/><polygon fill="#fff" points="74.8 56.89 73.58 57.08 73.68 57.68 73.07 57.77 73.16 58.38 72.56 58.47 71.95 58.56 71.35 58.66 70.74 58.75 70.13 58.84 70.04 58.23 69.43 58.33 69.34 57.72 69.25 57.11 69.07 55.9 68.97 55.3 68.88 54.69 69.49 54.6 69.4 53.99 70 53.9 70.61 53.81 71.22 53.72 71.82 53.62 72.43 53.53 72.52 54.14 73.13 54.05 73.22 54.65 74.43 54.47 74.25 53.26 73.64 53.35 73.55 52.74 72.94 52.83 72.85 52.23 71.03 52.5 70.43 52.59 69.82 52.69 68.61 52.87 68.7 53.48 68.09 53.57 68.19 54.17 67.58 54.27 67.86 56.09 67.95 56.69 68.04 57.3 68.13 57.9 68.31 59.11 68.92 59.02 69.01 59.63 69.62 59.54 69.71 60.14 71.53 59.87 72.14 59.77 73.95 59.5 73.86 58.89 74.47 58.8 74.38 58.2 74.98 58.1 74.8 56.89"/><polygon fill="#fff" points="79.37 54.34 79.28 53.73 79.19 53.13 79.09 52.52 77.88 52.7 78.16 54.52 76.94 54.7 76.34 54.8 76.43 55.4 76.52 56.01 77.73 55.83 78.34 55.73 78.62 57.55 79.22 57.46 79.83 57.37 79.74 56.76 79.64 56.16 79.55 55.55 80.77 55.37 81.37 55.27 81.19 54.06 79.37 54.34"/><polygon fill="#fff" points="87.25 53.14 87.16 52.53 87.06 51.93 86.97 51.32 85.76 51.51 86.04 53.33 84.82 53.51 84.22 53.6 84.31 54.21 84.4 54.81 85.61 54.63 86.22 54.54 86.5 56.36 87.1 56.26 87.71 56.17 87.62 55.57 87.52 54.96 87.43 54.35 88.64 54.17 89.25 54.08 89.07 52.87 87.25 53.14"/><path fill="#fff" d="M77.33,78.13V76.82a1.29,1.29,0,0,0-.45-1,1.27,1.27,0,0,0,.44-1V73.55c0-.4.22-.62.65-.66v-.65c-.87.1-1.3.54-1.3,1.31v1.31q0,.66-.6.66h0v.65h.06c.39,0,.59.22.59.65v1.31c0,.78.44,1.21,1.31,1.31v-.65C77.55,78.75,77.33,78.54,77.33,78.13Z"/><path fill="#fff" d="M82.69,75.5c-.4,0-.6-.21-.6-.65V73.54c0-.77-.44-1.21-1.31-1.31v.66a.61.61,0,0,1,.66.65v1.31a1.3,1.3,0,0,0,.44,1,1.33,1.33,0,0,0-.44,1v1.31q0,.6-.66.66v.66c.87-.11,1.31-.55,1.31-1.32V76.81c0-.43.2-.65.6-.65h.06V75.5Z"/><path fill="#fff" d="M130.46,82.05c-5.72,0-10.31,34.34-10.31,48.08h20.61c0-1.37.05-2.75.05-4.15C140.81,101.72,136.17,82.05,130.46,82.05Z"/><path d="M130.46,81.82c-6,0-10.54,34.3-10.54,48.31a.23.23,0,0,0,.23.23h20.61a.24.24,0,0,0,.24-.23c0-1.4,0-2.8,0-4.15C141,101.22,136.39,81.82,130.46,81.82Zm10.07,48.07H120.38c.05-15,4.9-47.61,10.08-47.61,5.58,0,10.12,19.61,10.12,43.7C140.58,127.25,140.56,128.57,140.53,129.89Z"/><path fill="#fff" d="M147.4,68.3l-12.33,1.57a25.44,25.44,0,0,1-.47,6.75s10.19-2.22,13.28-2.22A35.3,35.3,0,0,1,147.4,68.3Z"/><path fill="#0e0e27" d="M147.63,68.32a.22.22,0,0,0-.06-.19.24.24,0,0,0-.2-.06L135,69.64a.24.24,0,0,0-.2.25,25.73,25.73,0,0,1-.47,6.67.26.26,0,0,0,.07.22.24.24,0,0,0,.16.07h.05c.1,0,10.2-2.21,13.23-2.21a.23.23,0,0,0,.23-.27A34.32,34.32,0,0,1,147.63,68.32Zm0,5.85c-3,.1-10.91,1.76-12.7,2.14a26.55,26.55,0,0,0,.41-6.23l11.83-1.51A34.74,34.74,0,0,0,147.61,74.17Z"/><path fill="#04fa98" d="M147.8,73.66s-15.69,2-19.84,4-3.3,21.09-3.08,31.46-.22,21.06-.22,21.06h39.93s-1.83-28.52-4.83-37.18S147.8,73.66,147.8,73.66Z"/><path fill="#0e0e27" d="M148,73.51a.27.27,0,0,0-.2-.09c-.65.09-15.77,2.07-19.91,4-4,1.82-3.54,18.14-3.27,28.94,0,1,0,1.88.06,2.73.22,10.25-.22,20.94-.22,21.05a.22.22,0,0,0,.06.17.28.28,0,0,0,.17.07h39.93a.23.23,0,0,0,.17-.08.21.21,0,0,0,.06-.17c0-.29-1.86-28.65-4.84-37.24S148.06,73.61,148,73.51ZM124.9,129.89c.07-1.65.42-11.42.22-20.83,0-.85,0-1.77-.07-2.73-.25-10-.66-26.82,3-28.51,3.87-1.79,18.13-3.72,19.64-3.92.91,1.11,9.08,11.15,11.84,19.12s4.61,34,4.8,36.87Z"/><polygon points="124.76 104.19 135.27 98.74 124.65 95.72 124.76 104.19" style="mix-blend-mode:multiply" fill="#5b7895" opacity=".55"/><path d="M154.35,82.58V108a12.59,12.59,0,0,1-.28,3.2c-1,10.33-10.84,18.69-21.11,18.69a20.49,20.49,0,0,1-8.23-1.69c0,1.22-.07,1.93-.07,1.93h39.93s-1.83-28.52-4.83-37.18A50.89,50.89,0,0,0,154.35,82.58Z" style="mix-blend-mode:multiply" fill="#5b7895" opacity=".55"/><path fill="#0e0e27" d="M144.74,47.49s-.57-4.74-8.83-2.82c-6,1.39-7,.91-7,.91A4.36,4.36,0,0,0,132,48.32s-4.31-.54-4.06,3.86,2.94,5,3,7-3.65,4.23.21,7.09,12.47,8,18.16-.42C154.82,57.73,149.88,43.8,144.74,47.49Z"/><path fill="#0e0e27" d="M144.89,47.11c-.27-.88-1.36-3.13-5.43-3.13a16.58,16.58,0,0,0-3.6.46,29.7,29.7,0,0,1-6.21,1,2.59,2.59,0,0,1-.7-.06.23.23,0,0,0-.25,0,.24.24,0,0,0-.06.24,4.48,4.48,0,0,0,2.16,2.47,3.73,3.73,0,0,0-2.19,1.05,3.92,3.92,0,0,0-.9,3,8,8,0,0,0,2,5,3.5,3.5,0,0,1,1,2A4.18,4.18,0,0,1,130,61.1c-.81,1.48-1.81,3.33,1,5.41,3.8,2.81,7.3,4.24,10.41,4.24h0c3.24,0,6-1.59,8.08-4.72,3.3-4.89,3-12.15.74-16.35C148.81,47,146.76,46,144.89,47.11Zm4.22,18.66c-2,3-4.61,4.51-7.69,4.51h0c-3,0-6.47-1.43-10.13-4.15-2.48-1.84-1.69-3.28-.86-4.8a4.53,4.53,0,0,0,.75-2.11,3.87,3.87,0,0,0-1.09-2.29,7.6,7.6,0,0,1-1.9-4.77,3.43,3.43,0,0,1,.77-2.67,3.68,3.68,0,0,1,2.63-1,3.57,3.57,0,0,1,.4,0,.23.23,0,0,0,.26-.19.24.24,0,0,0-.18-.27,4.12,4.12,0,0,1-2.82-2.21c.74.06,2.54,0,6.72-1a15.69,15.69,0,0,1,3.5-.45c4.61,0,5,2.94,5,3.07a.25.25,0,0,0,.14.19.24.24,0,0,0,.23,0c1.72-1.23,3.58-.36,5,2.22C152,54,152.32,61,149.11,65.77Z"/><path fill="#fff" d="M146.36,60.22h0a35.77,35.77,0,0,0-.12-4.49C146,54,141.16,51.21,136,52.55c0,0-3.6-2.11-4.72,3.13a86.52,86.52,0,0,0-1.33,9.15c-.17,2.34-.7,5.76.74,7.45,1.95,2.27,4.59,3,7.58,3.19.83-2.2,3.44-.75,4.71-1.9,2-1.81,2.42-4.85,2.77-7.21a3.41,3.41,0,0,0,.65.07,3.11,3.11,0,0,0,0-6.21Z"/><path fill="#0e0e27" d="M146.57,60a36.13,36.13,0,0,0-.13-4.3C146.22,54,142.76,52,138.78,52a11.4,11.4,0,0,0-2.79.34,3.62,3.62,0,0,0-1.63-.41c-1.16,0-2.69.65-3.35,3.74a91.22,91.22,0,0,0-1.34,9.18c0,.31,0,.63-.08,1-.19,2.28-.44,5.12.88,6.66,1.77,2.07,4.24,3.11,7.75,3.28h0a.23.23,0,0,0,.22-.15c.43-1.15,1.36-1.18,2.44-1.22a3.28,3.28,0,0,0,2.2-.6c2-1.8,2.46-4.69,2.81-7.11l.46,0a3.33,3.33,0,0,0,.21-6.66Zm-.21,6.19a3.05,3.05,0,0,1-.6-.06.22.22,0,0,0-.19.05.3.3,0,0,0-.1.17c-.34,2.36-.77,5.3-2.69,7.05a3,3,0,0,1-1.91.47c-1,0-2.23.08-2.79,1.36-3.29-.18-5.6-1.17-7.25-3.1-1.2-1.4-1-4.13-.77-6.32,0-.34.06-.66.08-1a86.91,86.91,0,0,1,1.33-9.12c.47-2.21,1.47-3.37,2.89-3.37a3.25,3.25,0,0,1,1.49.39.21.21,0,0,0,.17,0,11.17,11.17,0,0,1,2.76-.35c3.86,0,7,2,7.2,3.34a35.37,35.37,0,0,1,.11,4.46.22.22,0,0,0,.09.16.24.24,0,0,0,.18.07,2.87,2.87,0,0,1,0,5.74Z"/><path fill="#0e0e27" d="M139.38,64.51a4.94,4.94,0,0,0-3.57-.78c-1,.16-1.77.73-3.1.73a4.9,4.9,0,0,1-2.69-.74c-.05.43-.09.81-.11,1.11-.17,2.34-.7,5.76.74,7.45,1.95,2.27,4.59,3,7.58,3.19.83-2.2,3.44-.75,4.71-1.9,2.25-2,2.51-5.64,2.9-8.08a5.05,5.05,0,0,1-2.52.63A6.22,6.22,0,0,1,139.38,64.51Zm-4.06,3.42a3.43,3.43,0,0,1-2.07-2.07c-.17-.63.42-.64.89-.46,2.62,1,4.6.08,4.87.67C139.51,67.18,137.56,68.79,135.32,67.93Z"/><path fill="#0e0e27" d="M138.38,65.62l-.55,0c-.25,0-.55,0-.87,0a7.36,7.36,0,0,1-2.73-.48,1.56,1.56,0,0,0-.58-.12.63.63,0,0,0-.55.23.71.71,0,0,0-.08.62,3.68,3.68,0,0,0,2.21,2.23,3.84,3.84,0,0,0,1.36.25,3,3,0,0,0,2.49-1.19,1.27,1.27,0,0,0,.14-1.24C139.08,65.67,138.74,65.62,138.38,65.62Zm.3,1.34a2.5,2.5,0,0,1-2.09,1,3.35,3.35,0,0,1-1.19-.23,3.19,3.19,0,0,1-1.92-1.91.16.16,0,0,1,.17-.27,1.13,1.13,0,0,1,.41.09,7.63,7.63,0,0,0,2.9.52c.33,0,.64,0,.9,0l.52,0c.36,0,.41.06.42.08A.84.84,0,0,1,138.68,67Z"/><path fill="#0e0e27" d="M145.72,65.29a4.82,4.82,0,0,1-2.4.59,5.7,5.7,0,0,1-3.63-1.44l-.18-.12a5.18,5.18,0,0,0-3.73-.82,6.78,6.78,0,0,0-1.18.33,5.45,5.45,0,0,1-1.89.39,4.67,4.67,0,0,1-2.57-.7.26.26,0,0,0-.23,0,.24.24,0,0,0-.13.18c-.05.44-.09.82-.11,1.12s0,.63-.08,1c-.19,2.28-.44,5.12.88,6.66,1.77,2.07,4.24,3.11,7.75,3.28h0a.23.23,0,0,0,.22-.15c.43-1.15,1.36-1.18,2.44-1.22a3.28,3.28,0,0,0,2.2-.6c2-1.86,2.49-4.89,2.84-7.32,0-.31.09-.61.14-.89a.25.25,0,0,0-.1-.23A.23.23,0,0,0,145.72,65.29Zm-.25,1.06c-.34,2.36-.76,5.3-2.69,7.05a3,3,0,0,1-1.91.47c-1,0-2.23.08-2.79,1.36-3.29-.18-5.6-1.17-7.25-3.1-1.2-1.4-1-4.13-.77-6.32,0-.34.06-.66.08-1s0-.47.07-.75a5.24,5.24,0,0,0,2.5.59,5.66,5.66,0,0,0,2-.42,6.22,6.22,0,0,1,1.1-.31,4.73,4.73,0,0,1,3.39.74l.17.12a6.09,6.09,0,0,0,3.91,1.53,5.37,5.37,0,0,0,2.22-.45C145.52,66.05,145.49,66.2,145.47,66.35Z"/><path fill="#0e0e27" d="M142.05,58.44l-4.44-.52a.88.88,0,0,0-1,.92v1.23a1.76,1.76,0,0,0,1.48,1.85l2.48.29h.18a1.78,1.78,0,0,0,1.69-1.46l.28-1.2a1,1,0,0,0-.15-.77A.81.81,0,0,0,142.05,58.44Zm.25,1-.27,1.2a1.33,1.33,0,0,1-1.37,1.1l-2.47-.29a1.32,1.32,0,0,1-1.08-1.38V58.85a.45.45,0,0,1,.43-.46h0l4.44.52a.33.33,0,0,1,.24.15A.48.48,0,0,1,142.3,59.45Z"/><path fill="#0e0e27" d="M135,57.62l-4.44-.53a.91.91,0,0,0-.95.92v1.23a1.78,1.78,0,0,0,1.49,1.86l2.48.29h.18a1.8,1.8,0,0,0,1.69-1.47l.27-1.2a1,1,0,0,0-.14-.77A.8.8,0,0,0,135,57.62Zm.26,1-.28,1.2a1.31,1.31,0,0,1-1.36,1.09l-2.48-.29a1.31,1.31,0,0,1-1.07-1.38V58a.44.44,0,0,1,.43-.46h0l4.44.52a.33.33,0,0,1,.24.15A.55.55,0,0,1,135.27,58.63Z"/><path fill="#0e0e27" d="M135.35,58.5a.23.23,0,1,0,.29.36.75.75,0,0,1,1.07.13.23.23,0,0,0,.18.09A.22.22,0,0,0,137,59a.24.24,0,0,0,0-.33A1.2,1.2,0,0,0,135.35,58.5Z"/><path fill="#0e0e27" d="M134.48,56.22a5.53,5.53,0,0,0-3.46.25.24.24,0,0,0,.07.46l.08,0a5.12,5.12,0,0,1,3.14-.25.23.23,0,0,0,.3-.14A.23.23,0,0,0,134.48,56.22Z"/><path fill="#0e0e27" d="M142.2,56.82a5.45,5.45,0,0,0-3.31-1,.23.23,0,0,0-.2.26.23.23,0,0,0,.26.2,5.19,5.19,0,0,1,3,1,.28.28,0,0,0,.12,0,.22.22,0,0,0,.2-.12A.23.23,0,0,0,142.2,56.82Z"/><path fill="#0e0e27" d="M140.68,59.48a.51.51,0,1,0,.51.51A.51.51,0,0,0,140.68,59.48Z"/><path fill="#0e0e27" d="M140.68,59.25a.74.74,0,1,0,.74.74A.74.74,0,0,0,140.68,59.25Zm0,1a.29.29,0,0,1-.28-.28.28.28,0,0,1,.28-.27A.27.27,0,0,1,141,60,.28.28,0,0,1,140.68,60.27Z"/><path fill="#0e0e27" d="M133.2,58.63a.5.5,0,0,0-.51.5.51.51,0,1,0,1,0A.5.5,0,0,0,133.2,58.63Z"/><path fill="#0e0e27" d="M133.2,58.39a.75.75,0,0,0-.75.74.76.76,0,0,0,.75.75.75.75,0,0,0,.74-.75A.74.74,0,0,0,133.2,58.39Zm0,1a.28.28,0,1,1,0-.55.28.28,0,0,1,0,.55Z"/><path fill="#0e0e27" d="M136.45,61.3a.92.92,0,0,0-.73.54,1.12,1.12,0,0,0,.28.94.25.25,0,0,0,.18.08.24.24,0,0,0,.15-.06.23.23,0,0,0,0-.33c-.08-.09-.23-.33-.18-.48s.26-.2.38-.23a.24.24,0,1,0-.1-.46Z"/><path fill="#00162c" d="M147.52,61.49a2,2,0,0,0-2.22.38l.33.32a1.59,1.59,0,0,1,1.71-.27,1.33,1.33,0,0,1,.84,1.34c-.05,1.47-1.73,1.66-1.81,1.67l0,.46a2.33,2.33,0,0,0,2.23-2.12A1.81,1.81,0,0,0,147.52,61.49Z"/><path fill="#00162c" d="M147,61.76a1.06,1.06,0,0,1,.07.89,1,1,0,0,1-.63.47l.1.46a1.53,1.53,0,0,0,1-.72,1.47,1.47,0,0,0-.07-1.3Z"/><path fill="#fff" d="M101.3,44.9c-.08-2-6.59-4.57-7.34-3.43a2.67,2.67,0,0,0-.27,1.59s-2-1.24-2.82.06c0,0-2.25,0-2.72,1.78,0,.14-4.75,1.8-3.35,4l2.44-.42c.45-.15.84-.79.84-.53-.1,7.23,1.62,10,3.57,10.78C94.45,65.79,97.1,71,97.1,71l9.54-7.35s-7.46-9.29-7.45-10.4S101.38,46.87,101.3,44.9Z"/><path d="M99.43,53.25a16.25,16.25,0,0,1,.79-2.87,21.72,21.72,0,0,0,1.32-5.49C101.46,43,96.75,41,94.78,41a1.13,1.13,0,0,0-1,.39,2.39,2.39,0,0,0-.33,1.31A3.66,3.66,0,0,0,92,42.29a1.47,1.47,0,0,0-1.25.6A3,3,0,0,0,88,44.76l-.27.13c-.87.42-2.92,1.39-3.31,2.75a1.67,1.67,0,0,0,.24,1.42.21.21,0,0,0,.23.1l2.47-.43a1.69,1.69,0,0,0,.53-.33c0,5.94,1.19,9.49,3.63,10.54,2.76,6.91,5.4,12.11,5.42,12.16a.22.22,0,0,0,.16.12h0a.24.24,0,0,0,.14,0l9.54-7.35a.21.21,0,0,0,.09-.15.23.23,0,0,0-.05-.18C103.23,59,99.42,53.92,99.43,53.25ZM97.18,70.64c-.56-1.13-2.89-5.89-5.31-12a.33.33,0,0,0-.13-.13c-1.63-.65-3.54-3-3.43-10.56a.33.33,0,0,0-.08-.22.31.31,0,0,0-.18-.07c-.14,0-.23.08-.38.22a1.59,1.59,0,0,1-.48.37l-2.27.4a1.22,1.22,0,0,1-.1-.91c.34-1.16,2.24-2.07,3.06-2.46.39-.19.46-.22.5-.35.42-1.57,2.48-1.61,2.5-1.61a.21.21,0,0,0,.19-.11,1,1,0,0,1,.93-.48,3.73,3.73,0,0,1,1.57.5.23.23,0,0,0,.25,0,.24.24,0,0,0,.11-.23,2.32,2.32,0,0,1,.23-1.43c.07-.11.3-.17.62-.17,1.88,0,6.23,2,6.29,3.48a22,22,0,0,1-1.3,5.33,16.45,16.45,0,0,0-.81,3c0,1.09,5.81,8.44,7.35,10.36Z"/><path fill="#fff" d="M96.45,45.26l.74-1.12L93.52,43A10.26,10.26,0,0,1,96.45,45.26Z"/><path fill="#0e0e27" d="M97.32,43.94A.24.24,0,0,0,97,44l-.57.87a10.12,10.12,0,0,0-2.8-2.13.22.22,0,0,0-.31.11.23.23,0,0,0,.11.31,10.13,10.13,0,0,1,2.86,2.25.21.21,0,0,0,.17.07h0a.21.21,0,0,0,.17-.1l.74-1.12A.25.25,0,0,0,97.32,43.94Z"/><path fill="#04fa98" d="M111.71,71.71s-5.08-9.44-9-15.46c0,0-11.45,5.84-14.21,13,0,0,13.75,19.58,15.37,20.29s31.68,9.27,31.68,9.27l-1.6-22C123.43,77.77,111.71,71.71,111.71,71.71Z"/><path fill="#0e0e27" d="M135.57,98.56c-.3-.08-30.07-8.57-31.65-9.26-1.14-.49-9.68-12.25-15.19-20.1,2.57-6.43,12.39-11.86,13.86-12.64,3.89,5.95,8.86,15.17,8.91,15.26a.32.32,0,0,0,.1.1c.12.06,11.9,6.07,22.34,5.08a.25.25,0,0,0,.21-.26.24.24,0,0,0-.26-.21c-9.89,1-21.06-4.52-22-5-.46-.85-5.26-9.72-9-15.42a.24.24,0,0,0-.3-.08c-.48.24-11.57,6-14.33,13.1a.28.28,0,0,0,0,.22c1.41,2,13.83,19.66,15.46,20.37s30.48,8.93,31.71,9.28h.07a.23.23,0,0,0,.22-.17A.23.23,0,0,0,135.57,98.56Z"/><path fill="#fff" d="M135.2,81.26c-4.77,0-24.28-4.5-25.09-5.45-.39-.76-10-16.66-10.46-17.34l-.4.25c.1.16,10.06,16.56,10.44,17.3.61,1.18,20.87,5.71,25.51,5.71,4.89,0,17.48-.54,17.6-.55l0-.47C152.66,80.72,140.08,81.26,135.2,81.26Z"/><path fill="#fff" d="M134,85.08c-5.86.49-23.54-4.11-25.23-5.52-1.12-.92-8.61-12.63-12.42-18.7l-.4.25c.46.72,11.07,17.61,12.52,18.81,1.91,1.58,18,5.66,24.6,5.66.35,0,.68,0,1,0,4.22-.35,20.48-.59,20.64-.6v-.46C154.49,84.49,138.22,84.73,134,85.08Z" opacity=".4"/><path fill="#fff" d="M74.17,113.38h-.61v-.62H68v7.36h1.23v-2.45h4.29v-.62h.61v-.61h.61V114h-.61Zm-.61,1.83v.62H73v.61H69.27V114H73v.61h.61Z"/><polygon fill="#fff" points="81.53 115.83 77.24 115.83 77.24 112.76 76.62 112.76 76.01 112.76 76.01 113.38 76.01 113.99 76.01 114.6 76.01 115.21 76.01 115.83 76.01 116.44 76.01 117.05 76.01 118.28 76.01 118.89 76.01 119.5 76.01 120.12 76.62 120.12 77.24 120.12 77.24 117.05 81.53 117.05 81.53 120.12 82.75 120.12 82.75 118.89 82.75 113.99 82.75 112.76 81.53 112.76 81.53 115.83"/><path fill="#fff" d="M90.11,113.38H89.5v-.62H84v7.36H85.2v-2.45h4.3v-.62h.61v-.61h.61V114h-.61Zm-.61,1.83v.62h-.62v.61H85.2V114h3.68v.61h.62Z"/><polygon fill="#fff" points="74.17 93.07 73.56 93.07 73.56 92.46 71.72 92.46 71.11 92.46 70.49 92.46 69.27 92.46 69.27 93.07 68.66 93.07 68.66 93.69 68.04 93.69 68.04 95.53 68.04 96.14 68.04 96.75 68.04 97.36 68.04 98.59 68.66 98.59 68.66 99.2 69.27 99.2 69.27 99.82 71.11 99.82 71.72 99.82 73.56 99.82 73.56 99.2 74.17 99.2 74.17 98.59 74.78 98.59 74.78 97.36 73.56 97.36 73.56 97.98 72.95 97.98 72.95 98.59 72.33 98.59 71.72 98.59 71.11 98.59 70.49 98.59 69.88 98.59 69.88 97.98 69.27 97.98 69.27 97.36 69.27 96.75 69.27 95.53 69.27 94.91 69.27 94.3 69.88 94.3 69.88 93.69 70.49 93.69 71.11 93.69 71.72 93.69 72.33 93.69 72.95 93.69 72.95 94.3 73.56 94.3 73.56 94.91 74.78 94.91 74.78 93.69 74.17 93.69 74.17 93.07"/><polygon fill="#fff" points="82.14 93.07 81.53 93.07 81.53 92.46 79.69 92.46 79.08 92.46 78.46 92.46 77.24 92.46 77.24 93.07 76.62 93.07 76.62 93.69 76.01 93.69 76.01 94.3 76.01 94.91 76.01 95.53 76.62 95.53 76.62 96.14 77.24 96.14 77.24 96.75 79.08 96.75 79.69 96.75 80.3 96.75 80.92 96.75 80.92 97.36 81.53 97.36 81.53 97.98 80.92 97.98 80.92 98.59 80.3 98.59 79.69 98.59 79.08 98.59 78.46 98.59 77.85 98.59 77.85 97.98 77.24 97.98 77.24 97.36 76.01 97.36 76.01 98.59 76.62 98.59 76.62 99.2 77.24 99.2 77.24 99.82 79.08 99.82 79.69 99.82 81.53 99.82 81.53 99.2 82.14 99.2 82.14 98.59 82.75 98.59 82.75 97.98 82.75 97.36 82.75 96.75 82.14 96.75 82.14 96.14 81.53 96.14 81.53 95.53 79.69 95.53 79.08 95.53 78.46 95.53 77.85 95.53 77.85 94.91 77.24 94.91 77.24 94.3 77.85 94.3 77.85 93.69 78.46 93.69 79.08 93.69 79.69 93.69 80.3 93.69 80.92 93.69 80.92 94.3 81.53 94.3 81.53 94.91 82.75 94.91 82.75 93.69 82.14 93.69 82.14 93.07"/><polygon fill="#fff" points="90.11 93.07 89.5 93.07 89.5 92.46 87.66 92.46 87.04 92.46 86.43 92.46 85.2 92.46 85.2 93.07 84.59 93.07 84.59 93.69 83.98 93.69 83.98 94.3 83.98 94.91 83.98 95.53 84.59 95.53 84.59 96.14 85.2 96.14 85.2 96.75 87.04 96.75 87.66 96.75 88.27 96.75 88.88 96.75 88.88 97.36 89.5 97.36 89.5 97.98 88.88 97.98 88.88 98.59 88.27 98.59 87.66 98.59 87.04 98.59 86.43 98.59 85.82 98.59 85.82 97.98 85.2 97.98 85.2 97.36 83.98 97.36 83.98 98.59 84.59 98.59 84.59 99.2 85.2 99.2 85.2 99.82 87.04 99.82 87.66 99.82 89.5 99.82 89.5 99.2 90.11 99.2 90.11 98.59 90.72 98.59 90.72 97.98 90.72 97.36 90.72 96.75 90.11 96.75 90.11 96.14 89.5 96.14 89.5 95.53 87.66 95.53 87.04 95.53 86.43 95.53 85.82 95.53 85.82 94.91 85.2 94.91 85.2 94.3 85.82 94.3 85.82 93.69 86.43 93.69 87.04 93.69 87.66 93.69 88.27 93.69 88.88 93.69 88.88 94.3 89.5 94.3 89.5 94.91 90.72 94.91 90.72 93.69 90.11 93.69 90.11 93.07"/></g></svg>